<svg width="16" height="16" viewBox="0 0 16 16" fill="none" xmlns="http://www.w3.org/2000/svg">
<g clip-path="url(#clip0_770_29415)">
<path d="M10.1328 15.4668H9.59961V16H10.1328V15.4668Z" fill="#375BD6"/>
<path d="M9.5996 15.4668H9.06641V16H9.5996V15.4668Z" fill="#375BD6"/>
<path d="M9.06639 15.4668H8.5332V16H9.06639V15.4668Z" fill="#375BD6"/>
<path d="M8.53319 15.4668H8V16H8.53319V15.4668Z" fill="#375BD6"/>
<path d="M7.99999 15.4668H7.4668V16H7.99999V15.4668Z" fill="#375BD6"/>
<path d="M7.46679 15.4668H6.93359V16H7.46679V15.4668Z" fill="#375BD6"/>
<path d="M6.93358 15.4668H6.40039V16H6.93358V15.4668Z" fill="#375BD6"/>
<path d="M6.40038 15.4668H5.86719V16H6.40038V15.4668Z" fill="#375BD6"/>
<path d="M11.7324 14.9331H11.1992V15.4663H11.7324V14.9331Z" fill="#375BD6"/>
<path d="M11.1992 14.9331H10.666V15.4663H11.1992V14.9331Z" fill="#375BD6"/>
<path d="M10.666 14.9331H10.1328V15.4663H10.666V14.9331Z" fill="#375BD6"/>
<path d="M10.1328 14.9331H9.59961V15.4663H10.1328V14.9331Z" fill="#375BD6"/>
<path d="M9.5996 14.9331H9.06641V15.4663H9.5996V14.9331Z" fill="#375BD6"/>
<path d="M9.06639 14.9331H8.5332V15.4663H9.06639V14.9331Z" fill="#375BD6"/>
<path d="M8.53319 14.9331H8V15.4663H8.53319V14.9331Z" fill="#375BD6"/>
<path d="M7.99999 14.9331H7.4668V15.4663H7.99999V14.9331Z" fill="#375BD6"/>
<path d="M7.46679 14.9331H6.93359V15.4663H7.46679V14.9331Z" fill="#375BD6"/>
<path d="M6.93358 14.9331H6.40039V15.4663H6.93358V14.9331Z" fill="#375BD6"/>
<path d="M6.40038 14.9331H5.86719V15.4663H6.40038V14.9331Z" fill="#375BD6"/>
<path d="M5.86718 14.9331H5.33398V15.4663H5.86718V14.9331Z" fill="#375BD6"/>
<path d="M5.33397 14.9331H4.80078V15.4663H5.33397V14.9331Z" fill="#375BD6"/>
<path d="M4.80077 14.9331H4.26758V15.4663H4.80077V14.9331Z" fill="#3D60D7"/>
<path d="M12.8008 14.3999H12.2676V14.9331H12.8008V14.3999Z" fill="#4163D8"/>
<path d="M12.2656 14.3999H11.7324V14.9331H12.2656V14.3999Z" fill="#375BD6"/>
<path d="M11.7324 14.3999H11.1992V14.9331H11.7324V14.3999Z" fill="#375BD6"/>
<path d="M11.1992 14.3999H10.666V14.9331H11.1992V14.3999Z" fill="#375BD6"/>
<path d="M10.666 14.3999H10.1328V14.9331H10.666V14.3999Z" fill="#375BD6"/>
<path d="M10.1328 14.3999H9.59961V14.9331H10.1328V14.3999Z" fill="#375BD6"/>
<path d="M9.5996 14.3999H9.06641V14.9331H9.5996V14.3999Z" fill="#375BD6"/>
<path d="M9.06639 14.3999H8.5332V14.9331H9.06639V14.3999Z" fill="#375BD6"/>
<path d="M8.53319 14.3999H8V14.9331H8.53319V14.3999Z" fill="#375BD6"/>
<path d="M7.99999 14.3999H7.4668V14.9331H7.99999V14.3999Z" fill="#375BD6"/>
<path d="M7.46679 14.3999H6.93359V14.9331H7.46679V14.3999Z" fill="#375BD6"/>
<path d="M6.93358 14.3999H6.40039V14.9331H6.93358V14.3999Z" fill="#375BD6"/>
<path d="M6.40038 14.3999H5.86719V14.9331H6.40038V14.3999Z" fill="#375BD6"/>
<path d="M5.86718 14.3999H5.33398V14.9331H5.86718V14.3999Z" fill="#375BD6"/>
<path d="M5.33397 14.3999H4.80078V14.9331H5.33397V14.3999Z" fill="#375BD6"/>
<path d="M4.80077 14.3999H4.26758V14.9331H4.80077V14.3999Z" fill="#375BD6"/>
<path d="M4.26561 14.3999H3.73242V14.9331H4.26561V14.3999Z" fill="#375BD6"/>
<path d="M13.334 13.8667H12.8008V14.3999H13.334V13.8667Z" fill="#375BD6"/>
<path d="M12.8008 13.8667H12.2676V14.3999H12.8008V13.8667Z" fill="#375BD6"/>
<path d="M12.2656 13.8667H11.7324V14.3999H12.2656V13.8667Z" fill="#375BD6"/>
<path d="M11.7324 13.8667H11.1992V14.3999H11.7324V13.8667Z" fill="#375BD6"/>
<path d="M11.1992 13.8667H10.666V14.3999H11.1992V13.8667Z" fill="#375BD6"/>
<path d="M10.666 13.8667H10.1328V14.3999H10.666V13.8667Z" fill="#375BD6"/>
<path d="M10.1328 13.8667H9.59961V14.3999H10.1328V13.8667Z" fill="#375BD6"/>
<path d="M9.5996 13.8667H9.06641V14.3999H9.5996V13.8667Z" fill="#375BD6"/>
<path d="M9.06639 13.8667H8.5332V14.3999H9.06639V13.8667Z" fill="#375BD6"/>
<path d="M8.53319 13.8667H8V14.3999H8.53319V13.8667Z" fill="#375BD6"/>
<path d="M7.99999 13.8667H7.4668V14.3999H7.99999V13.8667Z" fill="#375BD6"/>
<path d="M7.46679 13.8667H6.93359V14.3999H7.46679V13.8667Z" fill="#375BD6"/>
<path d="M6.93358 13.8667H6.40039V14.3999H6.93358V13.8667Z" fill="#375BD6"/>
<path d="M6.40038 13.8667H5.86719V14.3999H6.40038V13.8667Z" fill="#375BD6"/>
<path d="M5.86718 13.8667H5.33398V14.3999H5.86718V13.8667Z" fill="#375BD6"/>
<path d="M5.33397 13.8667H4.80078V14.3999H5.33397V13.8667Z" fill="#375BD6"/>
<path d="M4.80077 13.8667H4.26758V14.3999H4.80077V13.8667Z" fill="#375BD6"/>
<path d="M4.26561 13.8667H3.73242V14.3999H4.26561V13.8667Z" fill="#375BD6"/>
<path d="M3.73241 13.8667H3.19922V14.3999H3.73241V13.8667Z" fill="#375BD6"/>
<path d="M3.19921 13.8667H2.66602V14.3999H3.19921V13.8667Z" fill="#3B5ED6"/>
<path d="M13.8672 13.333H13.334V13.8662H13.8672V13.333Z" fill="#375BD6"/>
<path d="M13.334 13.333H12.8008V13.8662H13.334V13.333Z" fill="#375BD6"/>
<path d="M12.8008 13.333H12.2676V13.8662H12.8008V13.333Z" fill="#375BD6"/>
<path d="M12.2656 13.333H11.7324V13.8662H12.2656V13.333Z" fill="#375BD6"/>
<path d="M11.7324 13.333H11.1992V13.8662H11.7324V13.333Z" fill="#375BD6"/>
<path d="M11.1992 13.333H10.666V13.8662H11.1992V13.333Z" fill="#375BD6"/>
<path d="M10.666 13.333H10.1328V13.8662H10.666V13.333Z" fill="#375BD6"/>
<path d="M10.1328 13.333H9.59961V13.8662H10.1328V13.333Z" fill="#375BD6"/>
<path d="M9.5996 13.333H9.06641V13.8662H9.5996V13.333Z" fill="#375BD6"/>
<path d="M9.06639 13.333H8.5332V13.8662H9.06639V13.333Z" fill="#365BD6"/>
<path d="M8.53319 13.333H8V13.8662H8.53319V13.333Z" fill="#335CD3"/>
<path d="M7.99999 13.333H7.4668V13.8662H7.99999V13.333Z" fill="#335CD3"/>
<path d="M7.46679 13.333H6.93359V13.8662H7.46679V13.333Z" fill="#335CD3"/>
<path d="M6.93358 13.333H6.40039V13.8662H6.93358V13.333Z" fill="#335CD3"/>
<path d="M6.40038 13.333H5.86719V13.8662H6.40038V13.333Z" fill="#335CD3"/>
<path d="M5.86718 13.333H5.33398V13.8662H5.86718V13.333Z" fill="#335CD3"/>
<path d="M5.33397 13.333H4.80078V13.8662H5.33397V13.333Z" fill="#335CD4"/>
<path d="M4.80077 13.333H4.26758V13.8662H4.80077V13.333Z" fill="#375BD6"/>
<path d="M4.26561 13.333H3.73242V13.8662H4.26561V13.333Z" fill="#375BD6"/>
<path d="M3.73241 13.333H3.19922V13.8662H3.73241V13.333Z" fill="#375BD6"/>
<path d="M3.19921 13.333H2.66602V13.8662H3.19921V13.333Z" fill="#375BD6"/>
<path d="M2.666 13.333H2.13281V13.8662H2.666V13.333Z" fill="#375BD6"/>
<path d="M14.4004 12.7998H13.8672V13.333H14.4004V12.7998Z" fill="#375BD6"/>
<path d="M13.8672 12.7998H13.334V13.333H13.8672V12.7998Z" fill="#375BD6"/>
<path d="M13.334 12.7998H12.8008V13.333H13.334V12.7998Z" fill="#375BD6"/>
<path d="M12.8008 12.7998H12.2676V13.333H12.8008V12.7998Z" fill="#375BD6"/>
<path d="M12.2656 12.7998H11.7324V13.333H12.2656V12.7998Z" fill="#375BD6"/>
<path d="M11.7324 12.7998H11.1992V13.333H11.7324V12.7998Z" fill="#375BD6"/>
<path d="M11.1992 12.7998H10.666V13.333H11.1992V12.7998Z" fill="#375BD6"/>
<path d="M10.666 12.7998H10.1328V13.333H10.666V12.7998Z" fill="#345BD4"/>
<path d="M10.1328 12.7998H9.59961V13.333H10.1328V12.7998Z" fill="#325AD2"/>
<path d="M9.5996 12.7998H9.06641V13.333H9.5996V12.7998Z" fill="#3457D5"/>
<path d="M9.06639 12.7998H8.5332V13.333H9.06639V12.7998Z" fill="#8AA4E2"/>
<path d="M8.53319 12.7998H8V13.333H8.53319V12.7998Z" fill="#F9FAF9"/>
<path d="M7.99999 12.7998H7.4668V13.333H7.99999V12.7998Z" fill="#F9F9F8"/>
<path d="M7.46679 12.7998H6.93359V13.333H7.46679V12.7998Z" fill="#F9F9F9"/>
<path d="M6.93358 12.7998H6.40039V13.333H6.93358V12.7998Z" fill="#F9F9FA"/>
<path d="M6.40038 12.7998H5.86719V13.333H6.40038V12.7998Z" fill="#F9FAF8"/>
<path d="M5.86718 12.7998H5.33398V13.333H5.86718V12.7998Z" fill="#F8F9F9"/>
<path d="M5.33397 12.7998H4.80078V13.333H5.33397V12.7998Z" fill="#F5FAFA"/>
<path d="M4.80077 12.7998H4.26758V13.333H4.80077V12.7998Z" fill="#345CD4"/>
<path d="M4.26561 12.7998H3.73242V13.333H4.26561V12.7998Z" fill="#375BD6"/>
<path d="M3.73241 12.7998H3.19922V13.333H3.73241V12.7998Z" fill="#375BD6"/>
<path d="M3.19921 12.7998H2.66602V13.333H3.19921V12.7998Z" fill="#375BD6"/>
<path d="M2.666 12.7998H2.13281V13.333H2.666V12.7998Z" fill="#375BD6"/>
<path d="M2.1328 12.7998H1.59961V13.333H2.1328V12.7998Z" fill="#4163D7"/>
<path d="M14.9336 12.2666H14.4004V12.7998H14.9336V12.2666Z" fill="#3F62D7"/>
<path d="M14.4004 12.2666H13.8672V12.7998H14.4004V12.2666Z" fill="#375BD6"/>
<path d="M13.8672 12.2666H13.334V12.7998H13.8672V12.2666Z" fill="#375BD6"/>
<path d="M13.334 12.2666H12.8008V12.7998H13.334V12.2666Z" fill="#375BD6"/>
<path d="M12.8008 12.2666H12.2676V12.7998H12.8008V12.2666Z" fill="#375BD6"/>
<path d="M12.2656 12.2666H11.7324V12.7998H12.2656V12.2666Z" fill="#375BD6"/>
<path d="M11.7324 12.2666H11.1992V12.7998H11.7324V12.2666Z" fill="#375BD6"/>
<path d="M11.1992 12.2666H10.666V12.7998H11.1992V12.2666Z" fill="#345BD7"/>
<path d="M10.666 12.2666H10.1328V12.7998H10.666V12.2666Z" fill="#3759CD"/>
<path d="M10.1328 12.2666H9.59961V12.7998H10.1328V12.2666Z" fill="#F4FBFB"/>
<path d="M9.5996 12.2666H9.06641V12.7998H9.5996V12.2666Z" fill="#D0D4F1"/>
<path d="M9.06639 12.2666H8.5332V12.7998H9.06639V12.2666Z" fill="#335AD4"/>
<path d="M8.53319 12.2666H8V12.7998H8.53319V12.2666Z" fill="#3658D4"/>
<path d="M7.99999 12.2666H7.4668V12.7998H7.99999V12.2666Z" fill="#355AD5"/>
<path d="M7.46679 12.2666H6.93359V12.7998H7.46679V12.2666Z" fill="#335BCD"/>
<path d="M6.93358 12.2666H6.40039V12.7998H6.93358V12.2666Z" fill="#F8FDF8"/>
<path d="M6.40038 12.2666H5.86719V12.7998H6.40038V12.2666Z" fill="#8494D6"/>
<path d="M5.86718 12.2666H5.33398V12.7998H5.86718V12.2666Z" fill="#355BCF"/>
<path d="M5.33397 12.2666H4.80078V12.7998H5.33397V12.2666Z" fill="#FBFBF7"/>
<path d="M4.80077 12.2666H4.26758V12.7998H4.80077V12.2666Z" fill="#345CD2"/>
<path d="M4.26561 12.2666H3.73242V12.7998H4.26561V12.2666Z" fill="#375BD6"/>
<path d="M3.73241 12.2666H3.19922V12.7998H3.73241V12.2666Z" fill="#375BD6"/>
<path d="M3.19921 12.2666H2.66602V12.7998H3.19921V12.2666Z" fill="#375BD6"/>
<path d="M2.666 12.2666H2.13281V12.7998H2.666V12.2666Z" fill="#375BD6"/>
<path d="M2.1328 12.2666H1.59961V12.7998H2.1328V12.2666Z" fill="#375BD6"/>
<path d="M14.9336 11.7334H14.4004V12.2666H14.9336V11.7334Z" fill="#375BD6"/>
<path d="M14.4004 11.7334H13.8672V12.2666H14.4004V11.7334Z" fill="#375BD6"/>
<path d="M13.8672 11.7334H13.334V12.2666H13.8672V11.7334Z" fill="#375BD6"/>
<path d="M13.334 11.7334H12.8008V12.2666H13.334V11.7334Z" fill="#375BD6"/>
<path d="M12.8008 11.7334H12.2676V12.2666H12.8008V11.7334Z" fill="#375BD6"/>
<path d="M12.2656 11.7334H11.7324V12.2666H12.2656V11.7334Z" fill="#375BD6"/>
<path d="M11.7324 11.7334H11.1992V12.2666H11.7324V11.7334Z" fill="#375BD6"/>
<path d="M11.1992 11.7334H10.666V12.2666H11.1992V11.7334Z" fill="#335BD8"/>
<path d="M10.666 11.7334H10.1328V12.2666H10.666V11.7334Z" fill="#FBFDF7"/>
<path d="M10.1328 11.7334H9.59961V12.2666H10.1328V11.7334Z" fill="#3F57D1"/>
<path d="M9.5996 11.7334H9.06641V12.2666H9.5996V11.7334Z" fill="#3657E0"/>
<path d="M9.06639 11.7334H8.5332V12.2666H9.06639V11.7334Z" fill="#375BD6"/>
<path d="M8.53319 11.7334H8V12.2666H8.53319V11.7334Z" fill="#375BD6"/>
<path d="M7.99999 11.7334H7.4668V12.2666H7.99999V11.7334Z" fill="#375BD6"/>
<path d="M7.46679 11.7334H6.93359V12.2666H7.46679V11.7334Z" fill="#365AD7"/>
<path d="M6.93358 11.7334H6.40039V12.2666H6.93358V11.7334Z" fill="#3459D4"/>
<path d="M6.40038 11.7334H5.86719V12.2666H6.40038V11.7334Z" fill="#E1EBF3"/>
<path d="M5.86718 11.7334H5.33398V12.2666H5.86718V11.7334Z" fill="#9EB3E4"/>
<path d="M5.33397 11.7334H4.80078V12.2666H5.33397V11.7334Z" fill="#FDFDFB"/>
<path d="M4.80077 11.7334H4.26758V12.2666H4.80077V11.7334Z" fill="#315AD0"/>
<path d="M4.26561 11.7334H3.73242V12.2666H4.26561V11.7334Z" fill="#375BD6"/>
<path d="M3.73241 11.7334H3.19922V12.2666H3.73241V11.7334Z" fill="#375BD6"/>
<path d="M3.19921 11.7334H2.66602V12.2666H3.19921V11.7334Z" fill="#375BD6"/>
<path d="M2.666 11.7334H2.13281V12.2666H2.666V11.7334Z" fill="#375BD6"/>
<path d="M2.1328 11.7334H1.59961V12.2666H2.1328V11.7334Z" fill="#375BD6"/>
<path d="M1.5996 11.7334H1.06641V12.2666H1.5996V11.7334Z" fill="#375BD6"/>
<path d="M15.4668 11.2002H14.9336V11.7334H15.4668V11.2002Z" fill="#375BD6"/>
<path d="M14.9336 11.2002H14.4004V11.7334H14.9336V11.2002Z" fill="#375BD6"/>
<path d="M14.4004 11.2002H13.8672V11.7334H14.4004V11.2002Z" fill="#375BD6"/>
<path d="M13.8672 11.2002H13.334V11.7334H13.8672V11.2002Z" fill="#375BD6"/>
<path d="M13.334 11.2002H12.8008V11.7334H13.334V11.2002Z" fill="#375BD6"/>
<path d="M12.8008 11.2002H12.2676V11.7334H12.8008V11.2002Z" fill="#375BD6"/>
<path d="M12.2656 11.2002H11.7324V11.7334H12.2656V11.2002Z" fill="#375BD6"/>
<path d="M11.7324 11.2002H11.1992V11.7334H11.7324V11.2002Z" fill="#375BD6"/>
<path d="M11.1992 11.2002H10.666V11.7334H11.1992V11.2002Z" fill="#6F91D4"/>
<path d="M10.666 11.2002H10.1328V11.7334H10.666V11.2002Z" fill="#3459C9"/>
<path d="M10.1328 11.2002H9.59961V11.7334H10.1328V11.2002Z" fill="#345AD3"/>
<path d="M9.5996 11.2002H9.06641V11.7334H9.5996V11.2002Z" fill="#375BD6"/>
<path d="M9.06639 11.2002H8.5332V11.7334H9.06639V11.2002Z" fill="#375BD6"/>
<path d="M8.53319 11.2002H8V11.7334H8.53319V11.2002Z" fill="#375BD6"/>
<path d="M7.99999 11.2002H7.4668V11.7334H7.99999V11.2002Z" fill="#375BD6"/>
<path d="M7.46679 11.2002H6.93359V11.7334H7.46679V11.2002Z" fill="#375BD6"/>
<path d="M6.93358 11.2002H6.40039V11.7334H6.93358V11.2002Z" fill="#375BD6"/>
<path d="M6.40038 11.2002H5.86719V11.7334H6.40038V11.2002Z" fill="#375BD3"/>
<path d="M5.86718 11.2002H5.33398V11.7334H5.86718V11.2002Z" fill="#EAF3F8"/>
<path d="M5.33397 11.2002H4.80078V11.7334H5.33397V11.2002Z" fill="#FDFCFD"/>
<path d="M4.80077 11.2002H4.26758V11.7334H4.80077V11.2002Z" fill="#315AD0"/>
<path d="M4.26561 11.2002H3.73242V11.7334H4.26561V11.2002Z" fill="#375BD6"/>
<path d="M3.73241 11.2002H3.19922V11.7334H3.73241V11.2002Z" fill="#375BD6"/>
<path d="M3.19921 11.2002H2.66602V11.7334H3.19921V11.2002Z" fill="#375BD6"/>
<path d="M2.666 11.2002H2.13281V11.7334H2.666V11.2002Z" fill="#375BD6"/>
<path d="M2.1328 11.2002H1.59961V11.7334H2.1328V11.2002Z" fill="#375BD6"/>
<path d="M1.5996 11.2002H1.06641V11.7334H1.5996V11.2002Z" fill="#375BD6"/>
<path d="M15.4668 10.667H14.9336V11.2002H15.4668V10.667Z" fill="#375BD6"/>
<path d="M14.9336 10.667H14.4004V11.2002H14.9336V10.667Z" fill="#375BD6"/>
<path d="M14.4004 10.667H13.8672V11.2002H14.4004V10.667Z" fill="#375BD6"/>
<path d="M13.8672 10.667H13.334V11.2002H13.8672V10.667Z" fill="#375BD6"/>
<path d="M13.334 10.667H12.8008V11.2002H13.334V10.667Z" fill="#375BD6"/>
<path d="M12.8008 10.667H12.2676V11.2002H12.8008V10.667Z" fill="#375BD6"/>
<path d="M12.2656 10.667H11.7324V11.2002H12.2656V10.667Z" fill="#375BD6"/>
<path d="M11.7324 10.667H11.1992V11.2002H11.7324V10.667Z" fill="#325AD2"/>
<path d="M11.1992 10.667H10.666V11.2002H11.1992V10.667Z" fill="#FAFCFA"/>
<path d="M10.666 10.667H10.1328V11.2002H10.666V10.667Z" fill="#365AD5"/>
<path d="M10.1328 10.667H9.59961V11.2002H10.1328V10.667Z" fill="#375BD6"/>
<path d="M9.5996 10.667H9.06641V11.2002H9.5996V10.667Z" fill="#375BD6"/>
<path d="M9.06639 10.667H8.5332V11.2002H9.06639V10.667Z" fill="#375BD6"/>
<path d="M8.53319 10.667H8V11.2002H8.53319V10.667Z" fill="#375BD6"/>
<path d="M7.99999 10.667H7.4668V11.2002H7.99999V10.667Z" fill="#375BD6"/>
<path d="M7.46679 10.667H6.93359V11.2002H7.46679V10.667Z" fill="#375BD6"/>
<path d="M6.93358 10.667H6.40039V11.2002H6.93358V10.667Z" fill="#375BD6"/>
<path d="M6.40038 10.667H5.86719V11.2002H6.40038V10.667Z" fill="#375BD6"/>
<path d="M5.86718 10.667H5.33398V11.2002H5.86718V10.667Z" fill="#315CD3"/>
<path d="M5.33397 10.667H4.80078V11.2002H5.33397V10.667Z" fill="#FDFEFC"/>
<path d="M4.80077 10.667H4.26758V11.2002H4.80077V10.667Z" fill="#315AD0"/>
<path d="M4.26561 10.667H3.73242V11.2002H4.26561V10.667Z" fill="#375BD6"/>
<path d="M3.73241 10.667H3.19922V11.2002H3.73241V10.667Z" fill="#375BD6"/>
<path d="M3.19921 10.667H2.66602V11.2002H3.19921V10.667Z" fill="#375BD6"/>
<path d="M2.666 10.667H2.13281V11.2002H2.666V10.667Z" fill="#375BD6"/>
<path d="M2.1328 10.667H1.59961V11.2002H2.1328V10.667Z" fill="#375BD6"/>
<path d="M1.5996 10.667H1.06641V11.2002H1.5996V10.667Z" fill="#375BD6"/>
<path d="M1.06639 10.667H0.533203V11.2002H1.06639V10.667Z" fill="#375BD6"/>
<path d="M15.4668 10.1333H14.9336V10.6665H15.4668V10.1333Z" fill="#375BD6"/>
<path d="M14.9336 10.1333H14.4004V10.6665H14.9336V10.1333Z" fill="#375BD6"/>
<path d="M14.4004 10.1333H13.8672V10.6665H14.4004V10.1333Z" fill="#375BD6"/>
<path d="M13.8672 10.1333H13.334V10.6665H13.8672V10.1333Z" fill="#375BD6"/>
<path d="M13.334 10.1333H12.8008V10.6665H13.334V10.1333Z" fill="#375BD6"/>
<path d="M12.8008 10.1333H12.2676V10.6665H12.8008V10.1333Z" fill="#375BD6"/>
<path d="M12.2656 10.1333H11.7324V10.6665H12.2656V10.1333Z" fill="#375BD6"/>
<path d="M11.7324 10.1333H11.1992V10.6665H11.7324V10.1333Z" fill="#3558D6"/>
<path d="M11.1992 10.1333H10.666V10.6665H11.1992V10.1333Z" fill="#F8FAF9"/>
<path d="M10.666 10.1333H10.1328V10.6665H10.666V10.1333Z" fill="#375BD6"/>
<path d="M10.1328 10.1333H9.59961V10.6665H10.1328V10.1333Z" fill="#375BD6"/>
<path d="M9.5996 10.1333H9.06641V10.6665H9.5996V10.1333Z" fill="#375BD6"/>
<path d="M9.06639 10.1333H8.5332V10.6665H9.06639V10.1333Z" fill="#375BD6"/>
<path d="M8.53319 10.1333H8V10.6665H8.53319V10.1333Z" fill="#375BD6"/>
<path d="M7.99999 10.1333H7.4668V10.6665H7.99999V10.1333Z" fill="#375BD6"/>
<path d="M7.46679 10.1333H6.93359V10.6665H7.46679V10.1333Z" fill="#375BD6"/>
<path d="M6.93358 10.1333H6.40039V10.6665H6.93358V10.1333Z" fill="#375BD6"/>
<path d="M6.40038 10.1333H5.86719V10.6665H6.40038V10.1333Z" fill="#375BD6"/>
<path d="M5.86718 10.1333H5.33398V10.6665H5.86718V10.1333Z" fill="#325CD6"/>
<path d="M5.33397 10.1333H4.80078V10.6665H5.33397V10.1333Z" fill="#FCFCFE"/>
<path d="M4.80077 10.1333H4.26758V10.6665H4.80077V10.1333Z" fill="#315AD0"/>
<path d="M4.26561 10.1333H3.73242V10.6665H4.26561V10.1333Z" fill="#375BD6"/>
<path d="M3.73241 10.1333H3.19922V10.6665H3.73241V10.1333Z" fill="#375BD6"/>
<path d="M3.19921 10.1333H2.66602V10.6665H3.19921V10.1333Z" fill="#375BD6"/>
<path d="M2.666 10.1333H2.13281V10.6665H2.666V10.1333Z" fill="#375BD6"/>
<path d="M2.1328 10.1333H1.59961V10.6665H2.1328V10.1333Z" fill="#375BD6"/>
<path d="M1.5996 10.1333H1.06641V10.6665H1.5996V10.1333Z" fill="#375BD6"/>
<path d="M1.06639 10.1333H0.533203V10.6665H1.06639V10.1333Z" fill="#375BD6"/>
<path d="M16 9.6001H15.4668V10.1333H16V9.6001Z" fill="#375BD6"/>
<path d="M15.4668 9.6001H14.9336V10.1333H15.4668V9.6001Z" fill="#375BD6"/>
<path d="M14.9336 9.6001H14.4004V10.1333H14.9336V9.6001Z" fill="#375BD6"/>
<path d="M14.4004 9.6001H13.8672V10.1333H14.4004V9.6001Z" fill="#375BD6"/>
<path d="M13.8672 9.6001H13.334V10.1333H13.8672V9.6001Z" fill="#375BD6"/>
<path d="M13.334 9.6001H12.8008V10.1333H13.334V9.6001Z" fill="#375BD6"/>
<path d="M12.8008 9.6001H12.2676V10.1333H12.8008V9.6001Z" fill="#375BD6"/>
<path d="M12.2656 9.6001H11.7324V10.1333H12.2656V9.6001Z" fill="#375BD6"/>
<path d="M11.7324 9.6001H11.1992V10.1333H11.7324V9.6001Z" fill="#3958D1"/>
<path d="M11.1992 9.6001H10.666V10.1333H11.1992V9.6001Z" fill="#EAEDFA"/>
<path d="M10.666 9.6001H10.1328V10.1333H10.666V9.6001Z" fill="#345CD6"/>
<path d="M10.1328 9.6001H9.59961V10.1333H10.1328V9.6001Z" fill="#375BD6"/>
<path d="M9.5996 9.6001H9.06641V10.1333H9.5996V9.6001Z" fill="#375BD6"/>
<path d="M9.06639 9.6001H8.5332V10.1333H9.06639V9.6001Z" fill="#375BD6"/>
<path d="M8.53319 9.6001H8V10.1333H8.53319V9.6001Z" fill="#375BD6"/>
<path d="M7.99999 9.6001H7.4668V10.1333H7.99999V9.6001Z" fill="#375BD6"/>
<path d="M7.46679 9.6001H6.93359V10.1333H7.46679V9.6001Z" fill="#375BD6"/>
<path d="M6.93358 9.6001H6.40039V10.1333H6.93358V9.6001Z" fill="#375BD6"/>
<path d="M6.40038 9.6001H5.86719V10.1333H6.40038V9.6001Z" fill="#375BD6"/>
<path d="M5.86718 9.6001H5.33398V10.1333H5.86718V9.6001Z" fill="#305BD4"/>
<path d="M5.33397 9.6001H4.80078V10.1333H5.33397V9.6001Z" fill="#FFFCFE"/>
<path d="M4.80077 9.6001H4.26758V10.1333H4.80077V9.6001Z" fill="#315AD0"/>
<path d="M4.26561 9.6001H3.73242V10.1333H4.26561V9.6001Z" fill="#375BD6"/>
<path d="M3.73241 9.6001H3.19922V10.1333H3.73241V9.6001Z" fill="#375BD6"/>
<path d="M3.19921 9.6001H2.66602V10.1333H3.19921V9.6001Z" fill="#375BD6"/>
<path d="M2.666 9.6001H2.13281V10.1333H2.666V9.6001Z" fill="#375BD6"/>
<path d="M2.1328 9.6001H1.59961V10.1333H2.1328V9.6001Z" fill="#375BD6"/>
<path d="M1.5996 9.6001H1.06641V10.1333H1.5996V9.6001Z" fill="#375BD6"/>
<path d="M1.06639 9.6001H0.533203V10.1333H1.06639V9.6001Z" fill="#375BD6"/>
<path d="M0.533192 9.6001H0V10.1333H0.533192V9.6001Z" fill="#395CD6"/>
<path d="M16 9.06689H15.4668V9.60009H16V9.06689Z" fill="#375BD6"/>
<path d="M15.4668 9.06689H14.9336V9.60009H15.4668V9.06689Z" fill="#375BD6"/>
<path d="M14.9336 9.06689H14.4004V9.60009H14.9336V9.06689Z" fill="#375BD6"/>
<path d="M14.4004 9.06689H13.8672V9.60009H14.4004V9.06689Z" fill="#375BD6"/>
<path d="M13.8672 9.06689H13.334V9.60009H13.8672V9.06689Z" fill="#375BD6"/>
<path d="M13.334 9.06689H12.8008V9.60009H13.334V9.06689Z" fill="#375BD6"/>
<path d="M12.8008 9.06689H12.2676V9.60009H12.8008V9.06689Z" fill="#375BD6"/>
<path d="M12.2656 9.06689H11.7324V9.60009H12.2656V9.06689Z" fill="#375BD6"/>
<path d="M11.7324 9.06689H11.1992V9.60009H11.7324V9.06689Z" fill="#305CD2"/>
<path d="M11.1992 9.06689H10.666V9.60009H11.1992V9.06689Z" fill="#FCFAFD"/>
<path d="M10.666 9.06689H10.1328V9.60009H10.666V9.06689Z" fill="#375BD6"/>
<path d="M10.1328 9.06689H9.59961V9.60009H10.1328V9.06689Z" fill="#375BD6"/>
<path d="M9.5996 9.06689H9.06641V9.60009H9.5996V9.06689Z" fill="#375BD6"/>
<path d="M9.06639 9.06689H8.5332V9.60009H9.06639V9.06689Z" fill="#375BD6"/>
<path d="M8.53319 9.06689H8V9.60009H8.53319V9.06689Z" fill="#375BD6"/>
<path d="M7.99999 9.06689H7.4668V9.60009H7.99999V9.06689Z" fill="#375BD6"/>
<path d="M7.46679 9.06689H6.93359V9.60009H7.46679V9.06689Z" fill="#375BD6"/>
<path d="M6.93358 9.06689H6.40039V9.60009H6.93358V9.06689Z" fill="#375BD6"/>
<path d="M6.40038 9.06689H5.86719V9.60009H6.40038V9.06689Z" fill="#375BD6"/>
<path d="M5.86718 9.06689H5.33398V9.60009H5.86718V9.06689Z" fill="#3659D5"/>
<path d="M5.33397 9.06689H4.80078V9.60009H5.33397V9.06689Z" fill="#FDFDF9"/>
<path d="M4.80077 9.06689H4.26758V9.60009H4.80077V9.06689Z" fill="#315AD0"/>
<path d="M4.26561 9.06689H3.73242V9.60009H4.26561V9.06689Z" fill="#375BD6"/>
<path d="M3.73241 9.06689H3.19922V9.60009H3.73241V9.06689Z" fill="#375BD6"/>
<path d="M3.19921 9.06689H2.66602V9.60009H3.19921V9.06689Z" fill="#375BD6"/>
<path d="M2.666 9.06689H2.13281V9.60009H2.666V9.06689Z" fill="#375BD6"/>
<path d="M2.1328 9.06689H1.59961V9.60009H2.1328V9.06689Z" fill="#375BD6"/>
<path d="M1.5996 9.06689H1.06641V9.60009H1.5996V9.06689Z" fill="#375BD6"/>
<path d="M1.06639 9.06689H0.533203V9.60009H1.06639V9.06689Z" fill="#375BD6"/>
<path d="M0.533192 9.06689H0V9.60009H0.533192V9.06689Z" fill="#375BD6"/>
<path d="M16 8.5332H15.4668V9.06639H16V8.5332Z" fill="#375BD6"/>
<path d="M15.4668 8.5332H14.9336V9.06639H15.4668V8.5332Z" fill="#375BD6"/>
<path d="M14.9336 8.5332H14.4004V9.06639H14.9336V8.5332Z" fill="#375BD6"/>
<path d="M14.4004 8.5332H13.8672V9.06639H14.4004V8.5332Z" fill="#375BD6"/>
<path d="M13.8672 8.5332H13.334V9.06639H13.8672V8.5332Z" fill="#375BD6"/>
<path d="M13.334 8.5332H12.8008V9.06639H13.334V8.5332Z" fill="#375BD6"/>
<path d="M12.8008 8.5332H12.2676V9.06639H12.8008V8.5332Z" fill="#375BD6"/>
<path d="M12.2656 8.5332H11.7324V9.06639H12.2656V8.5332Z" fill="#375BD6"/>
<path d="M11.7324 8.5332H11.1992V9.06639H11.7324V8.5332Z" fill="#3059D4"/>
<path d="M11.1992 8.5332H10.666V9.06639H11.1992V8.5332Z" fill="#FCFCF9"/>
<path d="M10.666 8.5332H10.1328V9.06639H10.666V8.5332Z" fill="#355AD4"/>
<path d="M10.1328 8.5332H9.59961V9.06639H10.1328V8.5332Z" fill="#375BD6"/>
<path d="M9.5996 8.5332H9.06641V9.06639H9.5996V8.5332Z" fill="#375BD6"/>
<path d="M9.06639 8.5332H8.5332V9.06639H9.06639V8.5332Z" fill="#375BD6"/>
<path d="M8.53319 8.5332H8V9.06639H8.53319V8.5332Z" fill="#375BD6"/>
<path d="M7.99999 8.5332H7.4668V9.06639H7.99999V8.5332Z" fill="#375BD6"/>
<path d="M7.46679 8.5332H6.93359V9.06639H7.46679V8.5332Z" fill="#375BD6"/>
<path d="M6.93358 8.5332H6.40039V9.06639H6.93358V8.5332Z" fill="#375BD6"/>
<path d="M6.40038 8.5332H5.86719V9.06639H6.40038V8.5332Z" fill="#365BD6"/>
<path d="M5.86718 8.5332H5.33398V9.06639H5.86718V8.5332Z" fill="#2F5CD7"/>
<path d="M5.33397 8.5332H4.80078V9.06639H5.33397V8.5332Z" fill="#FEFDFC"/>
<path d="M4.80077 8.5332H4.26758V9.06639H4.80077V8.5332Z" fill="#315AD0"/>
<path d="M4.26561 8.5332H3.73242V9.06639H4.26561V8.5332Z" fill="#375BD6"/>
<path d="M3.73241 8.5332H3.19922V9.06639H3.73241V8.5332Z" fill="#375BD6"/>
<path d="M3.19921 8.5332H2.66602V9.06639H3.19921V8.5332Z" fill="#375BD6"/>
<path d="M2.666 8.5332H2.13281V9.06639H2.666V8.5332Z" fill="#375BD6"/>
<path d="M2.1328 8.5332H1.59961V9.06639H2.1328V8.5332Z" fill="#375BD6"/>
<path d="M1.5996 8.5332H1.06641V9.06639H1.5996V8.5332Z" fill="#375BD6"/>
<path d="M1.06639 8.5332H0.533203V9.06639H1.06639V8.5332Z" fill="#375BD6"/>
<path d="M0.533192 8.5332H0V9.06639H0.533192V8.5332Z" fill="#375BD6"/>
<path d="M16 8H15.4668V8.53319H16V8Z" fill="#375BD6"/>
<path d="M15.4668 8H14.9336V8.53319H15.4668V8Z" fill="#375BD6"/>
<path d="M14.9336 8H14.4004V8.53319H14.9336V8Z" fill="#375BD6"/>
<path d="M14.4004 8H13.8672V8.53319H14.4004V8Z" fill="#375BD6"/>
<path d="M13.8672 8H13.334V8.53319H13.8672V8Z" fill="#375BD6"/>
<path d="M13.334 8H12.8008V8.53319H13.334V8Z" fill="#375BD6"/>
<path d="M12.8008 8H12.2676V8.53319H12.8008V8Z" fill="#375BD6"/>
<path d="M12.2656 8H11.7324V8.53319H12.2656V8Z" fill="#375BD6"/>
<path d="M11.7324 8H11.1992V8.53319H11.7324V8Z" fill="#375BD6"/>
<path d="M11.1992 8H10.666V8.53319H11.1992V8Z" fill="#345AD6"/>
<path d="M10.666 8H10.1328V8.53319H10.666V8Z" fill="#DAEBF7"/>
<path d="M10.1328 8H9.59961V8.53319H10.1328V8Z" fill="#375AD1"/>
<path d="M9.5996 8H9.06641V8.53319H9.5996V8Z" fill="#375BD6"/>
<path d="M9.06639 8H8.5332V8.53319H9.06639V8Z" fill="#375BD6"/>
<path d="M8.53319 8H8V8.53319H8.53319V8Z" fill="#375BD6"/>
<path d="M7.99999 8H7.4668V8.53319H7.99999V8Z" fill="#375BD6"/>
<path d="M7.46679 8H6.93359V8.53319H7.46679V8Z" fill="#375BD6"/>
<path d="M6.93358 8H6.40039V8.53319H6.93358V8Z" fill="#375BD6"/>
<path d="M6.40038 8H5.86719V8.53319H6.40038V8Z" fill="#2F5BDB"/>
<path d="M5.86718 8H5.33398V8.53319H5.86718V8Z" fill="#FCFCFD"/>
<path d="M5.33397 8H4.80078V8.53319H5.33397V8Z" fill="#FDFDFB"/>
<path d="M4.80077 8H4.26758V8.53319H4.80077V8Z" fill="#315AD0"/>
<path d="M4.26561 8H3.73242V8.53319H4.26561V8Z" fill="#375BD6"/>
<path d="M3.73241 8H3.19922V8.53319H3.73241V8Z" fill="#375BD6"/>
<path d="M3.19921 8H2.66602V8.53319H3.19921V8Z" fill="#375BD6"/>
<path d="M2.666 8H2.13281V8.53319H2.666V8Z" fill="#375BD6"/>
<path d="M2.1328 8H1.59961V8.53319H2.1328V8Z" fill="#375BD6"/>
<path d="M1.5996 8H1.06641V8.53319H1.5996V8Z" fill="#375BD6"/>
<path d="M1.06639 8H0.533203V8.53319H1.06639V8Z" fill="#375BD6"/>
<path d="M0.533192 8H0V8.53319H0.533192V8Z" fill="#375BD6"/>
<path d="M16 7.4668H15.4668V7.99999H16V7.4668Z" fill="#375BD6"/>
<path d="M15.4668 7.4668H14.9336V7.99999H15.4668V7.4668Z" fill="#375BD6"/>
<path d="M14.9336 7.4668H14.4004V7.99999H14.9336V7.4668Z" fill="#375BD6"/>
<path d="M14.4004 7.4668H13.8672V7.99999H14.4004V7.4668Z" fill="#375BD6"/>
<path d="M13.8672 7.4668H13.334V7.99999H13.8672V7.4668Z" fill="#375BD6"/>
<path d="M13.334 7.4668H12.8008V7.99999H13.334V7.4668Z" fill="#375BD6"/>
<path d="M12.8008 7.4668H12.2676V7.99999H12.8008V7.4668Z" fill="#375BD6"/>
<path d="M12.2656 7.4668H11.7324V7.99999H12.2656V7.4668Z" fill="#375BD6"/>
<path d="M11.7324 7.4668H11.1992V7.99999H11.7324V7.4668Z" fill="#375BD6"/>
<path d="M11.1992 7.4668H10.666V7.99999H11.1992V7.4668Z" fill="#3759DA"/>
<path d="M10.666 7.4668H10.1328V7.99999H10.666V7.4668Z" fill="#E6E9EF"/>
<path d="M10.1328 7.4668H9.59961V7.99999H10.1328V7.4668Z" fill="#AEC5E7"/>
<path d="M9.5996 7.4668H9.06641V7.99999H9.5996V7.4668Z" fill="#3559D6"/>
<path d="M9.06639 7.4668H8.5332V7.99999H9.06639V7.4668Z" fill="#345CD5"/>
<path d="M8.53319 7.4668H8V7.99999H8.53319V7.4668Z" fill="#345CD6"/>
<path d="M7.99999 7.4668H7.4668V7.99999H7.99999V7.4668Z" fill="#345CD6"/>
<path d="M7.46679 7.4668H6.93359V7.99999H7.46679V7.4668Z" fill="#375AD5"/>
<path d="M6.93358 7.4668H6.40039V7.99999H6.93358V7.4668Z" fill="#345AD5"/>
<path d="M6.40038 7.4668H5.86719V7.99999H6.40038V7.4668Z" fill="#FCFDFD"/>
<path d="M5.86718 7.4668H5.33398V7.99999H5.86718V7.4668Z" fill="#3059D8"/>
<path d="M5.33397 7.4668H4.80078V7.99999H5.33397V7.4668Z" fill="#FFFCFE"/>
<path d="M4.80077 7.4668H4.26758V7.99999H4.80077V7.4668Z" fill="#315AD0"/>
<path d="M4.26561 7.4668H3.73242V7.99999H4.26561V7.4668Z" fill="#375BD6"/>
<path d="M3.73241 7.4668H3.19922V7.99999H3.73241V7.4668Z" fill="#375BD6"/>
<path d="M3.19921 7.4668H2.66602V7.99999H3.19921V7.4668Z" fill="#375BD6"/>
<path d="M2.666 7.4668H2.13281V7.99999H2.666V7.4668Z" fill="#375BD6"/>
<path d="M2.1328 7.4668H1.59961V7.99999H2.1328V7.4668Z" fill="#375BD6"/>
<path d="M1.5996 7.4668H1.06641V7.99999H1.5996V7.4668Z" fill="#375BD6"/>
<path d="M1.06639 7.4668H0.533203V7.99999H1.06639V7.4668Z" fill="#375BD6"/>
<path d="M0.533192 7.4668H0V7.99999H0.533192V7.4668Z" fill="#375BD6"/>
<path d="M16 6.93311H15.4668V7.4663H16V6.93311Z" fill="#375BD6"/>
<path d="M15.4668 6.93311H14.9336V7.4663H15.4668V6.93311Z" fill="#375BD6"/>
<path d="M14.9336 6.93311H14.4004V7.4663H14.9336V6.93311Z" fill="#375BD6"/>
<path d="M14.4004 6.93311H13.8672V7.4663H14.4004V6.93311Z" fill="#375BD6"/>
<path d="M13.8672 6.93311H13.334V7.4663H13.8672V6.93311Z" fill="#375BD6"/>
<path d="M13.334 6.93311H12.8008V7.4663H13.334V6.93311Z" fill="#375BD6"/>
<path d="M12.8008 6.93311H12.2676V7.4663H12.8008V6.93311Z" fill="#375BD6"/>
<path d="M12.2656 6.93311H11.7324V7.4663H12.2656V6.93311Z" fill="#375BD6"/>
<path d="M11.7324 6.93311H11.1992V7.4663H11.7324V6.93311Z" fill="#375BD6"/>
<path d="M11.1992 6.93311H10.666V7.4663H11.1992V6.93311Z" fill="#375BD6"/>
<path d="M10.666 6.93311H10.1328V7.4663H10.666V6.93311Z" fill="#3959D4"/>
<path d="M10.1328 6.93311H9.59961V7.4663H10.1328V6.93311Z" fill="#395DC6"/>
<path d="M9.5996 6.93311H9.06641V7.4663H9.5996V6.93311Z" fill="#FBFAFB"/>
<path d="M9.06639 6.93311H8.5332V7.4663H9.06639V6.93311Z" fill="#D8E2F4"/>
<path d="M8.53319 6.93311H8V7.4663H8.53319V6.93311Z" fill="#3D61CE"/>
<path d="M7.99999 6.93311H7.4668V7.4663H7.99999V6.93311Z" fill="#466BCD"/>
<path d="M7.46679 6.93311H6.93359V7.4663H7.46679V6.93311Z" fill="#F6FDFE"/>
<path d="M6.93358 6.93311H6.40039V7.4663H6.93358V6.93311Z" fill="#FCFAFB"/>
<path d="M6.40038 6.93311H5.86719V7.4663H6.40038V6.93311Z" fill="#355DCD"/>
<path d="M5.86718 6.93311H5.33398V7.4663H5.86718V6.93311Z" fill="#345BD7"/>
<path d="M5.33397 6.93311H4.80078V7.4663H5.33397V6.93311Z" fill="#FFFDFB"/>
<path d="M4.80077 6.93311H4.26758V7.4663H4.80077V6.93311Z" fill="#315AD0"/>
<path d="M4.26561 6.93311H3.73242V7.4663H4.26561V6.93311Z" fill="#375BD6"/>
<path d="M3.73241 6.93311H3.19922V7.4663H3.73241V6.93311Z" fill="#375BD6"/>
<path d="M3.19921 6.93311H2.66602V7.4663H3.19921V6.93311Z" fill="#375BD6"/>
<path d="M2.666 6.93311H2.13281V7.4663H2.666V6.93311Z" fill="#375BD6"/>
<path d="M2.1328 6.93311H1.59961V7.4663H2.1328V6.93311Z" fill="#375BD6"/>
<path d="M1.5996 6.93311H1.06641V7.4663H1.5996V6.93311Z" fill="#375BD6"/>
<path d="M1.06639 6.93311H0.533203V7.4663H1.06639V6.93311Z" fill="#375BD6"/>
<path d="M0.533192 6.93311H0V7.4663H0.533192V6.93311Z" fill="#375BD6"/>
<path d="M16 6.3999H15.4668V6.93309H16V6.3999Z" fill="#375BD6"/>
<path d="M15.4668 6.3999H14.9336V6.93309H15.4668V6.3999Z" fill="#375BD6"/>
<path d="M14.9336 6.3999H14.4004V6.93309H14.9336V6.3999Z" fill="#375BD6"/>
<path d="M14.4004 6.3999H13.8672V6.93309H14.4004V6.3999Z" fill="#375BD6"/>
<path d="M13.8672 6.3999H13.334V6.93309H13.8672V6.3999Z" fill="#375BD6"/>
<path d="M13.334 6.3999H12.8008V6.93309H13.334V6.3999Z" fill="#375BD6"/>
<path d="M12.8008 6.3999H12.2676V6.93309H12.8008V6.3999Z" fill="#375BD6"/>
<path d="M12.2656 6.3999H11.7324V6.93309H12.2656V6.3999Z" fill="#375BD6"/>
<path d="M11.7324 6.3999H11.1992V6.93309H11.7324V6.3999Z" fill="#375BD6"/>
<path d="M11.1992 6.3999H10.666V6.93309H11.1992V6.3999Z" fill="#375BD6"/>
<path d="M10.666 6.3999H10.1328V6.93309H10.666V6.3999Z" fill="#375BD6"/>
<path d="M10.1328 6.3999H9.59961V6.93309H10.1328V6.3999Z" fill="#375BD6"/>
<path d="M9.5996 6.3999H9.06641V6.93309H9.5996V6.3999Z" fill="#305DCE"/>
<path d="M9.06639 6.3999H8.5332V6.93309H9.06639V6.3999Z" fill="#325ECD"/>
<path d="M8.53319 6.3999H8V6.93309H8.53319V6.3999Z" fill="#566BC5"/>
<path d="M7.99999 6.3999H7.4668V6.93309H7.99999V6.3999Z" fill="#D9E1F0"/>
<path d="M7.46679 6.3999H6.93359V6.93309H7.46679V6.3999Z" fill="#3657D6"/>
<path d="M6.93358 6.3999H6.40039V6.93309H6.93358V6.3999Z" fill="#315AD6"/>
<path d="M6.40038 6.3999H5.86719V6.93309H6.40038V6.3999Z" fill="#375BD6"/>
<path d="M5.86718 6.3999H5.33398V6.93309H5.86718V6.3999Z" fill="#325DD6"/>
<path d="M5.33397 6.3999H4.80078V6.93309H5.33397V6.3999Z" fill="#FFFDFB"/>
<path d="M4.80077 6.3999H4.26758V6.93309H4.80077V6.3999Z" fill="#315AD0"/>
<path d="M4.26561 6.3999H3.73242V6.93309H4.26561V6.3999Z" fill="#375BD6"/>
<path d="M3.73241 6.3999H3.19922V6.93309H3.73241V6.3999Z" fill="#375BD6"/>
<path d="M3.19921 6.3999H2.66602V6.93309H3.19921V6.3999Z" fill="#375BD6"/>
<path d="M2.666 6.3999H2.13281V6.93309H2.666V6.3999Z" fill="#375BD6"/>
<path d="M2.1328 6.3999H1.59961V6.93309H2.1328V6.3999Z" fill="#375BD6"/>
<path d="M1.5996 6.3999H1.06641V6.93309H1.5996V6.3999Z" fill="#375BD6"/>
<path d="M1.06639 6.3999H0.533203V6.93309H1.06639V6.3999Z" fill="#375BD6"/>
<path d="M0.533192 6.3999H0V6.93309H0.533192V6.3999Z" fill="#375BD6"/>
<path d="M16 5.8667H15.4668V6.39989H16V5.8667Z" fill="#375BD6"/>
<path d="M15.4668 5.8667H14.9336V6.39989H15.4668V5.8667Z" fill="#375BD6"/>
<path d="M14.9336 5.8667H14.4004V6.39989H14.9336V5.8667Z" fill="#375BD6"/>
<path d="M14.4004 5.8667H13.8672V6.39989H14.4004V5.8667Z" fill="#375BD6"/>
<path d="M13.8672 5.8667H13.334V6.39989H13.8672V5.8667Z" fill="#375BD6"/>
<path d="M13.334 5.8667H12.8008V6.39989H13.334V5.8667Z" fill="#375BD6"/>
<path d="M12.8008 5.8667H12.2676V6.39989H12.8008V5.8667Z" fill="#375BD6"/>
<path d="M12.2656 5.8667H11.7324V6.39989H12.2656V5.8667Z" fill="#375BD6"/>
<path d="M11.7324 5.8667H11.1992V6.39989H11.7324V5.8667Z" fill="#375BD6"/>
<path d="M11.1992 5.8667H10.666V6.39989H11.1992V5.8667Z" fill="#375BD6"/>
<path d="M10.666 5.8667H10.1328V6.39989H10.666V5.8667Z" fill="#375BD6"/>
<path d="M10.1328 5.8667H9.59961V6.39989H10.1328V5.8667Z" fill="#375BD6"/>
<path d="M9.5996 5.8667H9.06641V6.39989H9.5996V5.8667Z" fill="#375BD6"/>
<path d="M9.06639 5.8667H8.5332V6.39989H9.06639V5.8667Z" fill="#375BD6"/>
<path d="M8.53319 5.8667H8V6.39989H8.53319V5.8667Z" fill="#305BD8"/>
<path d="M7.99999 5.8667H7.4668V6.39989H7.99999V5.8667Z" fill="#DBE2F0"/>
<path d="M7.46679 5.8667H6.93359V6.39989H7.46679V5.8667Z" fill="#3559D4"/>
<path d="M6.93358 5.8667H6.40039V6.39989H6.93358V5.8667Z" fill="#375BD6"/>
<path d="M6.40038 5.8667H5.86719V6.39989H6.40038V5.8667Z" fill="#375BD6"/>
<path d="M5.86718 5.8667H5.33398V6.39989H5.86718V5.8667Z" fill="#325DD6"/>
<path d="M5.33397 5.8667H4.80078V6.39989H5.33397V5.8667Z" fill="#FFFDFB"/>
<path d="M4.80077 5.8667H4.26758V6.39989H4.80077V5.8667Z" fill="#315AD0"/>
<path d="M4.26561 5.8667H3.73242V6.39989H4.26561V5.8667Z" fill="#375BD6"/>
<path d="M3.73241 5.8667H3.19922V6.39989H3.73241V5.8667Z" fill="#375BD6"/>
<path d="M3.19921 5.8667H2.66602V6.39989H3.19921V5.8667Z" fill="#375BD6"/>
<path d="M2.666 5.8667H2.13281V6.39989H2.666V5.8667Z" fill="#375BD6"/>
<path d="M2.1328 5.8667H1.59961V6.39989H2.1328V5.8667Z" fill="#375BD6"/>
<path d="M1.5996 5.8667H1.06641V6.39989H1.5996V5.8667Z" fill="#375BD6"/>
<path d="M1.06639 5.8667H0.533203V6.39989H1.06639V5.8667Z" fill="#375BD6"/>
<path d="M0.533192 5.8667H0V6.39989H0.533192V5.8667Z" fill="#4466D8"/>
<path d="M15.4668 5.33301H14.9336V5.8662H15.4668V5.33301Z" fill="#375BD6"/>
<path d="M14.9336 5.33301H14.4004V5.8662H14.9336V5.33301Z" fill="#375BD6"/>
<path d="M14.4004 5.33301H13.8672V5.8662H14.4004V5.33301Z" fill="#375BD6"/>
<path d="M13.8672 5.33301H13.334V5.8662H13.8672V5.33301Z" fill="#375BD6"/>
<path d="M13.334 5.33301H12.8008V5.8662H13.334V5.33301Z" fill="#375BD6"/>
<path d="M12.8008 5.33301H12.2676V5.8662H12.8008V5.33301Z" fill="#375BD6"/>
<path d="M12.2656 5.33301H11.7324V5.8662H12.2656V5.33301Z" fill="#375BD6"/>
<path d="M11.7324 5.33301H11.1992V5.8662H11.7324V5.33301Z" fill="#375BD6"/>
<path d="M11.1992 5.33301H10.666V5.8662H11.1992V5.33301Z" fill="#375BD6"/>
<path d="M10.666 5.33301H10.1328V5.8662H10.666V5.33301Z" fill="#375BD6"/>
<path d="M10.1328 5.33301H9.59961V5.8662H10.1328V5.33301Z" fill="#375BD6"/>
<path d="M9.5996 5.33301H9.06641V5.8662H9.5996V5.33301Z" fill="#375BD6"/>
<path d="M9.06639 5.33301H8.5332V5.8662H9.06639V5.33301Z" fill="#375BD6"/>
<path d="M8.53319 5.33301H8V5.8662H8.53319V5.33301Z" fill="#305BD8"/>
<path d="M7.99999 5.33301H7.4668V5.8662H7.99999V5.33301Z" fill="#DBE2F0"/>
<path d="M7.46679 5.33301H6.93359V5.8662H7.46679V5.33301Z" fill="#3559D4"/>
<path d="M6.93358 5.33301H6.40039V5.8662H6.93358V5.33301Z" fill="#375BD6"/>
<path d="M6.40038 5.33301H5.86719V5.8662H6.40038V5.33301Z" fill="#375BD6"/>
<path d="M5.86718 5.33301H5.33398V5.8662H5.86718V5.33301Z" fill="#325DD6"/>
<path d="M5.33397 5.33301H4.80078V5.8662H5.33397V5.33301Z" fill="#FFFDFB"/>
<path d="M4.80077 5.33301H4.26758V5.8662H4.80077V5.33301Z" fill="#315AD0"/>
<path d="M4.26561 5.33301H3.73242V5.8662H4.26561V5.33301Z" fill="#375BD6"/>
<path d="M3.73241 5.33301H3.19922V5.8662H3.73241V5.33301Z" fill="#375BD6"/>
<path d="M3.19921 5.33301H2.66602V5.8662H3.19921V5.33301Z" fill="#375BD6"/>
<path d="M2.666 5.33301H2.13281V5.8662H2.666V5.33301Z" fill="#375BD6"/>
<path d="M2.1328 5.33301H1.59961V5.8662H2.1328V5.33301Z" fill="#375BD6"/>
<path d="M1.5996 5.33301H1.06641V5.8662H1.5996V5.33301Z" fill="#375BD6"/>
<path d="M1.06639 5.33301H0.533203V5.8662H1.06639V5.33301Z" fill="#375BD6"/>
<path d="M15.4668 4.7998H14.9336V5.333H15.4668V4.7998Z" fill="#375BD6"/>
<path d="M14.9336 4.7998H14.4004V5.333H14.9336V4.7998Z" fill="#375BD6"/>
<path d="M14.4004 4.7998H13.8672V5.333H14.4004V4.7998Z" fill="#375BD6"/>
<path d="M13.8672 4.7998H13.334V5.333H13.8672V4.7998Z" fill="#375BD6"/>
<path d="M13.334 4.7998H12.8008V5.333H13.334V4.7998Z" fill="#375BD6"/>
<path d="M12.8008 4.7998H12.2676V5.333H12.8008V4.7998Z" fill="#375BD6"/>
<path d="M12.2656 4.7998H11.7324V5.333H12.2656V4.7998Z" fill="#375BD6"/>
<path d="M11.7324 4.7998H11.1992V5.333H11.7324V4.7998Z" fill="#375BD6"/>
<path d="M11.1992 4.7998H10.666V5.333H11.1992V4.7998Z" fill="#375BD6"/>
<path d="M10.666 4.7998H10.1328V5.333H10.666V4.7998Z" fill="#375BD6"/>
<path d="M10.1328 4.7998H9.59961V5.333H10.1328V4.7998Z" fill="#375BD6"/>
<path d="M9.5996 4.7998H9.06641V5.333H9.5996V4.7998Z" fill="#375BD6"/>
<path d="M9.06639 4.7998H8.5332V5.333H9.06639V4.7998Z" fill="#375BD6"/>
<path d="M8.53319 4.7998H8V5.333H8.53319V4.7998Z" fill="#305BD8"/>
<path d="M7.99999 4.7998H7.4668V5.333H7.99999V4.7998Z" fill="#DBE2F0"/>
<path d="M7.46679 4.7998H6.93359V5.333H7.46679V4.7998Z" fill="#3559D4"/>
<path d="M6.93358 4.7998H6.40039V5.333H6.93358V4.7998Z" fill="#375BD6"/>
<path d="M6.40038 4.7998H5.86719V5.333H6.40038V4.7998Z" fill="#375BD6"/>
<path d="M5.86718 4.7998H5.33398V5.333H5.86718V4.7998Z" fill="#325DD6"/>
<path d="M5.33397 4.7998H4.80078V5.333H5.33397V4.7998Z" fill="#FFFDFB"/>
<path d="M4.80077 4.7998H4.26758V5.333H4.80077V4.7998Z" fill="#315AD0"/>
<path d="M4.26561 4.7998H3.73242V5.333H4.26561V4.7998Z" fill="#375BD6"/>
<path d="M3.73241 4.7998H3.19922V5.333H3.73241V4.7998Z" fill="#375BD6"/>
<path d="M3.19921 4.7998H2.66602V5.333H3.19921V4.7998Z" fill="#375BD6"/>
<path d="M2.666 4.7998H2.13281V5.333H2.666V4.7998Z" fill="#375BD6"/>
<path d="M2.1328 4.7998H1.59961V5.333H2.1328V4.7998Z" fill="#375BD6"/>
<path d="M1.5996 4.7998H1.06641V5.333H1.5996V4.7998Z" fill="#375BD6"/>
<path d="M1.06639 4.7998H0.533203V5.333H1.06639V4.7998Z" fill="#375BD6"/>
<path d="M15.4668 4.2666H14.9336V4.79979H15.4668V4.2666Z" fill="#3B5ED6"/>
<path d="M14.9336 4.2666H14.4004V4.79979H14.9336V4.2666Z" fill="#375BD6"/>
<path d="M14.4004 4.2666H13.8672V4.79979H14.4004V4.2666Z" fill="#375BD6"/>
<path d="M13.8672 4.2666H13.334V4.79979H13.8672V4.2666Z" fill="#375BD6"/>
<path d="M13.334 4.2666H12.8008V4.79979H13.334V4.2666Z" fill="#375BD6"/>
<path d="M12.8008 4.2666H12.2676V4.79979H12.8008V4.2666Z" fill="#375BD6"/>
<path d="M12.2656 4.2666H11.7324V4.79979H12.2656V4.2666Z" fill="#375BD6"/>
<path d="M11.7324 4.2666H11.1992V4.79979H11.7324V4.2666Z" fill="#375BD6"/>
<path d="M11.1992 4.2666H10.666V4.79979H11.1992V4.2666Z" fill="#375BD6"/>
<path d="M10.666 4.2666H10.1328V4.79979H10.666V4.2666Z" fill="#375BD6"/>
<path d="M10.1328 4.2666H9.59961V4.79979H10.1328V4.2666Z" fill="#375BD6"/>
<path d="M9.5996 4.2666H9.06641V4.79979H9.5996V4.2666Z" fill="#375BD6"/>
<path d="M9.06639 4.2666H8.5332V4.79979H9.06639V4.2666Z" fill="#375BD6"/>
<path d="M8.53319 4.2666H8V4.79979H8.53319V4.2666Z" fill="#305BD8"/>
<path d="M7.99999 4.2666H7.4668V4.79979H7.99999V4.2666Z" fill="#DBE2F0"/>
<path d="M7.46679 4.2666H6.93359V4.79979H7.46679V4.2666Z" fill="#3559D4"/>
<path d="M6.93358 4.2666H6.40039V4.79979H6.93358V4.2666Z" fill="#375BD6"/>
<path d="M6.40038 4.2666H5.86719V4.79979H6.40038V4.2666Z" fill="#375BD6"/>
<path d="M5.86718 4.2666H5.33398V4.79979H5.86718V4.2666Z" fill="#325DD6"/>
<path d="M5.33397 4.2666H4.80078V4.79979H5.33397V4.2666Z" fill="#FFFDFB"/>
<path d="M4.80077 4.2666H4.26758V4.79979H4.80077V4.2666Z" fill="#315AD0"/>
<path d="M4.26561 4.2666H3.73242V4.79979H4.26561V4.2666Z" fill="#375BD6"/>
<path d="M3.73241 4.2666H3.19922V4.79979H3.73241V4.2666Z" fill="#375BD6"/>
<path d="M3.19921 4.2666H2.66602V4.79979H3.19921V4.2666Z" fill="#375BD6"/>
<path d="M2.666 4.2666H2.13281V4.79979H2.666V4.2666Z" fill="#375BD6"/>
<path d="M2.1328 4.2666H1.59961V4.79979H2.1328V4.2666Z" fill="#375BD6"/>
<path d="M1.5996 4.2666H1.06641V4.79979H1.5996V4.2666Z" fill="#375BD6"/>
<path d="M14.9336 3.7334H14.4004V4.26659H14.9336V3.7334Z" fill="#375BD6"/>
<path d="M14.4004 3.7334H13.8672V4.26659H14.4004V3.7334Z" fill="#375BD6"/>
<path d="M13.8672 3.7334H13.334V4.26659H13.8672V3.7334Z" fill="#375BD6"/>
<path d="M13.334 3.7334H12.8008V4.26659H13.334V3.7334Z" fill="#375BD6"/>
<path d="M12.8008 3.7334H12.2676V4.26659H12.8008V3.7334Z" fill="#375BD6"/>
<path d="M12.2656 3.7334H11.7324V4.26659H12.2656V3.7334Z" fill="#375BD6"/>
<path d="M11.7324 3.7334H11.1992V4.26659H11.7324V3.7334Z" fill="#375BD6"/>
<path d="M11.1992 3.7334H10.666V4.26659H11.1992V3.7334Z" fill="#375BD6"/>
<path d="M10.666 3.7334H10.1328V4.26659H10.666V3.7334Z" fill="#375BD6"/>
<path d="M10.1328 3.7334H9.59961V4.26659H10.1328V3.7334Z" fill="#375BD6"/>
<path d="M9.5996 3.7334H9.06641V4.26659H9.5996V3.7334Z" fill="#375BD6"/>
<path d="M9.06639 3.7334H8.5332V4.26659H9.06639V3.7334Z" fill="#375BD6"/>
<path d="M8.53319 3.7334H8V4.26659H8.53319V3.7334Z" fill="#305BD8"/>
<path d="M7.99999 3.7334H7.4668V4.26659H7.99999V3.7334Z" fill="#DBE2F0"/>
<path d="M7.46679 3.7334H6.93359V4.26659H7.46679V3.7334Z" fill="#3559D4"/>
<path d="M6.93358 3.7334H6.40039V4.26659H6.93358V3.7334Z" fill="#375BD6"/>
<path d="M6.40038 3.7334H5.86719V4.26659H6.40038V3.7334Z" fill="#375BD6"/>
<path d="M5.86718 3.7334H5.33398V4.26659H5.86718V3.7334Z" fill="#325DD6"/>
<path d="M5.33397 3.7334H4.80078V4.26659H5.33397V3.7334Z" fill="#FFFDFB"/>
<path d="M4.80077 3.7334H4.26758V4.26659H4.80077V3.7334Z" fill="#315AD0"/>
<path d="M4.26561 3.7334H3.73242V4.26659H4.26561V3.7334Z" fill="#375BD6"/>
<path d="M3.73241 3.7334H3.19922V4.26659H3.73241V3.7334Z" fill="#375BD6"/>
<path d="M3.19921 3.7334H2.66602V4.26659H3.19921V3.7334Z" fill="#375BD6"/>
<path d="M2.666 3.7334H2.13281V4.26659H2.666V3.7334Z" fill="#375BD6"/>
<path d="M2.1328 3.7334H1.59961V4.26659H2.1328V3.7334Z" fill="#375BD6"/>
<path d="M1.5996 3.7334H1.06641V4.26659H1.5996V3.7334Z" fill="#375BD6"/>
<path d="M14.4004 3.2002H13.8672V3.73339H14.4004V3.2002Z" fill="#375BD6"/>
<path d="M13.8672 3.2002H13.334V3.73339H13.8672V3.2002Z" fill="#375BD6"/>
<path d="M13.334 3.2002H12.8008V3.73339H13.334V3.2002Z" fill="#375BD6"/>
<path d="M12.8008 3.2002H12.2676V3.73339H12.8008V3.2002Z" fill="#375BD6"/>
<path d="M12.2656 3.2002H11.7324V3.73339H12.2656V3.2002Z" fill="#375BD6"/>
<path d="M11.7324 3.2002H11.1992V3.73339H11.7324V3.2002Z" fill="#375BD6"/>
<path d="M11.1992 3.2002H10.666V3.73339H11.1992V3.2002Z" fill="#375BD6"/>
<path d="M10.666 3.2002H10.1328V3.73339H10.666V3.2002Z" fill="#375BD6"/>
<path d="M10.1328 3.2002H9.59961V3.73339H10.1328V3.2002Z" fill="#375BD6"/>
<path d="M9.5996 3.2002H9.06641V3.73339H9.5996V3.2002Z" fill="#375BD6"/>
<path d="M9.06639 3.2002H8.5332V3.73339H9.06639V3.2002Z" fill="#375BD6"/>
<path d="M8.53319 3.2002H8V3.73339H8.53319V3.2002Z" fill="#2F5CD4"/>
<path d="M7.99999 3.2002H7.4668V3.73339H7.99999V3.2002Z" fill="#DDE0EF"/>
<path d="M7.46679 3.2002H6.93359V3.73339H7.46679V3.2002Z" fill="#3459D4"/>
<path d="M6.93358 3.2002H6.40039V3.73339H6.93358V3.2002Z" fill="#3459D4"/>
<path d="M6.40038 3.2002H5.86719V3.73339H6.40038V3.2002Z" fill="#335AD4"/>
<path d="M5.86718 3.2002H5.33398V3.73339H5.86718V3.2002Z" fill="#335AD5"/>
<path d="M5.33397 3.2002H4.80078V3.73339H5.33397V3.2002Z" fill="#FFFDFB"/>
<path d="M4.80077 3.2002H4.26758V3.73339H4.80077V3.2002Z" fill="#315AD0"/>
<path d="M4.26561 3.2002H3.73242V3.73339H4.26561V3.2002Z" fill="#375BD6"/>
<path d="M3.73241 3.2002H3.19922V3.73339H3.73241V3.2002Z" fill="#375BD6"/>
<path d="M3.19921 3.2002H2.66602V3.73339H3.19921V3.2002Z" fill="#375BD6"/>
<path d="M2.666 3.2002H2.13281V3.73339H2.666V3.2002Z" fill="#375BD6"/>
<path d="M2.1328 3.2002H1.59961V3.73339H2.1328V3.2002Z" fill="#375BD6"/>
<path d="M14.4004 2.66699H13.8672V3.20018H14.4004V2.66699Z" fill="#3A5ED6"/>
<path d="M13.8672 2.66699H13.334V3.20018H13.8672V2.66699Z" fill="#375BD6"/>
<path d="M13.334 2.66699H12.8008V3.20018H13.334V2.66699Z" fill="#375BD6"/>
<path d="M12.8008 2.66699H12.2676V3.20018H12.8008V2.66699Z" fill="#375BD6"/>
<path d="M12.2656 2.66699H11.7324V3.20018H12.2656V2.66699Z" fill="#375BD6"/>
<path d="M11.7324 2.66699H11.1992V3.20018H11.7324V2.66699Z" fill="#375BD6"/>
<path d="M11.1992 2.66699H10.666V3.20018H11.1992V2.66699Z" fill="#375BD6"/>
<path d="M10.666 2.66699H10.1328V3.20018H10.666V2.66699Z" fill="#375BD6"/>
<path d="M10.1328 2.66699H9.59961V3.20018H10.1328V2.66699Z" fill="#375BD6"/>
<path d="M9.5996 2.66699H9.06641V3.20018H9.5996V2.66699Z" fill="#375BD6"/>
<path d="M9.06639 2.66699H8.5332V3.20018H9.06639V2.66699Z" fill="#375BD6"/>
<path d="M8.53319 2.66699H8V3.20018H8.53319V2.66699Z" fill="#3656D0"/>
<path d="M7.99999 2.66699H7.4668V3.20018H7.99999V2.66699Z" fill="#F6F7F3"/>
<path d="M7.46679 2.66699H6.93359V3.20018H7.46679V2.66699Z" fill="#F5F5FB"/>
<path d="M6.93358 2.66699H6.40039V3.20018H6.93358V2.66699Z" fill="#F5F5FB"/>
<path d="M6.40038 2.66699H5.86719V3.20018H6.40038V2.66699Z" fill="#F5F5FB"/>
<path d="M5.86718 2.66699H5.33398V3.20018H5.86718V2.66699Z" fill="#F5F6FB"/>
<path d="M5.33397 2.66699H4.80078V3.20018H5.33397V2.66699Z" fill="#F3F6F9"/>
<path d="M4.80077 2.66699H4.26758V3.20018H4.80077V2.66699Z" fill="#3259DA"/>
<path d="M4.26561 2.66699H3.73242V3.20018H4.26561V2.66699Z" fill="#375BD6"/>
<path d="M3.73241 2.66699H3.19922V3.20018H3.73241V2.66699Z" fill="#375BD6"/>
<path d="M3.19921 2.66699H2.66602V3.20018H3.19921V2.66699Z" fill="#375BD6"/>
<path d="M2.666 2.66699H2.13281V3.20018H2.666V2.66699Z" fill="#375BD6"/>
<path d="M13.8672 2.1333H13.334V2.66649H13.8672V2.1333Z" fill="#375BD6"/>
<path d="M13.334 2.1333H12.8008V2.66649H13.334V2.1333Z" fill="#375BD6"/>
<path d="M12.8008 2.1333H12.2676V2.66649H12.8008V2.1333Z" fill="#375BD6"/>
<path d="M12.2656 2.1333H11.7324V2.66649H12.2656V2.1333Z" fill="#375BD6"/>
<path d="M11.7324 2.1333H11.1992V2.66649H11.7324V2.1333Z" fill="#375BD6"/>
<path d="M11.1992 2.1333H10.666V2.66649H11.1992V2.1333Z" fill="#375BD6"/>
<path d="M10.666 2.1333H10.1328V2.66649H10.666V2.1333Z" fill="#375BD6"/>
<path d="M10.1328 2.1333H9.59961V2.66649H10.1328V2.1333Z" fill="#375BD6"/>
<path d="M9.5996 2.1333H9.06641V2.66649H9.5996V2.1333Z" fill="#375BD6"/>
<path d="M9.06639 2.1333H8.5332V2.66649H9.06639V2.1333Z" fill="#375BD6"/>
<path d="M8.53319 2.1333H8V2.66649H8.53319V2.1333Z" fill="#2E5DD2"/>
<path d="M7.99999 2.1333H7.4668V2.66649H7.99999V2.1333Z" fill="#335CD4"/>
<path d="M7.46679 2.1333H6.93359V2.66649H7.46679V2.1333Z" fill="#365AD3"/>
<path d="M6.93358 2.1333H6.40039V2.66649H6.93358V2.1333Z" fill="#365AD3"/>
<path d="M6.40038 2.1333H5.86719V2.66649H6.40038V2.1333Z" fill="#365AD3"/>
<path d="M5.86718 2.1333H5.33398V2.66649H5.86718V2.1333Z" fill="#365AD3"/>
<path d="M5.33397 2.1333H4.80078V2.66649H5.33397V2.1333Z" fill="#355AD4"/>
<path d="M4.80077 2.1333H4.26758V2.66649H4.80077V2.1333Z" fill="#365AD8"/>
<path d="M4.26561 2.1333H3.73242V2.66649H4.26561V2.1333Z" fill="#375BD6"/>
<path d="M3.73241 2.1333H3.19922V2.66649H3.73241V2.1333Z" fill="#375BD6"/>
<path d="M3.19921 2.1333H2.66602V2.66649H3.19921V2.1333Z" fill="#375BD6"/>
<path d="M2.666 2.1333H2.13281V2.66649H2.666V2.1333Z" fill="#375BD6"/>
<path d="M13.334 1.6001H12.8008V2.13329H13.334V1.6001Z" fill="#4164D8"/>
<path d="M12.8008 1.6001H12.2676V2.13329H12.8008V1.6001Z" fill="#375BD6"/>
<path d="M12.2656 1.6001H11.7324V2.13329H12.2656V1.6001Z" fill="#375BD6"/>
<path d="M11.7324 1.6001H11.1992V2.13329H11.7324V1.6001Z" fill="#375BD6"/>
<path d="M11.1992 1.6001H10.666V2.13329H11.1992V1.6001Z" fill="#375BD6"/>
<path d="M10.666 1.6001H10.1328V2.13329H10.666V1.6001Z" fill="#375BD6"/>
<path d="M10.1328 1.6001H9.59961V2.13329H10.1328V1.6001Z" fill="#375BD6"/>
<path d="M9.5996 1.6001H9.06641V2.13329H9.5996V1.6001Z" fill="#375BD6"/>
<path d="M9.06639 1.6001H8.5332V2.13329H9.06639V1.6001Z" fill="#375BD6"/>
<path d="M8.53319 1.6001H8V2.13329H8.53319V1.6001Z" fill="#375BD6"/>
<path d="M7.99999 1.6001H7.4668V2.13329H7.99999V1.6001Z" fill="#375BD6"/>
<path d="M7.46679 1.6001H6.93359V2.13329H7.46679V1.6001Z" fill="#375BD6"/>
<path d="M6.93358 1.6001H6.40039V2.13329H6.93358V1.6001Z" fill="#375BD6"/>
<path d="M6.40038 1.6001H5.86719V2.13329H6.40038V1.6001Z" fill="#375BD6"/>
<path d="M5.86718 1.6001H5.33398V2.13329H5.86718V1.6001Z" fill="#375BD6"/>
<path d="M5.33397 1.6001H4.80078V2.13329H5.33397V1.6001Z" fill="#375BD6"/>
<path d="M4.80077 1.6001H4.26758V2.13329H4.80077V1.6001Z" fill="#375BD6"/>
<path d="M4.26561 1.6001H3.73242V2.13329H4.26561V1.6001Z" fill="#375BD6"/>
<path d="M3.73241 1.6001H3.19922V2.13329H3.73241V1.6001Z" fill="#375BD6"/>
<path d="M12.2656 1.06689H11.7324V1.60009H12.2656V1.06689Z" fill="#375BD6"/>
<path d="M11.7324 1.06689H11.1992V1.60009H11.7324V1.06689Z" fill="#375BD6"/>
<path d="M11.1992 1.06689H10.666V1.60009H11.1992V1.06689Z" fill="#375BD6"/>
<path d="M10.666 1.06689H10.1328V1.60009H10.666V1.06689Z" fill="#375BD6"/>
<path d="M10.1328 1.06689H9.59961V1.60009H10.1328V1.06689Z" fill="#375BD6"/>
<path d="M9.5996 1.06689H9.06641V1.60009H9.5996V1.06689Z" fill="#375BD6"/>
<path d="M9.06639 1.06689H8.5332V1.60009H9.06639V1.06689Z" fill="#375BD6"/>
<path d="M8.53319 1.06689H8V1.60009H8.53319V1.06689Z" fill="#375BD6"/>
<path d="M7.99999 1.06689H7.4668V1.60009H7.99999V1.06689Z" fill="#375BD6"/>
<path d="M7.46679 1.06689H6.93359V1.60009H7.46679V1.06689Z" fill="#375BD6"/>
<path d="M6.93358 1.06689H6.40039V1.60009H6.93358V1.06689Z" fill="#375BD6"/>
<path d="M6.40038 1.06689H5.86719V1.60009H6.40038V1.06689Z" fill="#375BD6"/>
<path d="M5.86718 1.06689H5.33398V1.60009H5.86718V1.06689Z" fill="#375BD6"/>
<path d="M5.33397 1.06689H4.80078V1.60009H5.33397V1.06689Z" fill="#375BD6"/>
<path d="M4.80077 1.06689H4.26758V1.60009H4.80077V1.06689Z" fill="#375BD6"/>
<path d="M4.26561 1.06689H3.73242V1.60009H4.26561V1.06689Z" fill="#375BD6"/>
<path d="M11.1992 0.533203H10.666V1.06639H11.1992V0.533203Z" fill="#375BD6"/>
<path d="M10.666 0.533203H10.1328V1.06639H10.666V0.533203Z" fill="#375BD6"/>
<path d="M10.1328 0.533203H9.59961V1.06639H10.1328V0.533203Z" fill="#375BD6"/>
<path d="M9.5996 0.533203H9.06641V1.06639H9.5996V0.533203Z" fill="#375BD6"/>
<path d="M9.06639 0.533203H8.5332V1.06639H9.06639V0.533203Z" fill="#375BD6"/>
<path d="M8.53319 0.533203H8V1.06639H8.53319V0.533203Z" fill="#375BD6"/>
<path d="M7.99999 0.533203H7.4668V1.06639H7.99999V0.533203Z" fill="#375BD6"/>
<path d="M7.46679 0.533203H6.93359V1.06639H7.46679V0.533203Z" fill="#375BD6"/>
<path d="M6.93358 0.533203H6.40039V1.06639H6.93358V0.533203Z" fill="#375BD6"/>
<path d="M6.40038 0.533203H5.86719V1.06639H6.40038V0.533203Z" fill="#375BD6"/>
<path d="M5.86718 0.533203H5.33398V1.06639H5.86718V0.533203Z" fill="#375BD6"/>
<path d="M5.33397 0.533203H4.80078V1.06639H5.33397V0.533203Z" fill="#375BD6"/>
<path d="M10.1328 0H9.59961V0.533192H10.1328V0Z" fill="#395CD6"/>
<path d="M9.5996 0H9.06641V0.533192H9.5996V0Z" fill="#375BD6"/>
<path d="M9.06639 0H8.5332V0.533192H9.06639V0Z" fill="#375BD6"/>
<path d="M8.53319 0H8V0.533192H8.53319V0Z" fill="#375BD6"/>
<path d="M7.99999 0H7.4668V0.533192H7.99999V0Z" fill="#375BD6"/>
<path d="M7.46679 0H6.93359V0.533192H7.46679V0Z" fill="#375BD6"/>
<path d="M6.93358 0H6.40039V0.533192H6.93358V0Z" fill="#375BD6"/>
<path d="M6.40038 0H5.86719V0.533192H6.40038V0Z" fill="#4466D8"/>
</g>
<defs>
<clipPath id="clip0_770_29415">
<rect width="16" height="16" fill="white"/>
</clipPath>
</defs>
</svg>
