<svg width="16" height="16" viewBox="0 0 16 16" fill="none" xmlns="http://www.w3.org/2000/svg">
<path d="M6.39844 11.2046H9.60196V10.6775H9.06413V9.59794H6.9304V10.6714H6.39844V11.2046Z" fill="#F68215"/>
<path d="M6.39844 6.94141H5.86452V7.46946H5.32669V8.00925H4.7869V8.54121H5.86452V9.07586H6.39844V6.94141Z" fill="#F68215"/>
<path d="M9.59961 6.94141H10.1335V7.46946H10.6714V8.00925H11.2111V8.54121H10.1335V9.07586H9.59961V6.94141Z" fill="#F68215"/>
<path d="M6.39844 4.81055H9.60196V5.33762H9.06413V6.4172H6.9304V5.34371H6.39844V4.81055Z" fill="#F68215"/>
<rect x="6.39844" y="6.41064" width="3.20156" height="3.20059" fill="#F68215"/>
<path d="M13.3288 0.0126953H2.66406V0.545149H13.3288V0.0126953Z" fill="#F68215"/>
<path d="M13.3288 15.3418H2.66406V15.8743H13.3288V15.3418Z" fill="#F68215"/>
<path d="M16 11.2056H0V13.3437H16V11.2056Z" fill="#F68215"/>
<path d="M16 2.67236H0V4.81049H16V2.67236Z" fill="#F68215"/>
<path d="M15.4673 1.60986H0.53125V2.67746H15.4673V1.60986Z" fill="#F68215"/>
<path d="M15.4673 13.3428H0.53125V14.4104H15.4673V13.3428Z" fill="#F68215"/>
<path d="M14.9346 1.07764H1.06836V1.61009H14.9346V1.07764Z" fill="#F68215"/>
<path d="M14.9346 14.4116H1.06836V14.9441H14.9346V14.4116Z" fill="#F68215"/>
<path d="M14.4 0.544922H1.59961V1.07738H14.4V0.544922Z" fill="#F68215"/>
<path d="M14.4 14.8091H1.59961V15.3415H14.4V14.8091Z" fill="#F68215"/>
<path d="M5.86725 4.81055H0V11.2112H5.86725V10.6975H4.83246V10.1572H4.27646V9.62659H3.74713V9.07667H3.1957V8.54605H2.66373V7.4733H3.1957V6.93743H3.74713V6.40155H4.27646V5.88416H4.83246V5.37001H5.86725V4.81055Z" fill="#F68215"/>
<path d="M10.1327 4.81055H16V11.2112H10.1327V10.6975H11.1675V10.1572H11.7235V9.62659H12.2529V9.07667H12.8043V8.54605H13.3363V7.4733H12.8043V6.93743H12.2529V6.40155H11.7235V5.88416H11.1675V5.37001H10.1327V4.81055Z" fill="#F68215"/>
</svg>
