<svg width="22" height="16" viewBox="0 0 22 16" fill="none" xmlns="http://www.w3.org/2000/svg">
<rect x="6.5" y="1" width="1.5" height="15" fill="#868686"/>
<rect x="14" y="1" width="1.5" height="15" fill="#868686"/>
<path fill-rule="evenodd" clip-rule="evenodd" d="M3 0C1.34315 0 0 1.34315 0 3V13C0 14.6569 1.34315 16 3 16H19C20.6569 16 22 14.6569 22 13V3C22 1.34315 20.6569 0 19 0H3ZM2.9 1.5C2.1268 1.5 1.5 2.1268 1.5 2.9V13.1C1.5 13.8732 2.1268 14.5 2.9 14.5H19.1C19.8732 14.5 20.5 13.8732 20.5 13.1V2.9C20.5 2.1268 19.8732 1.5 19.1 1.5H2.9Z" fill="#868686"/>
</svg>
