<svg width="17" height="20" viewBox="0 0 17 20" fill="none" xmlns="http://www.w3.org/2000/svg">
<path d="M12.5 9.375V8.125H11.875V7.50031L11.25 7.5V6.875H10V6.25H6.25V6.875H5V7.5H4.375V8.125H3.75V9.375H3.125V13.125H3.75V14.375H4.375V14.9997L5 15V15.625H6.25V16.25H10V15.625H11.25V15L11.875 14.9997V14.3747L12.5 14.375V13.125H13.125V9.375H12.5ZM7.5 15.625H6.25V15H5V14.3747L4.375 14.375V13.125H3.75V9.375H4.375V8.125H5V10H5.625V11.25H6.25V11.875H6.875V13.75H7.5V15.625ZM12.5 13.125H11.875V14.3747H11.25V15H10V15.625H8.125V15H8.75V14.375H9.375V13.125H10V12.5H8.125V11.875H6.875V11.25H6.25V10H7.5V10.625H8.125V9.375H8.75V8.125H8.125V7.5H7.5V8.125H6.875V7.5H7.5V6.875H9.375V7.5H10.625V8.125H11.875V9.375H11.25V10.625H11.875V11.875H12.5V13.125Z" fill="black"/>
<path d="M15 3.125V2.5H14.375V1.875H13.75V1.25H13.125V1.875H13.75V2.5H14.375V3.125H15V3.75H12.5V1.25H13.125V0.625H12.5V0H0V20H16.25V3.75H15.625V3.125H15ZM15.625 19.375H0.625V0.625H11.875V4.375H15.625V19.375Z" fill="black"/>
</svg>
