<svg width="24" height="24" viewBox="0 0 24 24" fill="none" xmlns="http://www.w3.org/2000/svg">
<path d="M23.3818 4.62558H22.7667V3.92358H22.1517H21.5366H20.9215H20.3065H19.6914H19.0764H18.4613H17.8462H17.2312H16.6161H16.001H15.3829H14.7678H14.1527H13.5377H12.9226H12.3075H11.6925H11.0774H10.4624H9.84728H9.23221H8.61716H7.99895H7.3839H6.76883H6.15376H5.53871H4.92364H4.30857H3.69352H3.07845H2.46338H1.84833H1.23326V4.62558H0.618211V5.32758H0V6.02956V6.73156V7.43354V8.13554V8.83754V9.53951V10.2415V10.9435V11.6491V12.3511V13.0531V13.755V14.457V15.159V15.861V16.563V17.265V17.967V18.669H0.618211V19.371H1.23326V20.0766H1.84833H2.46338H3.07845H3.69352H4.30857H4.92364H5.53871H6.15376H6.76883H7.3839H7.99895H8.61716H9.23221H9.84728H10.4624H11.0774H11.6925H12.3075H12.9226H13.5377H14.1527H14.7678H15.3829H16.001H16.6161H17.2312H17.8462H18.4613H19.0764H19.6914H20.3065H20.9215H21.5366H22.1517H22.7667V19.371H23.3818V18.669H24V17.967V17.265V16.563V15.861V15.159V14.457V13.755V13.0531V12.3511V11.6491V10.9435V10.2415V9.53951V8.83754V8.13554V7.43354V6.73156V6.02956V5.32758H23.3818V4.62558ZM22.7667 6.73156H22.1517H21.5366V7.43354H20.9215H20.3065V8.13554H19.6914H19.0764V8.83754H18.4613H17.8462V9.53951H17.2312H16.6161V10.2415H16.001H15.3829V10.9435H14.7678H14.1527V11.6491H13.5377H12.9226V12.3511H12.3075H11.6925H11.0774V11.6491H10.4624H9.84728V10.9435H9.23221H8.61716V10.2415H7.99895H7.3839V9.53951H6.76883H6.15376V8.83754H5.53871H4.92364V8.13554H4.30857H3.69352V7.43354H3.07845H2.46338V6.73156H1.84833H1.23326V6.02956H1.84833H2.46338V6.73156H3.07845H3.69352V7.43354H4.30857H4.92364V8.13554H5.53871H6.15376V8.83754H6.76883H7.3839V9.53951H7.99895H8.61716V10.2415H9.23221H9.84728V10.9435H10.4624H11.0774V11.6491H11.6925H12.3075H12.9226V10.9435H13.5377H14.1527V10.2415H14.7678H15.3829V9.53951H16.001H16.6161V8.83754H17.2312H17.8462V8.13554H18.4613H19.0764V7.43354H19.6914H20.3065V6.73156H20.9215H21.5366V6.02956H22.1517H22.7667V6.73156ZM22.7667 17.967H22.1517V17.265H21.5366V16.563H20.9215V15.861H20.3065V15.159H19.6914V14.457H19.0764V13.755H18.4613V13.0531H17.8462V12.3511H17.2312V11.6491H16.6161V10.9435H17.2312V11.6491H17.8462V12.3511H18.4613V13.0531H19.0764V13.755H19.6914V14.457H20.3065V15.159H20.9215V15.861H21.5366V16.563H22.1517V17.265H22.7667V17.967ZM1.23326 17.265H1.84833V16.563H2.46338V15.861H3.07845V15.159H3.69352V14.457H4.30857V13.755H4.92364V13.0531H5.53871V12.3511H6.15376V11.6491H6.76883V10.9435H7.3839V11.6491H6.76883V12.3511H6.15376V13.0531H5.53871V13.755H4.92364V14.457H4.30857V15.159H3.69352V15.861H3.07845V16.563H2.46338V17.265H1.84833V17.967H1.23326V17.265Z" fill="#2867B2"/>
</svg>
