<svg width="20" height="21" viewBox="0 0 20 21" fill="none" xmlns="http://www.w3.org/2000/svg">
<path d="M15.25 12.5L13.5 12.5L13.5 10.75L15.25 10.75L15.25 12.5Z" fill="#18C351"/>
<path d="M13.5 14.25L11.75 14.25L11.75 12.5L13.5 12.5L13.5 14.25Z" fill="#18C351"/>
<path d="M11.75 16L10 16L10 14.25L11.75 14.25L11.75 16Z" fill="#18C351"/>
<path d="M11.75 5.5L10 5.5L10 3.75001L11.75 3.75001L11.75 5.5Z" fill="#18C351"/>
<path d="M13.5 7.25024L11.75 7.25024L11.75 5.50025L13.5 5.50025L13.5 7.25024Z" fill="#18C351"/>
<path d="M15.25 9L13.5 9L13.5 7.25001L15.25 7.25001L15.25 9Z" fill="#18C351"/>
<path d="M17 10.75L15.25 10.75L15.25 9.00001L17 9.00001L17 10.75Z" fill="#18C351"/>
<path fill-rule="evenodd" clip-rule="evenodd" d="M3 10.75L3 9.00001L13.5 9.00001V10.75L3 10.75Z" fill="#18C351"/>
</svg>
