<svg width="640" height="218" viewBox="0 0 640 218" fill="none" xmlns="http://www.w3.org/2000/svg">
<g clip-path="url(#clip0_1797_10368)">
<path d="M23.1979 10.3983V13.5989H19.1985V9.5989H18.3991V7.20055H17.5998V9.5989H14.3997V4.79945H15.199V5.5989H15.9983V4.79945H17.5998V4H10.4002V4.79945H11.9989V5.5989H12.7982V4.79945H13.6003V9.5989H10.4002V7.20055H9.60088V9.5989H8.79879V13.5989H4.79934V10.3983H4V17.5989H4.79934V14.4011H8.79879V18.4011H9.60088V20.7994H10.4002V18.4011H13.6003V23.2006H12.7982V22.4011H11.9989V23.2006H11.1996V24H16.8004V23.2006H15.9983V22.4011H15.199V23.2006H14.3997V18.4011H17.5998V20.7994H18.3991V18.4011H19.1985V14.4011H23.1979V17.5989H24V10.3983H23.1979ZM18.3991 10.3983V13.5989H14.3997V10.3983H18.3991ZM9.60088 10.3983H13.6003V13.5989H9.60088V10.3983ZM9.60088 17.5989V14.4011H13.6003V17.5989H9.60088ZM18.3991 17.5989H14.3997V14.4011H18.3991V17.5989Z" fill="black"/>
<path d="M23.1978 17.5989H22.3984V19.2005H23.1978V17.5989Z" fill="black"/>
<path d="M23.1978 8.80225H22.3984V10.4011H23.1978V8.80225Z" fill="black"/>
<path d="M22.3981 19.2004H21.5986V20H22.3981V19.2004Z" fill="black"/>
<path d="M22.3981 8H21.5986V8.79961H22.3981V8Z" fill="black"/>
<path d="M21.5993 20.0027H20.7998V20.8023H21.5993V20.0027Z" fill="black"/>
<path d="M21.5993 7.20337H20.7998V8.00298H21.5993V7.20337Z" fill="black"/>
<path d="M20.7993 20.7996H19.9971V21.6019H20.7993V20.7996Z" fill="black"/>
<path d="M21.599 8.80225H19.1982V9.6017H21.599V8.80225Z" fill="black"/>
<path d="M20.7993 6.39844H19.9971V7.2008H20.7993V6.39844Z" fill="black"/>
<path d="M19.9977 21.6045H19.1982V22.4041H19.9977V21.6045Z" fill="black"/>
<path d="M21.599 18.4038H19.1982V19.2033H21.599V18.4038Z" fill="black"/>
<path d="M19.9977 5.60181H19.1982V6.40141H19.9977V5.60181Z" fill="black"/>
<path d="M19.1988 22.4011H16.8008V23.2006H19.1988V22.4011Z" fill="black"/>
<path d="M19.1983 4.79932H17.5996V5.59876H19.1983V4.79932Z" fill="black"/>
<path d="M17.6003 20.7996H16.8008V21.6019H17.6003V20.7996Z" fill="black"/>
<path d="M17.6003 6.39844H16.8008V7.2008H17.6003V6.39844Z" fill="black"/>
<path d="M16.8003 21.6045H15.998V22.4041H16.8003V21.6045Z" fill="black"/>
<path d="M16.8003 5.60181H15.998V6.40141H16.8003V5.60181Z" fill="black"/>
<path d="M11.9987 21.6045H11.1992V22.4041H11.9987V21.6045Z" fill="black"/>
<path d="M11.9987 5.60181H11.1992V6.40141H11.9987V5.60181Z" fill="black"/>
<path d="M11.1996 22.4011H8.79883V23.2006H11.1996V22.4011Z" fill="black"/>
<path d="M11.1999 20.7996H10.4004V21.6019H11.1999V20.7996Z" fill="black"/>
<path d="M11.1999 6.39844H10.4004V7.2008H11.1999V6.39844Z" fill="black"/>
<path d="M10.4003 4.79932H8.79883V5.59876H10.4003V4.79932Z" fill="black"/>
<path d="M8.7995 21.6045H8V22.4041H8.7995V21.6045Z" fill="black"/>
<path d="M8.79938 8.80225H6.40137V9.6017H8.79938V8.80225Z" fill="black"/>
<path d="M8.7995 5.60181H8V6.40141H8.7995V5.60181Z" fill="black"/>
<path d="M7.99969 20.7996H7.2002V21.6019H7.99969V20.7996Z" fill="black"/>
<path d="M8.79938 18.4038H6.40137V19.2033H8.79938V18.4038Z" fill="black"/>
<path d="M7.99969 6.39844H7.2002V7.2008H7.99969V6.39844Z" fill="black"/>
<path d="M7.20086 20.0027H6.40137V20.8023H7.20086V20.0027Z" fill="black"/>
<path d="M7.20086 7.20337H6.40137V8.00298H7.20086V7.20337Z" fill="black"/>
<path d="M6.40089 19.2004H5.59863V20H6.40089V19.2004Z" fill="black"/>
<path d="M6.40089 8H5.59863V8.79961H6.40089V8Z" fill="black"/>
<path d="M5.59914 17.5989H4.7998V19.2005H5.59914V17.5989Z" fill="black"/>
<path d="M5.59914 8.80225H4.7998V10.4011H5.59914V8.80225Z" fill="black"/>
<path opacity="0.7" d="M33.5664 18.5H31.8555V15.9336H32.7109V13.3613H33.5664V10.7891H34.4219V8.2168H35.2832V6.5H37.8555V8.2168H38.7109V10.7891H39.5664V13.3613H40.4219V15.9336H41.2832V18.5H39.5664V15.9336H33.5664V18.5ZM34.4219 14.2168H38.7109V13.3613H37.8555V10.7891H36.9941V9.07227H36.1387V10.7891H35.2832V13.3613H34.4219V14.2168ZM44.6992 18.5H42.9883V9.93359H44.6992V10.7891H45.5547V9.93359H47.6992V11.6445H45.5547V12.5H44.6992V18.5ZM53.2715 18.5H50.6992V17.6445H49.8438V11.2168H48.5605V9.93359H49.8438V7.36133H51.5605V9.93359H53.2715V11.2168H51.5605V16.7891H53.2715V18.5ZM58.4219 18.5H55.8496V15.9336H54.9941V12.5H54.1387V9.93359H55.8496V12.5H56.7051V15.9336H57.9941V12.5H58.8496V9.93359H60.5664V12.5H61.4219V15.9336H62.7051V12.5H63.5664V9.93359H65.2773V12.5H64.4219V15.9336H63.5664V18.5H60.9941V15.9336H60.1387V12.5H59.2773V15.9336H58.4219V18.5ZM72.1445 18.5H67.8555V17.6445H67V16.7891H66.1445V11.6445H67V10.7891H67.8555V9.93359H72.1445V10.7891H73V11.6445H73.8555V16.7891H73V17.6445H72.1445V18.5ZM68.7109 16.7891H71.2832V15.9336H72.1445V12.5H71.2832V11.6445H68.7109V12.5H67.8555V15.9336H68.7109V16.7891ZM77.2773 18.5H75.5664V9.93359H77.2773V10.7891H78.1328V9.93359H80.2773V11.6445H78.1328V12.5H77.2773V18.5ZM83.2773 18.5H81.5664V6.5H83.2773V13.3613H84.1328V12.5H84.9941V11.6445H85.8496V10.7891H86.7051V9.93359H88.8496V10.7891H87.9941V11.6445H87.1328V12.5H86.2773V13.3613H85.4219V15.0723H86.2773V15.9336H87.1328V16.7891H87.9941V17.6445H88.8496V18.5H86.7051V17.6445H85.8496V16.7891H84.9941V15.9336H84.1328V15.0723H83.2773V18.5ZM95.2773 18.5H90.9883V17.6445H90.1328V16.7891H89.2773V15.9336H91.8438V16.7891H94.8438V15.0723H91.8438V14.2168H90.1328V13.3613H89.2773V11.6445H90.1328V10.7891H90.9883V9.93359H95.2773V10.7891H96.1328V11.6445H96.9883V12.5H94.416V11.6445H91.416V13.3613H94.416V14.2168H96.1328V15.0723H96.9883V16.7891H96.1328V17.6445H95.2773V18.5Z" fill="black"/>
<path d="M23.1979 48.3983V51.5989H19.1985V47.5989H18.3991V45.2006H17.5998V47.5989H14.3997V42.7994H15.199V43.5989H15.9983V42.7994H17.5998V42H10.4002V42.7994H11.9989V43.5989H12.7982V42.7994H13.6003V47.5989H10.4002V45.2006H9.60088V47.5989H8.79879V51.5989H4.79934V48.3983H4V55.5989H4.79934V52.4011H8.79879V56.4011H9.60088V58.7994H10.4002V56.4011H13.6003V61.2006H12.7982V60.4011H11.9989V61.2006H11.1996V62H16.8004V61.2006H15.9983V60.4011H15.199V61.2006H14.3997V56.4011H17.5998V58.7994H18.3991V56.4011H19.1985V52.4011H23.1979V55.5989H24V48.3983H23.1979ZM18.3991 48.3983V51.5989H14.3997V48.3983H18.3991ZM9.60088 48.3983H13.6003V51.5989H9.60088V48.3983ZM9.60088 55.5989V52.4011H13.6003V55.5989H9.60088ZM18.3991 55.5989H14.3997V52.4011H18.3991V55.5989Z" fill="black"/>
<path d="M23.1978 55.5989H22.3984V57.2005H23.1978V55.5989Z" fill="black"/>
<path d="M23.1978 46.8022H22.3984V48.4011H23.1978V46.8022Z" fill="black"/>
<path d="M22.3981 57.2004H21.5986V58H22.3981V57.2004Z" fill="black"/>
<path d="M22.3981 46H21.5986V46.7996H22.3981V46Z" fill="black"/>
<path d="M21.5993 58.0027H20.7998V58.8023H21.5993V58.0027Z" fill="black"/>
<path d="M21.5993 45.2034H20.7998V46.003H21.5993V45.2034Z" fill="black"/>
<path d="M20.7993 58.7996H19.9971V59.6019H20.7993V58.7996Z" fill="black"/>
<path d="M21.599 46.8022H19.1982V47.6017H21.599V46.8022Z" fill="black"/>
<path d="M20.7993 44.3984H19.9971V45.2008H20.7993V44.3984Z" fill="black"/>
<path d="M19.9977 59.6045H19.1982V60.4041H19.9977V59.6045Z" fill="black"/>
<path d="M21.599 56.4038H19.1982V57.2033H21.599V56.4038Z" fill="black"/>
<path d="M19.9977 43.6018H19.1982V44.4014H19.9977V43.6018Z" fill="black"/>
<path d="M19.1988 60.4011H16.8008V61.2006H19.1988V60.4011Z" fill="black"/>
<path d="M19.1983 42.7993H17.5996V43.5988H19.1983V42.7993Z" fill="black"/>
<path d="M17.6003 58.7996H16.8008V59.6019H17.6003V58.7996Z" fill="black"/>
<path d="M17.6003 44.3984H16.8008V45.2008H17.6003V44.3984Z" fill="black"/>
<path d="M16.8003 59.6045H15.998V60.4041H16.8003V59.6045Z" fill="black"/>
<path d="M16.8003 43.6018H15.998V44.4014H16.8003V43.6018Z" fill="black"/>
<path d="M11.9987 59.6045H11.1992V60.4041H11.9987V59.6045Z" fill="black"/>
<path d="M11.9987 43.6018H11.1992V44.4014H11.9987V43.6018Z" fill="black"/>
<path d="M11.1996 60.4011H8.79883V61.2006H11.1996V60.4011Z" fill="black"/>
<path d="M11.1999 58.7996H10.4004V59.6019H11.1999V58.7996Z" fill="black"/>
<path d="M11.1999 44.3984H10.4004V45.2008H11.1999V44.3984Z" fill="black"/>
<path d="M10.4003 42.7993H8.79883V43.5988H10.4003V42.7993Z" fill="black"/>
<path d="M8.7995 59.6045H8V60.4041H8.7995V59.6045Z" fill="black"/>
<path d="M8.79938 46.8022H6.40137V47.6017H8.79938V46.8022Z" fill="black"/>
<path d="M8.7995 43.6018H8V44.4014H8.7995V43.6018Z" fill="black"/>
<path d="M7.99969 58.7996H7.2002V59.6019H7.99969V58.7996Z" fill="black"/>
<path d="M8.79938 56.4038H6.40137V57.2033H8.79938V56.4038Z" fill="black"/>
<path d="M7.99969 44.3984H7.2002V45.2008H7.99969V44.3984Z" fill="black"/>
<path d="M7.20086 58.0027H6.40137V58.8023H7.20086V58.0027Z" fill="black"/>
<path d="M7.20086 45.2034H6.40137V46.003H7.20086V45.2034Z" fill="black"/>
<path d="M6.40089 57.2004H5.59863V58H6.40089V57.2004Z" fill="black"/>
<path d="M6.40089 46H5.59863V46.7996H6.40089V46Z" fill="black"/>
<path d="M5.59914 55.5989H4.7998V57.2005H5.59914V55.5989Z" fill="black"/>
<path d="M5.59914 46.8022H4.7998V48.4011H5.59914V46.8022Z" fill="black"/>
<path opacity="0.7" d="M36.5664 56.5H34.8555V44.5H37.4219V46.2168H38.2832V47.9336H39.1387V49.6445H39.9941V51.3613H40.8555V53.0723H41.7109V44.5H43.4219V56.5H40.8555V54.7891H39.9941V53.0723H39.1387V51.3613H38.2832V49.6445H37.4219V47.9336H36.5664V56.5ZM50.2832 56.5H46.8555V55.6445H46V54.7891H45.1445V53.0723H46V52.2168H47.7109V51.3613H51.1445V50.5H50.2832V49.6445H47.7109V50.5H45.1445V49.6445H46V48.7891H46.8555V47.9336H51.1445V48.7891H52V49.6445H52.8555V56.5H51.1445V55.6445H50.2832V56.5ZM47.2832 54.7891H50.2832V53.9336H51.1445V52.2168H50.2832V53.0723H47.2832V54.7891ZM58.4277 56.5H55.8555V55.6445H55V49.2168H53.7168V47.9336H55V45.3613H56.7168V47.9336H58.4277V49.2168H56.7168V54.7891H58.4277V56.5ZM61.4336 46.6445H59.7227V44.9336H61.4336V46.6445ZM61.4336 56.5H59.7227V47.9336H61.4336V56.5ZM69.1445 56.5H64.8555V55.6445H64V54.7891H63.1445V49.6445H64V48.7891H64.8555V47.9336H69.1445V48.7891H70V49.6445H70.8555V54.7891H70V55.6445H69.1445V56.5ZM65.7109 54.7891H68.2832V53.9336H69.1445V50.5H68.2832V49.6445H65.7109V50.5H64.8555V53.9336H65.7109V54.7891ZM74.2773 56.5H72.5664V47.9336H74.2773V48.7891H75.1328V47.9336H78.1328V48.7891H78.9941V49.6445H79.8496V56.5H78.1328V50.5H77.2773V49.6445H75.1328V50.5H74.2773V56.5ZM86.7051 56.5H83.2773V55.6445H82.4219V54.7891H81.5664V53.0723H82.4219V52.2168H84.1328V51.3613H87.5664V50.5H86.7051V49.6445H84.1328V50.5H81.5664V49.6445H82.4219V48.7891H83.2773V47.9336H87.5664V48.7891H88.4219V49.6445H89.2773V56.5H87.5664V55.6445H86.7051V56.5ZM83.7051 54.7891H86.7051V53.9336H87.5664V52.2168H86.7051V53.0723H83.7051V54.7891ZM92.6992 56.5H90.9883V44.5H92.6992V56.5ZM99.543 56.5H97.832V44.5H104.688V45.3613H105.543V46.2168H106.398V50.5H105.543V51.3613H104.688V52.2168H99.543V56.5ZM99.543 50.5H103.832V49.6445H104.688V47.0723H103.832V46.2168H99.543V50.5ZM112.393 56.5H108.965V55.6445H108.109V54.7891H107.254V53.0723H108.109V52.2168H109.82V51.3613H113.254V50.5H112.393V49.6445H109.82V50.5H107.254V49.6445H108.109V48.7891H108.965V47.9336H113.254V48.7891H114.109V49.6445H114.965V56.5H113.254V55.6445H112.393V56.5ZM109.393 54.7891H112.393V53.9336H113.254V52.2168H112.393V53.0723H109.393V54.7891ZM118.387 56.5H116.676V47.9336H118.387V48.7891H119.242V47.9336H121.387V49.6445H119.242V50.5H118.387V56.5ZM124.387 56.5H122.676V44.5H124.387V51.3613H125.242V50.5H126.104V49.6445H126.959V48.7891H127.814V47.9336H129.959V48.7891H129.104V49.6445H128.242V50.5H127.387V51.3613H126.531V53.0723H127.387V53.9336H128.242V54.7891H129.104V55.6445H129.959V56.5H127.814V55.6445H126.959V54.7891H126.104V53.9336H125.242V53.0723H124.387V56.5ZM136.387 56.5H132.098V55.6445H131.242V54.7891H130.387V53.9336H132.953V54.7891H135.953V53.0723H132.953V52.2168H131.242V51.3613H130.387V49.6445H131.242V48.7891H132.098V47.9336H136.387V48.7891H137.242V49.6445H138.098V50.5H135.525V49.6445H132.525V51.3613H135.525V52.2168H137.242V53.0723H138.098V54.7891H137.242V55.6445H136.387V56.5Z" fill="black"/>
<path d="M23.1979 86.3983V89.5989H19.1985V85.5989H18.3991V83.2006H17.5998V85.5989H14.3997V80.7994H15.199V81.5989H15.9983V80.7994H17.5998V80H10.4002V80.7994H11.9989V81.5989H12.7982V80.7994H13.6003V85.5989H10.4002V83.2006H9.60088V85.5989H8.79879V89.5989H4.79934V86.3983H4V93.5989H4.79934V90.4011H8.79879V94.4011H9.60088V96.7994H10.4002V94.4011H13.6003V99.2006H12.7982V98.4011H11.9989V99.2006H11.1996V100H16.8004V99.2006H15.9983V98.4011H15.199V99.2006H14.3997V94.4011H17.5998V96.7994H18.3991V94.4011H19.1985V90.4011H23.1979V93.5989H24V86.3983H23.1979ZM18.3991 86.3983V89.5989H14.3997V86.3983H18.3991ZM9.60088 86.3983H13.6003V89.5989H9.60088V86.3983ZM9.60088 93.5989V90.4011H13.6003V93.5989H9.60088ZM18.3991 93.5989H14.3997V90.4011H18.3991V93.5989Z" fill="black"/>
<path d="M23.1978 93.5989H22.3984V95.2005H23.1978V93.5989Z" fill="black"/>
<path d="M23.1978 84.8022H22.3984V86.4011H23.1978V84.8022Z" fill="black"/>
<path d="M22.3981 95.2004H21.5986V96H22.3981V95.2004Z" fill="black"/>
<path d="M22.3981 84H21.5986V84.7996H22.3981V84Z" fill="black"/>
<path d="M21.5993 96.0027H20.7998V96.8023H21.5993V96.0027Z" fill="black"/>
<path d="M21.5993 83.2034H20.7998V84.003H21.5993V83.2034Z" fill="black"/>
<path d="M20.7993 96.7996H19.9971V97.6019H20.7993V96.7996Z" fill="black"/>
<path d="M21.599 84.8022H19.1982V85.6017H21.599V84.8022Z" fill="black"/>
<path d="M20.7993 82.3984H19.9971V83.2008H20.7993V82.3984Z" fill="black"/>
<path d="M19.9977 97.6045H19.1982V98.4041H19.9977V97.6045Z" fill="black"/>
<path d="M21.599 94.4038H19.1982V95.2033H21.599V94.4038Z" fill="black"/>
<path d="M19.9977 81.6018H19.1982V82.4014H19.9977V81.6018Z" fill="black"/>
<path d="M19.1988 98.4011H16.8008V99.2006H19.1988V98.4011Z" fill="black"/>
<path d="M19.1983 80.7993H17.5996V81.5988H19.1983V80.7993Z" fill="black"/>
<path d="M17.6003 96.7996H16.8008V97.6019H17.6003V96.7996Z" fill="black"/>
<path d="M17.6003 82.3984H16.8008V83.2008H17.6003V82.3984Z" fill="black"/>
<path d="M16.8003 97.6045H15.998V98.4041H16.8003V97.6045Z" fill="black"/>
<path d="M16.8003 81.6018H15.998V82.4014H16.8003V81.6018Z" fill="black"/>
<path d="M11.9987 97.6045H11.1992V98.4041H11.9987V97.6045Z" fill="black"/>
<path d="M11.9987 81.6018H11.1992V82.4014H11.9987V81.6018Z" fill="black"/>
<path d="M11.1996 98.4011H8.79883V99.2006H11.1996V98.4011Z" fill="black"/>
<path d="M11.1999 96.7996H10.4004V97.6019H11.1999V96.7996Z" fill="black"/>
<path d="M11.1999 82.3984H10.4004V83.2008H11.1999V82.3984Z" fill="black"/>
<path d="M10.4003 80.7993H8.79883V81.5988H10.4003V80.7993Z" fill="black"/>
<path d="M8.7995 97.6045H8V98.4041H8.7995V97.6045Z" fill="black"/>
<path d="M8.79938 84.8022H6.40137V85.6017H8.79938V84.8022Z" fill="black"/>
<path d="M8.7995 81.6018H8V82.4014H8.7995V81.6018Z" fill="black"/>
<path d="M7.99969 96.7996H7.2002V97.6019H7.99969V96.7996Z" fill="black"/>
<path d="M8.79938 94.4038H6.40137V95.2033H8.79938V94.4038Z" fill="black"/>
<path d="M7.99969 82.3984H7.2002V83.2008H7.99969V82.3984Z" fill="black"/>
<path d="M7.20086 96.0027H6.40137V96.8023H7.20086V96.0027Z" fill="black"/>
<path d="M7.20086 83.2034H6.40137V84.003H7.20086V83.2034Z" fill="black"/>
<path d="M6.40089 95.2004H5.59863V96H6.40089V95.2004Z" fill="black"/>
<path d="M6.40089 84H5.59863V84.7996H6.40089V84Z" fill="black"/>
<path d="M5.59914 93.5989H4.7998V95.2005H5.59914V93.5989Z" fill="black"/>
<path d="M5.59914 84.8022H4.7998V86.4011H5.59914V84.8022Z" fill="black"/>
<path opacity="0.7" d="M36.5664 96H34.8555V93.4336H35.7109V90.8613H36.5664V88.2891H37.4219V85.7168H38.2832V84H40.8555V85.7168H41.7109V88.2891H42.5664V90.8613H43.4219V93.4336H44.2832V96H42.5664V93.4336H36.5664V96ZM37.4219 91.7168H41.7109V90.8613H40.8555V88.2891H39.9941V86.5723H39.1387V88.2891H38.2832V90.8613H37.4219V91.7168ZM47.6992 96H45.9883V84H52.8438V84.8613H53.6992V85.7168H54.5547V90H53.6992V90.8613H52.8438V91.7168H47.6992V96ZM47.6992 90H51.9883V89.1445H52.8438V86.5723H51.9883V85.7168H47.6992V90ZM57.9883 96H56.2773V84H57.9883V96ZM69.9766 96H63.1211V84H69.9766V84.8613H70.832V85.7168H71.6875V86.5723H72.5488V93.4336H71.6875V94.2891H70.832V95.1445H69.9766V96ZM64.832 94.2891H69.1211V93.4336H69.9766V92.5723H70.832V87.4336H69.9766V86.5723H69.1211V85.7168H64.832V94.2891ZM80.2539 96H75.9648V95.1445H75.1094V94.2891H74.2539V89.1445H75.1094V88.2891H75.9648V87.4336H80.2539V88.2891H81.1094V89.1445H81.9648V94.2891H81.1094V95.1445H80.2539V96ZM76.8203 94.2891H79.3926V93.4336H80.2539V90H79.3926V89.1445H76.8203V90H75.9648V93.4336H76.8203V94.2891ZM89.6758 96H85.3867V95.1445H84.5312V94.2891H83.6758V89.1445H84.5312V88.2891H85.3867V87.4336H89.6758V88.2891H90.5312V89.1445H91.3867V90.8613H89.6758V90H88.8145V89.1445H86.2422V90H85.3867V93.4336H86.2422V94.2891H88.8145V93.4336H89.6758V92.5723H91.3867V94.2891H90.5312V95.1445H89.6758V96ZM97.8086 96H94.8086V95.1445H93.9531V94.2891H93.0977V87.4336H94.8086V93.4336H95.6641V94.2891H97.8086V93.4336H98.6641V87.4336H100.381V96H98.6641V95.1445H97.8086V96ZM103.809 96H102.098V87.4336H103.809V88.2891H104.664V87.4336H107.236V88.2891H108.953V87.4336H112.381V88.2891H113.236V89.1445H114.098V96H112.381V90H111.525V89.1445H109.809V90H108.953V96H107.236V90H106.381V89.1445H104.664V90H103.809V96ZM121.809 96H117.52V95.1445H116.664V94.2891H115.809V89.1445H116.664V88.2891H117.52V87.4336H121.809V88.2891H122.664V89.1445H123.52V92.1445H117.52V93.4336H118.375V94.2891H120.947V93.4336H123.52V94.2891H122.664V95.1445H121.809V96ZM117.52 90.8613H121.809V90H120.947V89.1445H118.375V90H117.52V90.8613ZM126.941 96H125.23V87.4336H126.941V88.2891H127.797V87.4336H130.797V88.2891H131.658V89.1445H132.514V96H130.797V90H129.941V89.1445H127.797V90H126.941V96ZM138.092 96H135.52V95.1445H134.664V88.7168H133.381V87.4336H134.664V84.8613H136.381V87.4336H138.092V88.7168H136.381V94.2891H138.092V96ZM144.525 96H141.098V95.1445H140.242V94.2891H139.387V92.5723H140.242V91.7168H141.953V90.8613H145.387V90H144.525V89.1445H141.953V90H139.387V89.1445H140.242V88.2891H141.098V87.4336H145.387V88.2891H146.242V89.1445H147.098V96H145.387V95.1445H144.525V96ZM141.525 94.2891H144.525V93.4336H145.387V91.7168H144.525V92.5723H141.525V94.2891ZM152.67 96H150.098V95.1445H149.242V88.7168H147.959V87.4336H149.242V84.8613H150.959V87.4336H152.67V88.7168H150.959V94.2891H152.67V96ZM155.676 86.1445H153.965V84.4336H155.676V86.1445ZM155.676 96H153.965V87.4336H155.676V96ZM163.387 96H159.098V95.1445H158.242V94.2891H157.387V89.1445H158.242V88.2891H159.098V87.4336H163.387V88.2891H164.242V89.1445H165.098V94.2891H164.242V95.1445H163.387V96ZM159.953 94.2891H162.525V93.4336H163.387V90H162.525V89.1445H159.953V90H159.098V93.4336H159.953V94.2891ZM168.52 96H166.809V87.4336H168.52V88.2891H169.375V87.4336H172.375V88.2891H173.236V89.1445H174.092V96H172.375V90H171.52V89.1445H169.375V90H168.52V96Z" fill="black"/>
<path d="M23.1979 124.398V127.599H19.1985V123.599H18.3991V121.201H17.5998V123.599H14.3997V118.799H15.199V119.599H15.9983V118.799H17.5998V118H10.4002V118.799H11.9989V119.599H12.7982V118.799H13.6003V123.599H10.4002V121.201H9.60088V123.599H8.79879V127.599H4.79934V124.398H4V131.599H4.79934V128.401H8.79879V132.401H9.60088V134.799H10.4002V132.401H13.6003V137.201H12.7982V136.401H11.9989V137.201H11.1996V138H16.8004V137.201H15.9983V136.401H15.199V137.201H14.3997V132.401H17.5998V134.799H18.3991V132.401H19.1985V128.401H23.1979V131.599H24V124.398H23.1979ZM18.3991 124.398V127.599H14.3997V124.398H18.3991ZM9.60088 124.398H13.6003V127.599H9.60088V124.398ZM9.60088 131.599V128.401H13.6003V131.599H9.60088ZM18.3991 131.599H14.3997V128.401H18.3991V131.599Z" fill="black"/>
<path d="M23.1978 131.599H22.3984V133.201H23.1978V131.599Z" fill="black"/>
<path d="M23.1978 122.802H22.3984V124.401H23.1978V122.802Z" fill="black"/>
<path d="M22.3981 133.2H21.5986V134H22.3981V133.2Z" fill="black"/>
<path d="M22.3981 122H21.5986V122.8H22.3981V122Z" fill="black"/>
<path d="M21.5993 134.003H20.7998V134.802H21.5993V134.003Z" fill="black"/>
<path d="M21.5993 121.203H20.7998V122.003H21.5993V121.203Z" fill="black"/>
<path d="M20.7993 134.8H19.9971V135.602H20.7993V134.8Z" fill="black"/>
<path d="M21.599 122.802H19.1982V123.602H21.599V122.802Z" fill="black"/>
<path d="M20.7993 120.398H19.9971V121.201H20.7993V120.398Z" fill="black"/>
<path d="M19.9977 135.604H19.1982V136.404H19.9977V135.604Z" fill="black"/>
<path d="M21.599 132.404H19.1982V133.203H21.599V132.404Z" fill="black"/>
<path d="M19.9977 119.602H19.1982V120.401H19.9977V119.602Z" fill="black"/>
<path d="M19.1988 136.401H16.8008V137.201H19.1988V136.401Z" fill="black"/>
<path d="M19.1983 118.799H17.5996V119.599H19.1983V118.799Z" fill="black"/>
<path d="M17.6003 134.8H16.8008V135.602H17.6003V134.8Z" fill="black"/>
<path d="M17.6003 120.398H16.8008V121.201H17.6003V120.398Z" fill="black"/>
<path d="M16.8003 135.604H15.998V136.404H16.8003V135.604Z" fill="black"/>
<path d="M16.8003 119.602H15.998V120.401H16.8003V119.602Z" fill="black"/>
<path d="M11.9987 135.604H11.1992V136.404H11.9987V135.604Z" fill="black"/>
<path d="M11.9987 119.602H11.1992V120.401H11.9987V119.602Z" fill="black"/>
<path d="M11.1996 136.401H8.79883V137.201H11.1996V136.401Z" fill="black"/>
<path d="M11.1999 134.8H10.4004V135.602H11.1999V134.8Z" fill="black"/>
<path d="M11.1999 120.398H10.4004V121.201H11.1999V120.398Z" fill="black"/>
<path d="M10.4003 118.799H8.79883V119.599H10.4003V118.799Z" fill="black"/>
<path d="M8.7995 135.604H8V136.404H8.7995V135.604Z" fill="black"/>
<path d="M8.79938 122.802H6.40137V123.602H8.79938V122.802Z" fill="black"/>
<path d="M8.7995 119.602H8V120.401H8.7995V119.602Z" fill="black"/>
<path d="M7.99969 134.8H7.2002V135.602H7.99969V134.8Z" fill="black"/>
<path d="M8.79938 132.404H6.40137V133.203H8.79938V132.404Z" fill="black"/>
<path d="M7.99969 120.398H7.2002V121.201H7.99969V120.398Z" fill="black"/>
<path d="M7.20086 134.003H6.40137V134.802H7.20086V134.003Z" fill="black"/>
<path d="M7.20086 121.203H6.40137V122.003H7.20086V121.203Z" fill="black"/>
<path d="M6.40089 133.2H5.59863V134H6.40089V133.2Z" fill="black"/>
<path d="M6.40089 122H5.59863V122.8H6.40089V122Z" fill="black"/>
<path d="M5.59914 131.599H4.7998V133.201H5.59914V131.599Z" fill="black"/>
<path d="M5.59914 122.802H4.7998V124.401H5.59914V122.802Z" fill="black"/>
<path opacity="0.7" d="M36.5664 132.5H34.8555V120.5H36.5664V124.789H37.4219V123.934H40.4219V124.789H41.2832V125.645H42.1387V132.5H40.4219V126.5H39.5664V125.645H37.4219V126.5H36.5664V132.5ZM45.5664 122.645H43.8555V120.934H45.5664V122.645ZM45.5664 132.5H43.8555V123.934H45.5664V132.5ZM52.416 132.5H48.9883V131.645H48.1328V130.789H47.2773V125.645H48.1328V124.789H48.9883V123.934H52.416V124.789H53.2773V120.5H54.9883V132.5H53.2773V131.645H52.416V132.5ZM49.8438 130.789H52.416V129.934H53.2773V126.5H52.416V125.645H49.8438V126.5H48.9883V129.934H49.8438V130.789ZM61.8379 132.5H58.4102V131.645H57.5547V130.789H56.6992V125.645H57.5547V124.789H58.4102V123.934H61.8379V124.789H62.6992V120.5H64.4102V132.5H62.6992V131.645H61.8379V132.5ZM59.2656 130.789H61.8379V129.934H62.6992V126.5H61.8379V125.645H59.2656V126.5H58.4102V129.934H59.2656V130.789ZM72.1211 132.5H67.832V131.645H66.9766V130.789H66.1211V125.645H66.9766V124.789H67.832V123.934H72.1211V124.789H72.9766V125.645H73.832V128.645H67.832V129.934H68.6875V130.789H71.2598V129.934H73.832V130.789H72.9766V131.645H72.1211V132.5ZM67.832 127.361H72.1211V126.5H71.2598V125.645H68.6875V126.5H67.832V127.361ZM77.2539 132.5H75.543V123.934H77.2539V124.789H78.1094V123.934H81.1094V124.789H81.9707V125.645H82.8262V132.5H81.1094V126.5H80.2539V125.645H78.1094V126.5H77.2539V132.5ZM93.1094 134.211H84.543V133.355H93.1094V134.211ZM96.543 135.928H94.832V123.934H96.543V124.789H97.3984V123.934H100.832V124.789H101.688V125.645H102.543V130.789H101.688V131.645H100.832V132.5H97.3984V131.645H96.543V135.928ZM97.3984 130.789H99.9707V129.934H100.832V126.5H99.9707V125.645H97.3984V126.5H96.543V129.934H97.3984V130.789ZM105.965 132.5H104.254V123.934H105.965V124.789H106.82V123.934H108.965V125.645H106.82V126.5H105.965V132.5ZM111.965 122.645H110.254V120.934H111.965V122.645ZM111.109 135.928H108.543V134.211H110.254V123.934H111.965V135.066H111.109V135.928Z" fill="black"/>
<path d="M23.1979 162.398V165.599H19.1985V161.599H18.3991V159.201H17.5998V161.599H14.3997V156.799H15.199V157.599H15.9983V156.799H17.5998V156H10.4002V156.799H11.9989V157.599H12.7982V156.799H13.6003V161.599H10.4002V159.201H9.60088V161.599H8.79879V165.599H4.79934V162.398H4V169.599H4.79934V166.401H8.79879V170.401H9.60088V172.799H10.4002V170.401H13.6003V175.201H12.7982V174.401H11.9989V175.201H11.1996V176H16.8004V175.201H15.9983V174.401H15.199V175.201H14.3997V170.401H17.5998V172.799H18.3991V170.401H19.1985V166.401H23.1979V169.599H24V162.398H23.1979ZM18.3991 162.398V165.599H14.3997V162.398H18.3991ZM9.60088 162.398H13.6003V165.599H9.60088V162.398ZM9.60088 169.599V166.401H13.6003V169.599H9.60088ZM18.3991 169.599H14.3997V166.401H18.3991V169.599Z" fill="black"/>
<path d="M23.1978 169.599H22.3984V171.201H23.1978V169.599Z" fill="black"/>
<path d="M23.1978 160.802H22.3984V162.401H23.1978V160.802Z" fill="black"/>
<path d="M22.3981 171.2H21.5986V172H22.3981V171.2Z" fill="black"/>
<path d="M22.3981 160H21.5986V160.8H22.3981V160Z" fill="black"/>
<path d="M21.5993 172.003H20.7998V172.802H21.5993V172.003Z" fill="black"/>
<path d="M21.5993 159.203H20.7998V160.003H21.5993V159.203Z" fill="black"/>
<path d="M20.7993 172.8H19.9971V173.602H20.7993V172.8Z" fill="black"/>
<path d="M21.599 160.802H19.1982V161.602H21.599V160.802Z" fill="black"/>
<path d="M20.7993 158.398H19.9971V159.201H20.7993V158.398Z" fill="black"/>
<path d="M19.9977 173.604H19.1982V174.404H19.9977V173.604Z" fill="black"/>
<path d="M21.599 170.404H19.1982V171.203H21.599V170.404Z" fill="black"/>
<path d="M19.9977 157.602H19.1982V158.401H19.9977V157.602Z" fill="black"/>
<path d="M19.1988 174.401H16.8008V175.201H19.1988V174.401Z" fill="black"/>
<path d="M19.1983 156.799H17.5996V157.599H19.1983V156.799Z" fill="black"/>
<path d="M17.6003 172.8H16.8008V173.602H17.6003V172.8Z" fill="black"/>
<path d="M17.6003 158.398H16.8008V159.201H17.6003V158.398Z" fill="black"/>
<path d="M16.8003 173.604H15.998V174.404H16.8003V173.604Z" fill="black"/>
<path d="M16.8003 157.602H15.998V158.401H16.8003V157.602Z" fill="black"/>
<path d="M11.9987 173.604H11.1992V174.404H11.9987V173.604Z" fill="black"/>
<path d="M11.9987 157.602H11.1992V158.401H11.9987V157.602Z" fill="black"/>
<path d="M11.1996 174.401H8.79883V175.201H11.1996V174.401Z" fill="black"/>
<path d="M11.1999 172.8H10.4004V173.602H11.1999V172.8Z" fill="black"/>
<path d="M11.1999 158.398H10.4004V159.201H11.1999V158.398Z" fill="black"/>
<path d="M10.4003 156.799H8.79883V157.599H10.4003V156.799Z" fill="black"/>
<path d="M8.7995 173.604H8V174.404H8.7995V173.604Z" fill="black"/>
<path d="M8.79938 160.802H6.40137V161.602H8.79938V160.802Z" fill="black"/>
<path d="M8.7995 157.602H8V158.401H8.7995V157.602Z" fill="black"/>
<path d="M7.99969 172.8H7.2002V173.602H7.99969V172.8Z" fill="black"/>
<path d="M8.79938 170.404H6.40137V171.203H8.79938V170.404Z" fill="black"/>
<path d="M7.99969 158.398H7.2002V159.201H7.99969V158.398Z" fill="black"/>
<path d="M7.20086 172.003H6.40137V172.802H7.20086V172.003Z" fill="black"/>
<path d="M7.20086 159.203H6.40137V160.003H7.20086V159.203Z" fill="black"/>
<path d="M6.40089 171.2H5.59863V172H6.40089V171.2Z" fill="black"/>
<path d="M6.40089 160H5.59863V160.8H6.40089V160Z" fill="black"/>
<path d="M5.59914 169.599H4.7998V171.201H5.59914V169.599Z" fill="black"/>
<path d="M5.59914 160.802H4.7998V162.401H5.59914V160.802Z" fill="black"/>
<path opacity="0.7" d="M36.5664 173.928H34.8555V161.934H36.5664V162.789H37.4219V161.934H40.8555V162.789H41.7109V163.645H42.5664V168.789H41.7109V169.645H40.8555V170.5H37.4219V169.645H36.5664V173.928ZM37.4219 168.789H39.9941V167.934H40.8555V164.5H39.9941V163.645H37.4219V164.5H36.5664V167.934H37.4219V168.789ZM45.9883 170.5H44.2773V161.934H45.9883V162.789H46.8438V161.934H48.9883V163.645H46.8438V164.5H45.9883V170.5ZM55.8555 170.5H51.5664V169.645H50.7109V168.789H49.8555V163.645H50.7109V162.789H51.5664V161.934H55.8555V162.789H56.7109V163.645H57.5664V168.789H56.7109V169.645H55.8555V170.5ZM52.4219 168.789H54.9941V167.934H55.8555V164.5H54.9941V163.645H52.4219V164.5H51.5664V167.934H52.4219V168.789ZM60.9883 160.645H59.2773V158.934H60.9883V160.645ZM60.1328 173.928H57.5664V172.211H59.2773V161.934H60.9883V173.066H60.1328V173.928ZM68.6992 170.5H64.4102V169.645H63.5547V168.789H62.6992V163.645H63.5547V162.789H64.4102V161.934H68.6992V162.789H69.5547V163.645H70.4102V166.645H64.4102V167.934H65.2656V168.789H67.8379V167.934H70.4102V168.789H69.5547V169.645H68.6992V170.5ZM64.4102 165.361H68.6992V164.5H67.8379V163.645H65.2656V164.5H64.4102V165.361ZM78.1211 170.5H73.832V169.645H72.9766V168.789H72.1211V163.645H72.9766V162.789H73.832V161.934H78.1211V162.789H78.9766V163.645H79.832V165.361H78.1211V164.5H77.2598V163.645H74.6875V164.5H73.832V167.934H74.6875V168.789H77.2598V167.934H78.1211V167.072H79.832V168.789H78.9766V169.645H78.1211V170.5ZM85.4043 170.5H82.832V169.645H81.9766V163.217H80.6934V161.934H81.9766V159.361H83.6934V161.934H85.4043V163.217H83.6934V168.789H85.4043V170.5ZM92.6875 166.217H85.832V164.5H92.6875V166.217ZM100.41 170.5H96.1211V169.645H95.2656V168.789H94.4102V163.645H95.2656V162.789H96.1211V161.934H100.41V162.789H101.266V163.645H102.121V168.789H101.266V169.645H100.41V170.5ZM96.9766 168.789H99.5488V167.934H100.41V164.5H99.5488V163.645H96.9766V164.5H96.1211V167.934H96.9766V168.789ZM105.543 170.5H103.832V161.934H105.543V162.789H106.398V161.934H109.398V162.789H110.26V163.645H111.115V170.5H109.398V164.5H108.543V163.645H106.398V164.5H105.543V170.5ZM118.832 170.5H114.543V169.645H113.688V168.789H112.832V163.645H113.688V162.789H114.543V161.934H118.832V162.789H119.688V163.645H120.543V166.645H114.543V167.934H115.398V168.789H117.971V167.934H120.543V168.789H119.688V169.645H118.832V170.5ZM114.543 165.361H118.832V164.5H117.971V163.645H115.398V164.5H114.543V165.361Z" fill="black"/>
<path d="M23.1979 200.398V203.599H19.1985V199.599H18.3991V197.201H17.5998V199.599H14.3997V194.799H15.199V195.599H15.9983V194.799H17.5998V194H10.4002V194.799H11.9989V195.599H12.7982V194.799H13.6003V199.599H10.4002V197.201H9.60088V199.599H8.79879V203.599H4.79934V200.398H4V207.599H4.79934V204.401H8.79879V208.401H9.60088V210.799H10.4002V208.401H13.6003V213.201H12.7982V212.401H11.9989V213.201H11.1996V214H16.8004V213.201H15.9983V212.401H15.199V213.201H14.3997V208.401H17.5998V210.799H18.3991V208.401H19.1985V204.401H23.1979V207.599H24V200.398H23.1979ZM18.3991 200.398V203.599H14.3997V200.398H18.3991ZM9.60088 200.398H13.6003V203.599H9.60088V200.398ZM9.60088 207.599V204.401H13.6003V207.599H9.60088ZM18.3991 207.599H14.3997V204.401H18.3991V207.599Z" fill="black"/>
<path d="M23.1978 207.599H22.3984V209.201H23.1978V207.599Z" fill="black"/>
<path d="M23.1978 198.802H22.3984V200.401H23.1978V198.802Z" fill="black"/>
<path d="M22.3981 209.2H21.5986V210H22.3981V209.2Z" fill="black"/>
<path d="M22.3981 198H21.5986V198.8H22.3981V198Z" fill="black"/>
<path d="M21.5993 210.003H20.7998V210.802H21.5993V210.003Z" fill="black"/>
<path d="M21.5993 197.203H20.7998V198.003H21.5993V197.203Z" fill="black"/>
<path d="M20.7993 210.8H19.9971V211.602H20.7993V210.8Z" fill="black"/>
<path d="M21.599 198.802H19.1982V199.602H21.599V198.802Z" fill="black"/>
<path d="M20.7993 196.398H19.9971V197.201H20.7993V196.398Z" fill="black"/>
<path d="M19.9977 211.604H19.1982V212.404H19.9977V211.604Z" fill="black"/>
<path d="M21.599 208.404H19.1982V209.203H21.599V208.404Z" fill="black"/>
<path d="M19.9977 195.602H19.1982V196.401H19.9977V195.602Z" fill="black"/>
<path d="M19.1988 212.401H16.8008V213.201H19.1988V212.401Z" fill="black"/>
<path d="M19.1983 194.799H17.5996V195.599H19.1983V194.799Z" fill="black"/>
<path d="M17.6003 210.8H16.8008V211.602H17.6003V210.8Z" fill="black"/>
<path d="M17.6003 196.398H16.8008V197.201H17.6003V196.398Z" fill="black"/>
<path d="M16.8003 211.604H15.998V212.404H16.8003V211.604Z" fill="black"/>
<path d="M16.8003 195.602H15.998V196.401H16.8003V195.602Z" fill="black"/>
<path d="M11.9987 211.604H11.1992V212.404H11.9987V211.604Z" fill="black"/>
<path d="M11.9987 195.602H11.1992V196.401H11.9987V195.602Z" fill="black"/>
<path d="M11.1996 212.401H8.79883V213.201H11.1996V212.401Z" fill="black"/>
<path d="M11.1999 210.8H10.4004V211.602H11.1999V210.8Z" fill="black"/>
<path d="M11.1999 196.398H10.4004V197.201H11.1999V196.398Z" fill="black"/>
<path d="M10.4003 194.799H8.79883V195.599H10.4003V194.799Z" fill="black"/>
<path d="M8.7995 211.604H8V212.404H8.7995V211.604Z" fill="black"/>
<path d="M8.79938 198.802H6.40137V199.602H8.79938V198.802Z" fill="black"/>
<path d="M8.7995 195.602H8V196.401H8.7995V195.602Z" fill="black"/>
<path d="M7.99969 210.8H7.2002V211.602H7.99969V210.8Z" fill="black"/>
<path d="M8.79938 208.404H6.40137V209.203H8.79938V208.404Z" fill="black"/>
<path d="M7.99969 196.398H7.2002V197.201H7.99969V196.398Z" fill="black"/>
<path d="M7.20086 210.003H6.40137V210.802H7.20086V210.003Z" fill="black"/>
<path d="M7.20086 197.203H6.40137V198.003H7.20086V197.203Z" fill="black"/>
<path d="M6.40089 209.2H5.59863V210H6.40089V209.2Z" fill="black"/>
<path d="M6.40089 198H5.59863V198.8H6.40089V198Z" fill="black"/>
<path d="M5.59914 207.599H4.7998V209.201H5.59914V207.599Z" fill="black"/>
<path d="M5.59914 198.802H4.7998V200.401H5.59914V198.802Z" fill="black"/>
<path opacity="0.7" d="M36.5664 211.928H34.8555V199.934H36.5664V200.789H37.4219V199.934H40.8555V200.789H41.7109V201.645H42.5664V206.789H41.7109V207.645H40.8555V208.5H37.4219V207.645H36.5664V211.928ZM37.4219 206.789H39.9941V205.934H40.8555V202.5H39.9941V201.645H37.4219V202.5H36.5664V205.934H37.4219V206.789ZM45.9883 208.5H44.2773V196.5H46.8438V198.217H47.7051V199.934H48.5605V201.645H49.416V203.361H50.2773V205.072H51.1328V196.5H52.8438V208.5H50.2773V206.789H49.416V205.072H48.5605V203.361H47.7051V201.645H46.8438V199.934H45.9883V208.5ZM59.6992 211.928H57.9883V199.934H59.6992V200.789H60.5547V199.934H63.9883V200.789H64.8438V201.645H65.6992V206.789H64.8438V207.645H63.9883V208.5H60.5547V207.645H59.6992V211.928ZM60.5547 206.789H63.127V205.934H63.9883V202.5H63.127V201.645H60.5547V202.5H59.6992V205.934H60.5547V206.789ZM69.1211 208.5H67.4102V199.934H69.1211V200.789H69.9766V199.934H72.1211V201.645H69.9766V202.5H69.1211V208.5ZM78.9883 208.5H74.6992V207.645H73.8438V206.789H72.9883V201.645H73.8438V200.789H74.6992V199.934H78.9883V200.789H79.8438V201.645H80.6992V206.789H79.8438V207.645H78.9883V208.5ZM75.5547 206.789H78.127V205.934H78.9883V202.5H78.127V201.645H75.5547V202.5H74.6992V205.934H75.5547V206.789ZM84.1211 198.645H82.4102V196.934H84.1211V198.645ZM83.2656 211.928H80.6992V210.211H82.4102V199.934H84.1211V211.066H83.2656V211.928ZM91.832 208.5H87.543V207.645H86.6875V206.789H85.832V201.645H86.6875V200.789H87.543V199.934H91.832V200.789H92.6875V201.645H93.543V204.645H87.543V205.934H88.3984V206.789H90.9707V205.934H93.543V206.789H92.6875V207.645H91.832V208.5ZM87.543 203.361H91.832V202.5H90.9707V201.645H88.3984V202.5H87.543V203.361ZM101.254 208.5H96.9648V207.645H96.1094V206.789H95.2539V201.645H96.1094V200.789H96.9648V199.934H101.254V200.789H102.109V201.645H102.965V203.361H101.254V202.5H100.393V201.645H97.8203V202.5H96.9648V205.934H97.8203V206.789H100.393V205.934H101.254V205.072H102.965V206.789H102.109V207.645H101.254V208.5ZM108.537 208.5H105.965V207.645H105.109V201.217H103.826V199.934H105.109V197.361H106.826V199.934H108.537V201.217H106.826V206.789H108.537V208.5Z" fill="black"/>
</g>
<defs>
<clipPath id="clip0_1797_10368">
<rect width="640" height="218" rx="18" fill="white"/>
</clipPath>
</defs>
</svg>
