<svg width="672" height="212" viewBox="0 0 672 212" fill="none" xmlns="http://www.w3.org/2000/svg">
<g clip-path="url(#clip0_1857_22406)">
<path d="M83.4977 17.9325V26.4345H72.8735V15.8088H70.7501V9.4378H68.6267V15.8088H60.1259V3.05946H62.2493V5.18314H64.3727V3.05946H68.6267V0.935791H49.5017V3.05946H53.7484V5.18314H55.8718V3.05946H58.0025V15.8088H49.5017V9.4378H47.3783V15.8088H45.2476V26.4345H34.6234V17.9325H32.5V37.0602H34.6234V28.5655H45.2476V39.1912H47.3783V45.5622H49.5017V39.1912H58.0025V51.9406H55.8718V49.8169H53.7484V51.9406H51.6251V54.0642H66.5034V51.9406H64.3727V49.8169H62.2493V51.9406H60.1259V39.1912H68.6267V45.5622H70.7501V37.0602H72.8735V28.5655H83.4977V37.0602H85.6284V17.9325H83.4977ZM70.7501 17.9325V26.4345H60.1259V17.9325H70.7501ZM47.3783 17.9325H58.0025V26.4345H47.3783V17.9325ZM47.3783 37.0602V28.5655H58.0025V37.0602H47.3783ZM70.7501 37.0602H60.1259V28.5655H70.7501V37.0602Z" fill="black"/>
<path d="M83.4974 13.6926H81.374V17.94H83.4974V13.6926Z" fill="black"/>
<path d="M81.3738 11.5615H79.25V13.6856H81.3738V11.5615Z" fill="black"/>
<path d="M79.2508 9.44507H77.127V11.5692H79.2508V9.44507Z" fill="black"/>
<path d="M79.2505 13.6926H72.873V15.8163H79.2505V13.6926Z" fill="black"/>
<path d="M77.1262 7.30713H74.9951V9.43855H77.1262V7.30713Z" fill="black"/>
<path d="M74.9968 5.19067H72.873V7.31477H74.9968V5.19067Z" fill="black"/>
<path d="M70.6576 49.8169H66.5039V51.9406H70.6576V49.8169Z" fill="black"/>
<path d="M72.8727 3.05957H68.626V5.18324H72.8727V3.05957Z" fill="black"/>
<path d="M68.6277 45.5623H66.5039V47.6937H68.6277V45.5623Z" fill="black"/>
<path d="M68.6277 7.30713H66.5039V9.43855H68.6277V7.30713Z" fill="black"/>
<path d="M66.5022 47.7007H64.3711V49.8248H66.5022V47.7007Z" fill="black"/>
<path d="M66.5022 5.19067H64.3711V7.31477H66.5022V5.19067Z" fill="black"/>
<path d="M53.7478 47.7007H51.624V49.8248H53.7478V47.7007Z" fill="black"/>
<path d="M53.7478 5.19067H51.624V7.31477H53.7478V5.19067Z" fill="black"/>
<path d="M51.6255 49.8169H45.248V51.9406H51.6255V49.8169Z" fill="black"/>
<path d="M51.6267 45.5623H49.5029V47.6937H51.6267V45.5623Z" fill="black"/>
<path d="M51.6267 7.30713H49.5029V9.43855H51.6267V7.30713Z" fill="black"/>
<path d="M49.5021 3.05957H45.248V5.18324H49.5021V3.05957Z" fill="black"/>
<path d="M45.2498 47.7007H43.126V49.8248H45.2498V47.7007Z" fill="black"/>
<path d="M45.249 13.6926H38.8789V15.8163H45.249V13.6926Z" fill="black"/>
<path d="M45.2498 5.19067H43.126V7.31477H45.2498V5.19067Z" fill="black"/>
<path d="M43.1248 45.5623H41.001V47.6937H43.1248V45.5623Z" fill="black"/>
<path d="M45.249 39.1987H38.8789V41.3224H45.249V39.1987Z" fill="black"/>
<path d="M43.1248 7.30713H41.001V9.43855H43.1248V7.30713Z" fill="black"/>
<path d="M41.0027 43.4456H38.8789V45.5697H41.0027V43.4456Z" fill="black"/>
<path d="M41.0027 9.44507H38.8789V11.5692H41.0027V9.44507Z" fill="black"/>
<path d="M38.8782 41.3149H36.7471V43.439H38.8782V41.3149Z" fill="black"/>
<path d="M38.8782 11.5615H36.7471V13.6856H38.8782V11.5615Z" fill="black"/>
<path d="M36.7474 37.0605H34.624V41.3152H36.7474V37.0605Z" fill="black"/>
<path d="M36.7474 13.6926H34.624V17.94H36.7474V13.6926Z" fill="black"/>
<path d="M74.0059 54.064H75.9378V52.1321H74.0059V54.064Z" fill="black"/>
<path d="M75.9385 52.1324H77.8704V50.2004H75.9385V52.1324Z" fill="black"/>
<path d="M79.8018 48.2684H81.7337V46.3364H79.8018V48.2684Z" fill="black"/>
<path d="M77.8691 50.2003H79.8011V48.2683H77.8691V50.2003Z" fill="black"/>
<path d="M81.7334 46.3362H83.6653V44.4043H81.7334V46.3362Z" fill="black"/>
<path d="M85.5975 40.5405C81.7336 40.5405 77.8697 40.5405 74.0059 40.5405V42.4725C77.2258 42.4725 80.4457 42.4725 83.6656 42.4725V44.4044H85.5975C85.5975 47.6243 85.5975 50.8442 85.5975 54.0641H87.5295C87.5295 49.5563 87.5295 45.0484 87.5295 40.5405H85.5975Z" fill="black"/>
<path opacity="0.7" d="M26.7773 78H25.0664V66H31.9219V66.8613H32.7773V67.7168H33.6328V72H32.7773V72.8613H31.9219V73.7168H26.7773V78ZM26.7773 72H31.0664V71.1445H31.9219V68.5723H31.0664V67.7168H26.7773V72ZM36.6445 78H34.9336V69.4336H36.6445V70.2891H37.5V69.4336H39.6445V71.1445H37.5V72H36.6445V78ZM46.5117 78H42.2227V77.1445H41.3672V76.2891H40.5117V71.1445H41.3672V70.2891H42.2227V69.4336H46.5117V70.2891H47.3672V71.1445H48.2227V76.2891H47.3672V77.1445H46.5117V78ZM43.0781 76.2891H45.6504V75.4336H46.5117V72H45.6504V71.1445H43.0781V72H42.2227V75.4336H43.0781V76.2891ZM51.6445 68.1445H49.9336V66.4336H51.6445V68.1445ZM50.7891 81.4277H48.2227V79.7109H49.9336V69.4336H51.6445V80.5664H50.7891V81.4277ZM59.3555 78H55.0664V77.1445H54.2109V76.2891H53.3555V71.1445H54.2109V70.2891H55.0664V69.4336H59.3555V70.2891H60.2109V71.1445H61.0664V74.1445H55.0664V75.4336H55.9219V76.2891H58.4941V75.4336H61.0664V76.2891H60.2109V77.1445H59.3555V78ZM55.0664 72.8613H59.3555V72H58.4941V71.1445H55.9219V72H55.0664V72.8613ZM68.7773 78H64.4883V77.1445H63.6328V76.2891H62.7773V71.1445H63.6328V70.2891H64.4883V69.4336H68.7773V70.2891H69.6328V71.1445H70.4883V72.8613H68.7773V72H67.916V71.1445H65.3438V72H64.4883V75.4336H65.3438V76.2891H67.916V75.4336H68.7773V74.5723H70.4883V76.2891H69.6328V77.1445H68.7773V78ZM76.0605 78H73.4883V77.1445H72.6328V70.7168H71.3496V69.4336H72.6328V66.8613H74.3496V69.4336H76.0605V70.7168H74.3496V76.2891H76.0605V78ZM83.3438 78H81.6328V75.4336H82.4883V74.5723H80.7773V72.8613H82.4883V71.1445H80.7773V69.4336H82.4883V68.5723H83.3438V66H85.0605V68.5723H84.2051V69.4336H85.916V68.5723H86.7773V66H88.4883V68.5723H87.6328V69.4336H89.3438V71.1445H87.6328V72.8613H89.3438V74.5723H87.6328V75.4336H86.7773V78H85.0605V75.4336H85.916V74.5723H84.2051V75.4336H83.3438V78ZM84.2051 72.8613H85.916V71.1445H84.2051V72.8613ZM94.9219 78H93.2051V69H90.6387V67.7168H93.2051V66H94.9219V78Z" fill="black"/>
</g>
<g clip-path="url(#clip1_1857_22406)">
<path d="M221.498 17.9325V26.4345H210.874V15.8088H208.75V9.4378H206.627V15.8088H198.126V3.05946H200.249V5.18314H202.373V3.05946H206.627V0.935791H187.502V3.05946H191.748V5.18314H193.872V3.05946H196.003V15.8088H187.502V9.4378H185.378V15.8088H183.248V26.4345H172.623V17.9325H170.5V37.0602H172.623V28.5655H183.248V39.1912H185.378V45.5622H187.502V39.1912H196.003V51.9406H193.872V49.8169H191.748V51.9406H189.625V54.0642H204.503V51.9406H202.373V49.8169H200.249V51.9406H198.126V39.1912H206.627V45.5622H208.75V37.0602H210.874V28.5655H221.498V37.0602H223.628V17.9325H221.498ZM208.75 17.9325V26.4345H198.126V17.9325H208.75ZM185.378 17.9325H196.003V26.4345H185.378V17.9325ZM185.378 37.0602V28.5655H196.003V37.0602H185.378ZM208.75 37.0602H198.126V28.5655H208.75V37.0602Z" fill="black"/>
<path d="M221.497 13.6926H219.374V17.94H221.497V13.6926Z" fill="black"/>
<path d="M219.374 11.5615H217.25V13.6856H219.374V11.5615Z" fill="black"/>
<path d="M217.251 9.44507H215.127V11.5692H217.251V9.44507Z" fill="black"/>
<path d="M217.251 13.6926H210.873V15.8163H217.251V13.6926Z" fill="black"/>
<path d="M215.126 7.30713H212.995V9.43855H215.126V7.30713Z" fill="black"/>
<path d="M212.997 5.19067H210.873V7.31477H212.997V5.19067Z" fill="black"/>
<path d="M208.658 49.8169H204.504V51.9406H208.658V49.8169Z" fill="black"/>
<path d="M210.873 3.05957H206.626V5.18324H210.873V3.05957Z" fill="black"/>
<path d="M206.628 45.5623H204.504V47.6937H206.628V45.5623Z" fill="black"/>
<path d="M206.628 7.30713H204.504V9.43855H206.628V7.30713Z" fill="black"/>
<path d="M204.502 47.7007H202.371V49.8248H204.502V47.7007Z" fill="black"/>
<path d="M204.502 5.19067H202.371V7.31477H204.502V5.19067Z" fill="black"/>
<path d="M191.748 47.7007H189.624V49.8248H191.748V47.7007Z" fill="black"/>
<path d="M191.748 5.19067H189.624V7.31477H191.748V5.19067Z" fill="black"/>
<path d="M189.626 49.8169H183.248V51.9406H189.626V49.8169Z" fill="black"/>
<path d="M189.627 45.5623H187.503V47.6937H189.627V45.5623Z" fill="black"/>
<path d="M189.627 7.30713H187.503V9.43855H189.627V7.30713Z" fill="black"/>
<path d="M187.502 3.05957H183.248V5.18324H187.502V3.05957Z" fill="black"/>
<path d="M183.25 47.7007H181.126V49.8248H183.25V47.7007Z" fill="black"/>
<path d="M183.249 13.6926H176.879V15.8163H183.249V13.6926Z" fill="black"/>
<path d="M183.25 5.19067H181.126V7.31477H183.25V5.19067Z" fill="black"/>
<path d="M181.125 45.5623H179.001V47.6937H181.125V45.5623Z" fill="black"/>
<path d="M183.249 39.1987H176.879V41.3224H183.249V39.1987Z" fill="black"/>
<path d="M181.125 7.30713H179.001V9.43855H181.125V7.30713Z" fill="black"/>
<path d="M179.003 43.4456H176.879V45.5697H179.003V43.4456Z" fill="black"/>
<path d="M179.003 9.44507H176.879V11.5692H179.003V9.44507Z" fill="black"/>
<path d="M176.878 41.3149H174.747V43.439H176.878V41.3149Z" fill="black"/>
<path d="M176.878 11.5615H174.747V13.6856H176.878V11.5615Z" fill="black"/>
<path d="M174.747 37.0605H172.624V41.3152H174.747V37.0605Z" fill="black"/>
<path d="M174.747 13.6926H172.624V17.94H174.747V13.6926Z" fill="black"/>
<path d="M212.006 54.064H213.938V52.1321H212.006V54.064Z" fill="black"/>
<path d="M213.938 52.1324H215.87V50.2004H213.938V52.1324Z" fill="black"/>
<path d="M217.802 48.2684H219.734V46.3364H217.802V48.2684Z" fill="black"/>
<path d="M215.869 50.2003H217.801V48.2683H215.869V50.2003Z" fill="black"/>
<path d="M219.733 46.3362H221.665V44.4043H219.733V46.3362Z" fill="black"/>
<path d="M223.598 40.5405C219.734 40.5405 215.87 40.5405 212.006 40.5405V42.4725C215.226 42.4725 218.446 42.4725 221.666 42.4725V44.4044H223.598C223.598 47.6243 223.598 50.8442 223.598 54.0641H225.529C225.529 49.5563 225.529 45.0484 225.529 40.5405H223.598Z" fill="black"/>
<path opacity="0.7" d="M162.855 78H161.145V66H168V66.8613H168.855V67.7168H169.711V72H168.855V72.8613H168V73.7168H162.855V78ZM162.855 72H167.145V71.1445H168V68.5723H167.145V67.7168H162.855V72ZM172.723 78H171.012V69.4336H172.723V70.2891H173.578V69.4336H175.723V71.1445H173.578V72H172.723V78ZM182.59 78H178.301V77.1445H177.445V76.2891H176.59V71.1445H177.445V70.2891H178.301V69.4336H182.59V70.2891H183.445V71.1445H184.301V76.2891H183.445V77.1445H182.59V78ZM179.156 76.2891H181.729V75.4336H182.59V72H181.729V71.1445H179.156V72H178.301V75.4336H179.156V76.2891ZM187.723 68.1445H186.012V66.4336H187.723V68.1445ZM186.867 81.4277H184.301V79.7109H186.012V69.4336H187.723V80.5664H186.867V81.4277ZM195.434 78H191.145V77.1445H190.289V76.2891H189.434V71.1445H190.289V70.2891H191.145V69.4336H195.434V70.2891H196.289V71.1445H197.145V74.1445H191.145V75.4336H192V76.2891H194.572V75.4336H197.145V76.2891H196.289V77.1445H195.434V78ZM191.145 72.8613H195.434V72H194.572V71.1445H192V72H191.145V72.8613ZM204.855 78H200.566V77.1445H199.711V76.2891H198.855V71.1445H199.711V70.2891H200.566V69.4336H204.855V70.2891H205.711V71.1445H206.566V72.8613H204.855V72H203.994V71.1445H201.422V72H200.566V75.4336H201.422V76.2891H203.994V75.4336H204.855V74.5723H206.566V76.2891H205.711V77.1445H204.855V78ZM212.139 78H209.566V77.1445H208.711V70.7168H207.428V69.4336H208.711V66.8613H210.428V69.4336H212.139V70.7168H210.428V76.2891H212.139V78ZM219.422 78H217.711V75.4336H218.566V74.5723H216.855V72.8613H218.566V71.1445H216.855V69.4336H218.566V68.5723H219.422V66H221.139V68.5723H220.283V69.4336H221.994V68.5723H222.855V66H224.566V68.5723H223.711V69.4336H225.422V71.1445H223.711V72.8613H225.422V74.5723H223.711V75.4336H222.855V78H221.139V75.4336H221.994V74.5723H220.283V75.4336H219.422V78ZM220.283 72.8613H221.994V71.1445H220.283V72.8613ZM234.855 78H227.145V75.4336H228V74.5723H228.855V73.7168H229.711V72.8613H230.572V72H231.428V71.1445H232.283V70.2891H233.145V68.5723H232.283V67.7168H229.711V68.5723H228.855V69.4336H227.145V67.7168H228V66.8613H228.855V66H233.145V66.8613H234V67.7168H234.855V71.1445H234V72H233.145V72.8613H232.283V73.7168H231.428V74.5723H230.572V75.4336H229.711V76.2891H234.855V78Z" fill="black"/>
</g>
<g clip-path="url(#clip2_1857_22406)">
<path d="M359.498 17.9325V26.4345H348.874V15.8088H346.75V9.4378H344.627V15.8088H336.126V3.05946H338.249V5.18314H340.373V3.05946H344.627V0.935791H325.502V3.05946H329.748V5.18314H331.872V3.05946H334.003V15.8088H325.502V9.4378H323.378V15.8088H321.248V26.4345H310.623V17.9325H308.5V37.0602H310.623V28.5655H321.248V39.1912H323.378V45.5622H325.502V39.1912H334.003V51.9406H331.872V49.8169H329.748V51.9406H327.625V54.0642H342.503V51.9406H340.373V49.8169H338.249V51.9406H336.126V39.1912H344.627V45.5622H346.75V37.0602H348.874V28.5655H359.498V37.0602H361.628V17.9325H359.498ZM346.75 17.9325V26.4345H336.126V17.9325H346.75ZM323.378 17.9325H334.003V26.4345H323.378V17.9325ZM323.378 37.0602V28.5655H334.003V37.0602H323.378ZM346.75 37.0602H336.126V28.5655H346.75V37.0602Z" fill="black"/>
<path d="M359.497 13.6926H357.374V17.94H359.497V13.6926Z" fill="black"/>
<path d="M357.374 11.5615H355.25V13.6856H357.374V11.5615Z" fill="black"/>
<path d="M355.251 9.44507H353.127V11.5692H355.251V9.44507Z" fill="black"/>
<path d="M355.251 13.6926H348.873V15.8163H355.251V13.6926Z" fill="black"/>
<path d="M353.126 7.30713H350.995V9.43855H353.126V7.30713Z" fill="black"/>
<path d="M350.997 5.19067H348.873V7.31477H350.997V5.19067Z" fill="black"/>
<path d="M346.658 49.8169H342.504V51.9406H346.658V49.8169Z" fill="black"/>
<path d="M348.873 3.05957H344.626V5.18324H348.873V3.05957Z" fill="black"/>
<path d="M344.628 45.5623H342.504V47.6937H344.628V45.5623Z" fill="black"/>
<path d="M344.628 7.30713H342.504V9.43855H344.628V7.30713Z" fill="black"/>
<path d="M342.502 47.7007H340.371V49.8248H342.502V47.7007Z" fill="black"/>
<path d="M342.502 5.19067H340.371V7.31477H342.502V5.19067Z" fill="black"/>
<path d="M329.748 47.7007H327.624V49.8248H329.748V47.7007Z" fill="black"/>
<path d="M329.748 5.19067H327.624V7.31477H329.748V5.19067Z" fill="black"/>
<path d="M327.626 49.8169H321.248V51.9406H327.626V49.8169Z" fill="black"/>
<path d="M327.627 45.5623H325.503V47.6937H327.627V45.5623Z" fill="black"/>
<path d="M327.627 7.30713H325.503V9.43855H327.627V7.30713Z" fill="black"/>
<path d="M325.502 3.05957H321.248V5.18324H325.502V3.05957Z" fill="black"/>
<path d="M321.25 47.7007H319.126V49.8248H321.25V47.7007Z" fill="black"/>
<path d="M321.249 13.6926H314.879V15.8163H321.249V13.6926Z" fill="black"/>
<path d="M321.25 5.19067H319.126V7.31477H321.25V5.19067Z" fill="black"/>
<path d="M319.125 45.5623H317.001V47.6937H319.125V45.5623Z" fill="black"/>
<path d="M321.249 39.1987H314.879V41.3224H321.249V39.1987Z" fill="black"/>
<path d="M319.125 7.30713H317.001V9.43855H319.125V7.30713Z" fill="black"/>
<path d="M317.003 43.4456H314.879V45.5697H317.003V43.4456Z" fill="black"/>
<path d="M317.003 9.44507H314.879V11.5692H317.003V9.44507Z" fill="black"/>
<path d="M314.878 41.3149H312.747V43.439H314.878V41.3149Z" fill="black"/>
<path d="M314.878 11.5615H312.747V13.6856H314.878V11.5615Z" fill="black"/>
<path d="M312.747 37.0605H310.624V41.3152H312.747V37.0605Z" fill="black"/>
<path d="M312.747 13.6926H310.624V17.94H312.747V13.6926Z" fill="black"/>
<path d="M350.006 54.064H351.938V52.1321H350.006V54.064Z" fill="black"/>
<path d="M351.938 52.1324H353.87V50.2004H351.938V52.1324Z" fill="black"/>
<path d="M355.802 48.2684H357.734V46.3364H355.802V48.2684Z" fill="black"/>
<path d="M353.869 50.2003H355.801V48.2683H353.869V50.2003Z" fill="black"/>
<path d="M357.733 46.3362H359.665V44.4043H357.733V46.3362Z" fill="black"/>
<path d="M361.598 40.5405C357.734 40.5405 353.87 40.5405 350.006 40.5405V42.4725C353.226 42.4725 356.446 42.4725 359.666 42.4725V44.4044H361.598C361.598 47.6243 361.598 50.8442 361.598 54.0641H363.529C363.529 49.5563 363.529 45.0484 363.529 40.5405H361.598Z" fill="black"/>
<path opacity="0.7" d="M300.855 78H299.145V66H306V66.8613H306.855V67.7168H307.711V72H306.855V72.8613H306V73.7168H300.855V78ZM300.855 72H305.145V71.1445H306V68.5723H305.145V67.7168H300.855V72ZM310.723 78H309.012V69.4336H310.723V70.2891H311.578V69.4336H313.723V71.1445H311.578V72H310.723V78ZM320.59 78H316.301V77.1445H315.445V76.2891H314.59V71.1445H315.445V70.2891H316.301V69.4336H320.59V70.2891H321.445V71.1445H322.301V76.2891H321.445V77.1445H320.59V78ZM317.156 76.2891H319.729V75.4336H320.59V72H319.729V71.1445H317.156V72H316.301V75.4336H317.156V76.2891ZM325.723 68.1445H324.012V66.4336H325.723V68.1445ZM324.867 81.4277H322.301V79.7109H324.012V69.4336H325.723V80.5664H324.867V81.4277ZM333.434 78H329.145V77.1445H328.289V76.2891H327.434V71.1445H328.289V70.2891H329.145V69.4336H333.434V70.2891H334.289V71.1445H335.145V74.1445H329.145V75.4336H330V76.2891H332.572V75.4336H335.145V76.2891H334.289V77.1445H333.434V78ZM329.145 72.8613H333.434V72H332.572V71.1445H330V72H329.145V72.8613ZM342.855 78H338.566V77.1445H337.711V76.2891H336.855V71.1445H337.711V70.2891H338.566V69.4336H342.855V70.2891H343.711V71.1445H344.566V72.8613H342.855V72H341.994V71.1445H339.422V72H338.566V75.4336H339.422V76.2891H341.994V75.4336H342.855V74.5723H344.566V76.2891H343.711V77.1445H342.855V78ZM350.139 78H347.566V77.1445H346.711V70.7168H345.428V69.4336H346.711V66.8613H348.428V69.4336H350.139V70.7168H348.428V76.2891H350.139V78ZM357.422 78H355.711V75.4336H356.566V74.5723H354.855V72.8613H356.566V71.1445H354.855V69.4336H356.566V68.5723H357.422V66H359.139V68.5723H358.283V69.4336H359.994V68.5723H360.855V66H362.566V68.5723H361.711V69.4336H363.422V71.1445H361.711V72.8613H363.422V74.5723H361.711V75.4336H360.855V78H359.139V75.4336H359.994V74.5723H358.283V75.4336H357.422V78ZM358.283 72.8613H359.994V71.1445H358.283V72.8613ZM371.145 78H366.855V77.1445H366V76.2891H365.145V74.5723H366.855V75.4336H367.711V76.2891H370.283V75.4336H371.145V73.2891H370.283V72.4336H367.711V71.1445H370.283V70.2891H371.145V68.5723H370.283V67.7168H367.711V68.5723H366.855V69.4336H365.145V67.7168H366V66.8613H366.855V66H371.145V66.8613H372V67.7168H372.855V71.1445H372V72.4336H372.855V76.2891H372V77.1445H371.145V78Z" fill="black"/>
</g>
<g clip-path="url(#clip3_1857_22406)">
<path d="M497.498 17.9325V26.4345H486.874V15.8088H484.75V9.4378H482.627V15.8088H474.126V3.05946H476.249V5.18314H478.373V3.05946H482.627V0.935791H463.502V3.05946H467.748V5.18314H469.872V3.05946H472.003V15.8088H463.502V9.4378H461.378V15.8088H459.248V26.4345H448.623V17.9325H446.5V37.0602H448.623V28.5655H459.248V39.1912H461.378V45.5622H463.502V39.1912H472.003V51.9406H469.872V49.8169H467.748V51.9406H465.625V54.0642H480.503V51.9406H478.373V49.8169H476.249V51.9406H474.126V39.1912H482.627V45.5622H484.75V37.0602H486.874V28.5655H497.498V37.0602H499.628V17.9325H497.498ZM484.75 17.9325V26.4345H474.126V17.9325H484.75ZM461.378 17.9325H472.003V26.4345H461.378V17.9325ZM461.378 37.0602V28.5655H472.003V37.0602H461.378ZM484.75 37.0602H474.126V28.5655H484.75V37.0602Z" fill="black"/>
<path d="M497.497 13.6926H495.374V17.94H497.497V13.6926Z" fill="black"/>
<path d="M495.374 11.5615H493.25V13.6856H495.374V11.5615Z" fill="black"/>
<path d="M493.251 9.44507H491.127V11.5692H493.251V9.44507Z" fill="black"/>
<path d="M493.251 13.6926H486.873V15.8163H493.251V13.6926Z" fill="black"/>
<path d="M491.126 7.30713H488.995V9.43855H491.126V7.30713Z" fill="black"/>
<path d="M488.997 5.19067H486.873V7.31477H488.997V5.19067Z" fill="black"/>
<path d="M484.658 49.8169H480.504V51.9406H484.658V49.8169Z" fill="black"/>
<path d="M486.873 3.05957H482.626V5.18324H486.873V3.05957Z" fill="black"/>
<path d="M482.628 45.5623H480.504V47.6937H482.628V45.5623Z" fill="black"/>
<path d="M482.628 7.30713H480.504V9.43855H482.628V7.30713Z" fill="black"/>
<path d="M480.502 47.7007H478.371V49.8248H480.502V47.7007Z" fill="black"/>
<path d="M480.502 5.19067H478.371V7.31477H480.502V5.19067Z" fill="black"/>
<path d="M467.748 47.7007H465.624V49.8248H467.748V47.7007Z" fill="black"/>
<path d="M467.748 5.19067H465.624V7.31477H467.748V5.19067Z" fill="black"/>
<path d="M465.626 49.8169H459.248V51.9406H465.626V49.8169Z" fill="black"/>
<path d="M465.627 45.5623H463.503V47.6937H465.627V45.5623Z" fill="black"/>
<path d="M465.627 7.30713H463.503V9.43855H465.627V7.30713Z" fill="black"/>
<path d="M463.502 3.05957H459.248V5.18324H463.502V3.05957Z" fill="black"/>
<path d="M459.25 47.7007H457.126V49.8248H459.25V47.7007Z" fill="black"/>
<path d="M459.249 13.6926H452.879V15.8163H459.249V13.6926Z" fill="black"/>
<path d="M459.25 5.19067H457.126V7.31477H459.25V5.19067Z" fill="black"/>
<path d="M457.125 45.5623H455.001V47.6937H457.125V45.5623Z" fill="black"/>
<path d="M459.249 39.1987H452.879V41.3224H459.249V39.1987Z" fill="black"/>
<path d="M457.125 7.30713H455.001V9.43855H457.125V7.30713Z" fill="black"/>
<path d="M455.003 43.4456H452.879V45.5697H455.003V43.4456Z" fill="black"/>
<path d="M455.003 9.44507H452.879V11.5692H455.003V9.44507Z" fill="black"/>
<path d="M452.878 41.3149H450.747V43.439H452.878V41.3149Z" fill="black"/>
<path d="M452.878 11.5615H450.747V13.6856H452.878V11.5615Z" fill="black"/>
<path d="M450.747 37.0605H448.624V41.3152H450.747V37.0605Z" fill="black"/>
<path d="M450.747 13.6926H448.624V17.94H450.747V13.6926Z" fill="black"/>
<path d="M488.006 54.064H489.938V52.1321H488.006V54.064Z" fill="black"/>
<path d="M489.938 52.1324H491.87V50.2004H489.938V52.1324Z" fill="black"/>
<path d="M493.802 48.2684H495.734V46.3364H493.802V48.2684Z" fill="black"/>
<path d="M491.869 50.2003H493.801V48.2683H491.869V50.2003Z" fill="black"/>
<path d="M495.733 46.3362H497.665V44.4043H495.733V46.3362Z" fill="black"/>
<path d="M499.598 40.5405C495.734 40.5405 491.87 40.5405 488.006 40.5405V42.4725C491.226 42.4725 494.446 42.4725 497.666 42.4725V44.4044H499.598C499.598 47.6243 499.598 50.8442 499.598 54.0641H501.529C501.529 49.5563 501.529 45.0484 501.529 40.5405H499.598Z" fill="black"/>
<path opacity="0.7" d="M439.066 78H437.355V66H444.211V66.8613H445.066V67.7168H445.922V72H445.066V72.8613H444.211V73.7168H439.066V78ZM439.066 72H443.355V71.1445H444.211V68.5723H443.355V67.7168H439.066V72ZM448.934 78H447.223V69.4336H448.934V70.2891H449.789V69.4336H451.934V71.1445H449.789V72H448.934V78ZM458.801 78H454.512V77.1445H453.656V76.2891H452.801V71.1445H453.656V70.2891H454.512V69.4336H458.801V70.2891H459.656V71.1445H460.512V76.2891H459.656V77.1445H458.801V78ZM455.367 76.2891H457.939V75.4336H458.801V72H457.939V71.1445H455.367V72H454.512V75.4336H455.367V76.2891ZM463.934 68.1445H462.223V66.4336H463.934V68.1445ZM463.078 81.4277H460.512V79.7109H462.223V69.4336H463.934V80.5664H463.078V81.4277ZM471.645 78H467.355V77.1445H466.5V76.2891H465.645V71.1445H466.5V70.2891H467.355V69.4336H471.645V70.2891H472.5V71.1445H473.355V74.1445H467.355V75.4336H468.211V76.2891H470.783V75.4336H473.355V76.2891H472.5V77.1445H471.645V78ZM467.355 72.8613H471.645V72H470.783V71.1445H468.211V72H467.355V72.8613ZM481.066 78H476.777V77.1445H475.922V76.2891H475.066V71.1445H475.922V70.2891H476.777V69.4336H481.066V70.2891H481.922V71.1445H482.777V72.8613H481.066V72H480.205V71.1445H477.633V72H476.777V75.4336H477.633V76.2891H480.205V75.4336H481.066V74.5723H482.777V76.2891H481.922V77.1445H481.066V78ZM488.35 78H485.777V77.1445H484.922V70.7168H483.639V69.4336H484.922V66.8613H486.639V69.4336H488.35V70.7168H486.639V76.2891H488.35V78ZM495.633 78H493.922V75.4336H494.777V74.5723H493.066V72.8613H494.777V71.1445H493.066V69.4336H494.777V68.5723H495.633V66H497.35V68.5723H496.494V69.4336H498.205V68.5723H499.066V66H500.777V68.5723H499.922V69.4336H501.633V71.1445H499.922V72.8613H501.633V74.5723H499.922V75.4336H499.066V78H497.35V75.4336H498.205V74.5723H496.494V75.4336H495.633V78ZM496.494 72.8613H498.205V71.1445H496.494V72.8613ZM510.211 78H508.494V75.4336H503.355V72.8613H504.211V71.1445H505.066V69.4336H505.922V67.7168H506.783V66H510.211V74.1445H511.066V75.4336H510.211V78ZM505.066 74.1445H508.494V67.7168H507.639V69.4336H506.783V71.1445H505.922V72.8613H505.066V74.1445Z" fill="black"/>
</g>
<g clip-path="url(#clip4_1857_22406)">
<path d="M635.498 17.9325V26.4345H624.874V15.8088H622.75V9.4378H620.627V15.8088H612.126V3.05946H614.249V5.18314H616.373V3.05946H620.627V0.935791H601.502V3.05946H605.748V5.18314H607.872V3.05946H610.003V15.8088H601.502V9.4378H599.378V15.8088H597.248V26.4345H586.623V17.9325H584.5V37.0602H586.623V28.5655H597.248V39.1912H599.378V45.5622H601.502V39.1912H610.003V51.9406H607.872V49.8169H605.748V51.9406H603.625V54.0642H618.503V51.9406H616.373V49.8169H614.249V51.9406H612.126V39.1912H620.627V45.5622H622.75V37.0602H624.874V28.5655H635.498V37.0602H637.628V17.9325H635.498ZM622.75 17.9325V26.4345H612.126V17.9325H622.75ZM599.378 17.9325H610.003V26.4345H599.378V17.9325ZM599.378 37.0602V28.5655H610.003V37.0602H599.378ZM622.75 37.0602H612.126V28.5655H622.75V37.0602Z" fill="black"/>
<path d="M635.497 13.6926H633.374V17.94H635.497V13.6926Z" fill="black"/>
<path d="M633.374 11.5615H631.25V13.6856H633.374V11.5615Z" fill="black"/>
<path d="M631.251 9.44507H629.127V11.5692H631.251V9.44507Z" fill="black"/>
<path d="M631.251 13.6926H624.873V15.8163H631.251V13.6926Z" fill="black"/>
<path d="M629.126 7.30713H626.995V9.43855H629.126V7.30713Z" fill="black"/>
<path d="M626.997 5.19067H624.873V7.31477H626.997V5.19067Z" fill="black"/>
<path d="M622.658 49.8169H618.504V51.9406H622.658V49.8169Z" fill="black"/>
<path d="M624.873 3.05957H620.626V5.18324H624.873V3.05957Z" fill="black"/>
<path d="M620.628 45.5623H618.504V47.6937H620.628V45.5623Z" fill="black"/>
<path d="M620.628 7.30713H618.504V9.43855H620.628V7.30713Z" fill="black"/>
<path d="M618.502 47.7007H616.371V49.8248H618.502V47.7007Z" fill="black"/>
<path d="M618.502 5.19067H616.371V7.31477H618.502V5.19067Z" fill="black"/>
<path d="M605.748 47.7007H603.624V49.8248H605.748V47.7007Z" fill="black"/>
<path d="M605.748 5.19067H603.624V7.31477H605.748V5.19067Z" fill="black"/>
<path d="M603.626 49.8169H597.248V51.9406H603.626V49.8169Z" fill="black"/>
<path d="M603.627 45.5623H601.503V47.6937H603.627V45.5623Z" fill="black"/>
<path d="M603.627 7.30713H601.503V9.43855H603.627V7.30713Z" fill="black"/>
<path d="M601.502 3.05957H597.248V5.18324H601.502V3.05957Z" fill="black"/>
<path d="M597.25 47.7007H595.126V49.8248H597.25V47.7007Z" fill="black"/>
<path d="M597.249 13.6926H590.879V15.8163H597.249V13.6926Z" fill="black"/>
<path d="M597.25 5.19067H595.126V7.31477H597.25V5.19067Z" fill="black"/>
<path d="M595.125 45.5623H593.001V47.6937H595.125V45.5623Z" fill="black"/>
<path d="M597.249 39.1987H590.879V41.3224H597.249V39.1987Z" fill="black"/>
<path d="M595.125 7.30713H593.001V9.43855H595.125V7.30713Z" fill="black"/>
<path d="M593.003 43.4456H590.879V45.5697H593.003V43.4456Z" fill="black"/>
<path d="M593.003 9.44507H590.879V11.5692H593.003V9.44507Z" fill="black"/>
<path d="M590.878 41.3149H588.747V43.439H590.878V41.3149Z" fill="black"/>
<path d="M590.878 11.5615H588.747V13.6856H590.878V11.5615Z" fill="black"/>
<path d="M588.747 37.0605H586.624V41.3152H588.747V37.0605Z" fill="black"/>
<path d="M588.747 13.6926H586.624V17.94H588.747V13.6926Z" fill="black"/>
<path d="M626.006 54.064H627.938V52.1321H626.006V54.064Z" fill="black"/>
<path d="M627.938 52.1324H629.87V50.2004H627.938V52.1324Z" fill="black"/>
<path d="M631.802 48.2684H633.734V46.3364H631.802V48.2684Z" fill="black"/>
<path d="M629.869 50.2003H631.801V48.2683H629.869V50.2003Z" fill="black"/>
<path d="M633.733 46.3362H635.665V44.4043H633.733V46.3362Z" fill="black"/>
<path d="M637.598 40.5405C633.734 40.5405 629.87 40.5405 626.006 40.5405V42.4725C629.226 42.4725 632.446 42.4725 635.666 42.4725V44.4044H637.598C637.598 47.6243 637.598 50.8442 637.598 54.0641H639.529C639.529 49.5563 639.529 45.0484 639.529 40.5405H637.598Z" fill="black"/>
<path opacity="0.7" d="M576.855 78H575.145V66H582V66.8613H582.855V67.7168H583.711V72H582.855V72.8613H582V73.7168H576.855V78ZM576.855 72H581.145V71.1445H582V68.5723H581.145V67.7168H576.855V72ZM586.723 78H585.012V69.4336H586.723V70.2891H587.578V69.4336H589.723V71.1445H587.578V72H586.723V78ZM596.59 78H592.301V77.1445H591.445V76.2891H590.59V71.1445H591.445V70.2891H592.301V69.4336H596.59V70.2891H597.445V71.1445H598.301V76.2891H597.445V77.1445H596.59V78ZM593.156 76.2891H595.729V75.4336H596.59V72H595.729V71.1445H593.156V72H592.301V75.4336H593.156V76.2891ZM601.723 68.1445H600.012V66.4336H601.723V68.1445ZM600.867 81.4277H598.301V79.7109H600.012V69.4336H601.723V80.5664H600.867V81.4277ZM609.434 78H605.145V77.1445H604.289V76.2891H603.434V71.1445H604.289V70.2891H605.145V69.4336H609.434V70.2891H610.289V71.1445H611.145V74.1445H605.145V75.4336H606V76.2891H608.572V75.4336H611.145V76.2891H610.289V77.1445H609.434V78ZM605.145 72.8613H609.434V72H608.572V71.1445H606V72H605.145V72.8613ZM618.855 78H614.566V77.1445H613.711V76.2891H612.855V71.1445H613.711V70.2891H614.566V69.4336H618.855V70.2891H619.711V71.1445H620.566V72.8613H618.855V72H617.994V71.1445H615.422V72H614.566V75.4336H615.422V76.2891H617.994V75.4336H618.855V74.5723H620.566V76.2891H619.711V77.1445H618.855V78ZM626.139 78H623.566V77.1445H622.711V70.7168H621.428V69.4336H622.711V66.8613H624.428V69.4336H626.139V70.7168H624.428V76.2891H626.139V78ZM633.422 78H631.711V75.4336H632.566V74.5723H630.855V72.8613H632.566V71.1445H630.855V69.4336H632.566V68.5723H633.422V66H635.139V68.5723H634.283V69.4336H635.994V68.5723H636.855V66H638.566V68.5723H637.711V69.4336H639.422V71.1445H637.711V72.8613H639.422V74.5723H637.711V75.4336H636.855V78H635.139V75.4336H635.994V74.5723H634.283V75.4336H633.422V78ZM634.283 72.8613H635.994V71.1445H634.283V72.8613ZM647.145 78H642.855V77.1445H642V76.2891H641.145V74.5723H642.855V75.4336H643.711V76.2891H646.283V75.4336H647.145V72.8613H646.283V72H643.711V72.8613H641.145V68.5723H642V66H648V67.7168H643.711V68.5723H642.855V71.1445H643.711V70.2891H647.145V71.1445H648V72H648.855V76.2891H648V77.1445H647.145V78Z" fill="black"/>
</g>
<g clip-path="url(#clip5_1857_22406)">
<path d="M83.4977 147.932V156.435H72.8735V145.809H70.7501V139.438H68.6267V145.809H60.1259V133.059H62.2493V135.183H64.3727V133.059H68.6267V130.936H49.5017V133.059H53.7484V135.183H55.8718V133.059H58.0025V145.809H49.5017V139.438H47.3783V145.809H45.2476V156.435H34.6234V147.932H32.5V167.06H34.6234V158.566H45.2476V169.191H47.3783V175.562H49.5017V169.191H58.0025V181.941H55.8718V179.817H53.7484V181.941H51.6251V184.064H66.5034V181.941H64.3727V179.817H62.2493V181.941H60.1259V169.191H68.6267V175.562H70.7501V167.06H72.8735V158.566H83.4977V167.06H85.6284V147.932H83.4977ZM70.7501 147.932V156.435H60.1259V147.932H70.7501ZM47.3783 147.932H58.0025V156.435H47.3783V147.932ZM47.3783 167.06V158.566H58.0025V167.06H47.3783ZM70.7501 167.06H60.1259V158.566H70.7501V167.06Z" fill="black"/>
<path d="M83.4974 143.693H81.374V147.94H83.4974V143.693Z" fill="black"/>
<path d="M81.3738 141.562H79.25V143.686H81.3738V141.562Z" fill="black"/>
<path d="M79.2508 139.445H77.127V141.569H79.2508V139.445Z" fill="black"/>
<path d="M79.2505 143.693H72.873V145.816H79.2505V143.693Z" fill="black"/>
<path d="M77.1262 137.307H74.9951V139.439H77.1262V137.307Z" fill="black"/>
<path d="M74.9968 135.191H72.873V137.315H74.9968V135.191Z" fill="black"/>
<path d="M70.6576 179.817H66.5039V181.941H70.6576V179.817Z" fill="black"/>
<path d="M72.8727 133.06H68.626V135.183H72.8727V133.06Z" fill="black"/>
<path d="M68.6277 175.562H66.5039V177.694H68.6277V175.562Z" fill="black"/>
<path d="M68.6277 137.307H66.5039V139.439H68.6277V137.307Z" fill="black"/>
<path d="M66.5022 177.701H64.3711V179.825H66.5022V177.701Z" fill="black"/>
<path d="M66.5022 135.191H64.3711V137.315H66.5022V135.191Z" fill="black"/>
<path d="M53.7478 177.701H51.624V179.825H53.7478V177.701Z" fill="black"/>
<path d="M53.7478 135.191H51.624V137.315H53.7478V135.191Z" fill="black"/>
<path d="M51.6255 179.817H45.248V181.941H51.6255V179.817Z" fill="black"/>
<path d="M51.6267 175.562H49.5029V177.694H51.6267V175.562Z" fill="black"/>
<path d="M51.6267 137.307H49.5029V139.439H51.6267V137.307Z" fill="black"/>
<path d="M49.5021 133.06H45.248V135.183H49.5021V133.06Z" fill="black"/>
<path d="M45.2498 177.701H43.126V179.825H45.2498V177.701Z" fill="black"/>
<path d="M45.249 143.693H38.8789V145.816H45.249V143.693Z" fill="black"/>
<path d="M45.2498 135.191H43.126V137.315H45.2498V135.191Z" fill="black"/>
<path d="M43.1248 175.562H41.001V177.694H43.1248V175.562Z" fill="black"/>
<path d="M45.249 169.199H38.8789V171.322H45.249V169.199Z" fill="black"/>
<path d="M43.1248 137.307H41.001V139.439H43.1248V137.307Z" fill="black"/>
<path d="M41.0027 173.446H38.8789V175.57H41.0027V173.446Z" fill="black"/>
<path d="M41.0027 139.445H38.8789V141.569H41.0027V139.445Z" fill="black"/>
<path d="M38.8782 171.315H36.7471V173.439H38.8782V171.315Z" fill="black"/>
<path d="M38.8782 141.562H36.7471V143.686H38.8782V141.562Z" fill="black"/>
<path d="M36.7474 167.061H34.624V171.315H36.7474V167.061Z" fill="black"/>
<path d="M36.7474 143.693H34.624V147.94H36.7474V143.693Z" fill="black"/>
<path d="M74.0059 184.064H75.9378V182.132H74.0059V184.064Z" fill="black"/>
<path d="M75.9385 182.132H77.8704V180.2H75.9385V182.132Z" fill="black"/>
<path d="M79.8018 178.268H81.7337V176.336H79.8018V178.268Z" fill="black"/>
<path d="M77.8691 180.2H79.8011V178.268H77.8691V180.2Z" fill="black"/>
<path d="M81.7334 176.336H83.6653V174.404H81.7334V176.336Z" fill="black"/>
<path d="M85.5975 170.541C81.7336 170.541 77.8697 170.541 74.0059 170.541V172.472C77.2258 172.472 80.4457 172.472 83.6656 172.472V174.404H85.5975C85.5975 177.624 85.5975 180.844 85.5975 184.064H87.5295C87.5295 179.556 87.5295 175.048 87.5295 170.541H85.5975Z" fill="black"/>
<path opacity="0.7" d="M24.8555 208H23.1445V196H30V196.861H30.8555V197.717H31.7109V202H30.8555V202.861H30V203.717H24.8555V208ZM24.8555 202H29.1445V201.145H30V198.572H29.1445V197.717H24.8555V202ZM34.7227 208H33.0117V199.434H34.7227V200.289H35.5781V199.434H37.7227V201.145H35.5781V202H34.7227V208ZM44.5898 208H40.3008V207.145H39.4453V206.289H38.5898V201.145H39.4453V200.289H40.3008V199.434H44.5898V200.289H45.4453V201.145H46.3008V206.289H45.4453V207.145H44.5898V208ZM41.1562 206.289H43.7285V205.434H44.5898V202H43.7285V201.145H41.1562V202H40.3008V205.434H41.1562V206.289ZM49.7227 198.145H48.0117V196.434H49.7227V198.145ZM48.8672 211.428H46.3008V209.711H48.0117V199.434H49.7227V210.566H48.8672V211.428ZM57.4336 208H53.1445V207.145H52.2891V206.289H51.4336V201.145H52.2891V200.289H53.1445V199.434H57.4336V200.289H58.2891V201.145H59.1445V204.145H53.1445V205.434H54V206.289H56.5723V205.434H59.1445V206.289H58.2891V207.145H57.4336V208ZM53.1445 202.861H57.4336V202H56.5723V201.145H54V202H53.1445V202.861ZM66.8555 208H62.5664V207.145H61.7109V206.289H60.8555V201.145H61.7109V200.289H62.5664V199.434H66.8555V200.289H67.7109V201.145H68.5664V202.861H66.8555V202H65.9941V201.145H63.4219V202H62.5664V205.434H63.4219V206.289H65.9941V205.434H66.8555V204.572H68.5664V206.289H67.7109V207.145H66.8555V208ZM74.1387 208H71.5664V207.145H70.7109V200.717H69.4277V199.434H70.7109V196.861H72.4277V199.434H74.1387V200.717H72.4277V206.289H74.1387V208ZM81.4219 208H79.7109V205.434H80.5664V204.572H78.8555V202.861H80.5664V201.145H78.8555V199.434H80.5664V198.572H81.4219V196H83.1387V198.572H82.2832V199.434H83.9941V198.572H84.8555V196H86.5664V198.572H85.7109V199.434H87.4219V201.145H85.7109V202.861H87.4219V204.572H85.7109V205.434H84.8555V208H83.1387V205.434H83.9941V204.572H82.2832V205.434H81.4219V208ZM82.2832 202.861H83.9941V201.145H82.2832V202.861ZM95.1445 208H90.8555V207.145H90V206.289H89.1445V197.717H90V196.861H90.8555V196H95.1445V196.861H96V197.717H96.8555V199.434H95.1445V198.572H94.2832V197.717H91.7109V198.572H90.8555V201.145H91.7109V200.289H95.1445V201.145H96V202H96.8555V206.289H96V207.145H95.1445V208ZM91.7109 206.289H94.2832V205.434H95.1445V202.861H94.2832V202H91.7109V202.861H90.8555V205.434H91.7109V206.289Z" fill="black"/>
</g>
<g clip-path="url(#clip6_1857_22406)">
<path d="M221.498 147.932V156.435H210.874V145.809H208.75V139.438H206.627V145.809H198.126V133.059H200.249V135.183H202.373V133.059H206.627V130.936H187.502V133.059H191.748V135.183H193.872V133.059H196.003V145.809H187.502V139.438H185.378V145.809H183.248V156.435H172.623V147.932H170.5V167.06H172.623V158.566H183.248V169.191H185.378V175.562H187.502V169.191H196.003V181.941H193.872V179.817H191.748V181.941H189.625V184.064H204.503V181.941H202.373V179.817H200.249V181.941H198.126V169.191H206.627V175.562H208.75V167.06H210.874V158.566H221.498V167.06H223.628V147.932H221.498ZM208.75 147.932V156.435H198.126V147.932H208.75ZM185.378 147.932H196.003V156.435H185.378V147.932ZM185.378 167.06V158.566H196.003V167.06H185.378ZM208.75 167.06H198.126V158.566H208.75V167.06Z" fill="black"/>
<path d="M221.497 143.693H219.374V147.94H221.497V143.693Z" fill="black"/>
<path d="M219.374 141.562H217.25V143.686H219.374V141.562Z" fill="black"/>
<path d="M217.251 139.445H215.127V141.569H217.251V139.445Z" fill="black"/>
<path d="M217.251 143.693H210.873V145.816H217.251V143.693Z" fill="black"/>
<path d="M215.126 137.307H212.995V139.439H215.126V137.307Z" fill="black"/>
<path d="M212.997 135.191H210.873V137.315H212.997V135.191Z" fill="black"/>
<path d="M208.658 179.817H204.504V181.941H208.658V179.817Z" fill="black"/>
<path d="M210.873 133.06H206.626V135.183H210.873V133.06Z" fill="black"/>
<path d="M206.628 175.562H204.504V177.694H206.628V175.562Z" fill="black"/>
<path d="M206.628 137.307H204.504V139.439H206.628V137.307Z" fill="black"/>
<path d="M204.502 177.701H202.371V179.825H204.502V177.701Z" fill="black"/>
<path d="M204.502 135.191H202.371V137.315H204.502V135.191Z" fill="black"/>
<path d="M191.748 177.701H189.624V179.825H191.748V177.701Z" fill="black"/>
<path d="M191.748 135.191H189.624V137.315H191.748V135.191Z" fill="black"/>
<path d="M189.626 179.817H183.248V181.941H189.626V179.817Z" fill="black"/>
<path d="M189.627 175.562H187.503V177.694H189.627V175.562Z" fill="black"/>
<path d="M189.627 137.307H187.503V139.439H189.627V137.307Z" fill="black"/>
<path d="M187.502 133.06H183.248V135.183H187.502V133.06Z" fill="black"/>
<path d="M183.25 177.701H181.126V179.825H183.25V177.701Z" fill="black"/>
<path d="M183.249 143.693H176.879V145.816H183.249V143.693Z" fill="black"/>
<path d="M183.25 135.191H181.126V137.315H183.25V135.191Z" fill="black"/>
<path d="M181.125 175.562H179.001V177.694H181.125V175.562Z" fill="black"/>
<path d="M183.249 169.199H176.879V171.322H183.249V169.199Z" fill="black"/>
<path d="M181.125 137.307H179.001V139.439H181.125V137.307Z" fill="black"/>
<path d="M179.003 173.446H176.879V175.57H179.003V173.446Z" fill="black"/>
<path d="M179.003 139.445H176.879V141.569H179.003V139.445Z" fill="black"/>
<path d="M176.878 171.315H174.747V173.439H176.878V171.315Z" fill="black"/>
<path d="M176.878 141.562H174.747V143.686H176.878V141.562Z" fill="black"/>
<path d="M174.747 167.061H172.624V171.315H174.747V167.061Z" fill="black"/>
<path d="M174.747 143.693H172.624V147.94H174.747V143.693Z" fill="black"/>
<path d="M212.006 184.064H213.938V182.132H212.006V184.064Z" fill="black"/>
<path d="M213.938 182.132H215.87V180.2H213.938V182.132Z" fill="black"/>
<path d="M217.802 178.268H219.734V176.336H217.802V178.268Z" fill="black"/>
<path d="M215.869 180.2H217.801V178.268H215.869V180.2Z" fill="black"/>
<path d="M219.733 176.336H221.665V174.404H219.733V176.336Z" fill="black"/>
<path d="M223.598 170.541C219.734 170.541 215.87 170.541 212.006 170.541V172.472C215.226 172.472 218.446 172.472 221.666 172.472V174.404H223.598C223.598 177.624 223.598 180.844 223.598 184.064H225.529C225.529 179.556 225.529 175.048 225.529 170.541H223.598Z" fill="black"/>
<path opacity="0.7" d="M163.277 208H161.566V196H168.422V196.861H169.277V197.717H170.133V202H169.277V202.861H168.422V203.717H163.277V208ZM163.277 202H167.566V201.145H168.422V198.572H167.566V197.717H163.277V202ZM173.145 208H171.434V199.434H173.145V200.289H174V199.434H176.145V201.145H174V202H173.145V208ZM183.012 208H178.723V207.145H177.867V206.289H177.012V201.145H177.867V200.289H178.723V199.434H183.012V200.289H183.867V201.145H184.723V206.289H183.867V207.145H183.012V208ZM179.578 206.289H182.15V205.434H183.012V202H182.15V201.145H179.578V202H178.723V205.434H179.578V206.289ZM188.145 198.145H186.434V196.434H188.145V198.145ZM187.289 211.428H184.723V209.711H186.434V199.434H188.145V210.566H187.289V211.428ZM195.855 208H191.566V207.145H190.711V206.289H189.855V201.145H190.711V200.289H191.566V199.434H195.855V200.289H196.711V201.145H197.566V204.145H191.566V205.434H192.422V206.289H194.994V205.434H197.566V206.289H196.711V207.145H195.855V208ZM191.566 202.861H195.855V202H194.994V201.145H192.422V202H191.566V202.861ZM205.277 208H200.988V207.145H200.133V206.289H199.277V201.145H200.133V200.289H200.988V199.434H205.277V200.289H206.133V201.145H206.988V202.861H205.277V202H204.416V201.145H201.844V202H200.988V205.434H201.844V206.289H204.416V205.434H205.277V204.572H206.988V206.289H206.133V207.145H205.277V208ZM212.561 208H209.988V207.145H209.133V200.717H207.85V199.434H209.133V196.861H210.85V199.434H212.561V200.717H210.85V206.289H212.561V208ZM219.844 208H218.133V205.434H218.988V204.572H217.277V202.861H218.988V201.145H217.277V199.434H218.988V198.572H219.844V196H221.561V198.572H220.705V199.434H222.416V198.572H223.277V196H224.988V198.572H224.133V199.434H225.844V201.145H224.133V202.861H225.844V204.572H224.133V205.434H223.277V208H221.561V205.434H222.416V204.572H220.705V205.434H219.844V208ZM220.705 202.861H222.416V201.145H220.705V202.861ZM230.566 208H228.85V204.572H229.705V202H230.566V200.289H231.422V199.434H232.277V198.572H233.139V197.717H227.139V196H234.85V199.434H233.994V200.289H233.139V201.145H232.277V202.861H231.422V204.572H230.566V208Z" fill="black"/>
</g>
<defs>
<clipPath id="clip0_1857_22406">
<rect width="120" height="82" fill="white"/>
</clipPath>
<clipPath id="clip1_1857_22406">
<rect width="120" height="82" fill="white" transform="translate(138)"/>
</clipPath>
<clipPath id="clip2_1857_22406">
<rect width="120" height="82" fill="white" transform="translate(276)"/>
</clipPath>
<clipPath id="clip3_1857_22406">
<rect width="120" height="82" fill="white" transform="translate(414)"/>
</clipPath>
<clipPath id="clip4_1857_22406">
<rect width="120" height="82" fill="white" transform="translate(552)"/>
</clipPath>
<clipPath id="clip5_1857_22406">
<rect width="120" height="82" fill="white" transform="translate(0 130)"/>
</clipPath>
<clipPath id="clip6_1857_22406">
<rect width="120" height="82" fill="white" transform="translate(138 130)"/>
</clipPath>
</defs>
</svg>
