<svg width="16" height="16" viewBox="0 0 16 16" fill="none" xmlns="http://www.w3.org/2000/svg">
<path d="M12.924 15.3845H12.3086V15.9999H12.924V15.3845Z" fill="#ABFF84"/>
<path d="M12.3068 15.3845H11.6914V15.9999H12.3068V15.3845Z" fill="#ABFF84"/>
<path d="M11.6916 15.3845H11.0762V15.9999H11.6916V15.3845Z" fill="#ABFF84"/>
<path d="M5.53921 15.3845H4.92383V15.9999H5.53921V15.3845Z" fill="#72F56F"/>
<path d="M4.92398 15.3845H4.30859V15.9999H4.92398V15.3845Z" fill="#72F56F"/>
<path d="M4.30679 15.3845H3.69141V15.9999H4.30679V15.3845Z" fill="#68F46B"/>
<path d="M3.69156 15.3845H3.07617V15.9999H3.69156V15.3845Z" fill="#5EF268"/>
<path d="M14.1544 14.7693H13.5391V15.3847H14.1544V14.7693Z" fill="#ABFF84"/>
<path d="M13.5392 14.7693H12.9238V15.3847H13.5392V14.7693Z" fill="#ABFF84"/>
<path d="M12.924 14.7693H12.3086V15.3847H12.924V14.7693Z" fill="#ABFF84"/>
<path d="M12.3068 14.7693H11.6914V15.3847H12.3068V14.7693Z" fill="#ABFF84"/>
<path d="M11.6916 14.7693H11.0762V15.3847H11.6916V14.7693Z" fill="#ABFF84"/>
<path d="M11.0763 14.7693H10.4609V15.3847H11.0763V14.7693Z" fill="#ABFF84"/>
<path d="M10.4611 14.7693H9.8457V15.3847H10.4611V14.7693Z" fill="#ABFF84"/>
<path d="M6.76968 14.7693H6.1543V15.3847H6.76968V14.7693Z" fill="#87F374"/>
<path d="M6.15445 14.7693H5.53906V15.3847H6.15445V14.7693Z" fill="#81F874"/>
<path d="M5.53921 14.7693H4.92383V15.3847H5.53921V14.7693Z" fill="#77F670"/>
<path d="M4.92398 14.7693H4.30859V15.3847H4.92398V14.7693Z" fill="#6EF56D"/>
<path d="M4.30679 14.7693H3.69141V15.3847H4.30679V14.7693Z" fill="#64F369"/>
<path d="M3.69156 14.7693H3.07617V15.3847H3.69156V14.7693Z" fill="#5AF166"/>
<path d="M3.07632 14.7693H2.46094V15.3847H3.07632V14.7693Z" fill="#50F062"/>
<path d="M2.46109 14.7693H1.8457V15.3847H2.46109V14.7693Z" fill="#46EE5F"/>
<path d="M14.7697 14.1538H14.1543V14.7692H14.7697V14.1538Z" fill="#ABFF84"/>
<path d="M14.1544 14.1538H13.5391V14.7692H14.1544V14.1538Z" fill="#ABFF84"/>
<path d="M13.5392 14.1538H12.9238V14.7692H13.5392V14.1538Z" fill="#ABFF84"/>
<path d="M12.924 14.1538H12.3086V14.7692H12.924V14.1538Z" fill="#ABFF84"/>
<path d="M12.3068 14.1538H11.6914V14.7692H12.3068V14.1538Z" fill="#ABFF84"/>
<path d="M11.6916 14.1538H11.0762V14.7692H11.6916V14.1538Z" fill="#ABFF84"/>
<path d="M11.0763 14.1538H10.4609V14.7692H11.0763V14.1538Z" fill="#ABFF84"/>
<path d="M10.4611 14.1538H9.8457V14.7692H10.4611V14.1538Z" fill="#ABFF84"/>
<path d="M9.84585 14.1538H9.23047V14.7692H9.84585V14.1538Z" fill="#ABFF84"/>
<path d="M7.38492 14.1538H6.76953V14.7692H7.38492V14.1538Z" fill="#90FB7A"/>
<path d="M6.76968 14.1538H6.1543V14.7692H6.76968V14.1538Z" fill="#86F976"/>
<path d="M6.15445 14.1538H5.53906V14.7692H6.15445V14.1538Z" fill="#7CF773"/>
<path d="M5.53921 14.1538H4.92383V14.7692H5.53921V14.1538Z" fill="#73F66F"/>
<path d="M4.92398 14.1538H4.30859V14.7692H4.92398V14.1538Z" fill="#69F46B"/>
<path d="M4.30679 14.1538H3.69141V14.7692H4.30679V14.1538Z" fill="#5FF269"/>
<path d="M3.69156 14.1538H3.07617V14.7692H3.69156V14.1538Z" fill="#55F164"/>
<path d="M3.07632 14.1538H2.46094V14.7692H3.07632V14.1538Z" fill="#4BEF60"/>
<path d="M2.46109 14.1538H1.8457V14.7692H2.46109V14.1538Z" fill="#42ED5D"/>
<path d="M1.84585 14.1538H1.23047V14.7692H1.84585V14.1538Z" fill="#38EC59"/>
<path d="M15.3849 13.5386H14.7695V14.154H15.3849V13.5386Z" fill="#ABFF84"/>
<path d="M14.7697 13.5386H14.1543V14.154H14.7697V13.5386Z" fill="#ABFF84"/>
<path d="M14.1544 13.5386H13.5391V14.154H14.1544V13.5386Z" fill="#ABFF84"/>
<path d="M13.5392 13.5386H12.9238V14.154H13.5392V13.5386Z" fill="#ABFF84"/>
<path d="M12.924 13.5386H12.3086V14.154H12.924V13.5386Z" fill="#ABFF84"/>
<path d="M12.3068 13.5386H11.6914V14.154H12.3068V13.5386Z" fill="#ABFF84"/>
<path d="M11.6916 13.5386H11.0762V14.154H11.6916V13.5386Z" fill="#ABFF84"/>
<path d="M11.0763 13.5386H10.4609V14.154H11.0763V13.5386Z" fill="#ABFF84"/>
<path d="M10.4611 13.5386H9.8457V14.154H10.4611V13.5386Z" fill="#ABFF84"/>
<path d="M9.84585 13.5386H9.23047V14.154H9.84585V13.5386Z" fill="#ABFF84"/>
<path d="M9.23062 13.5386H8.61523V14.154H9.23062V13.5386Z" fill="#A9FF83"/>
<path d="M7.38492 13.5386H6.76953V14.154H7.38492V13.5386Z" fill="#8CFA78"/>
<path d="M6.76968 13.5386H6.1543V14.154H6.76968V13.5386Z" fill="#82F875"/>
<path d="M6.15445 13.5386H5.53906V14.154H6.15445V13.5386Z" fill="#78F671"/>
<path d="M5.53921 13.5386H4.92383V14.154H5.53921V13.5386Z" fill="#6FF56D"/>
<path d="M4.92398 13.5386H4.30859V14.154H4.92398V13.5386Z" fill="#65F36A"/>
<path d="M4.30679 13.5386H3.69141V14.154H4.30679V13.5386Z" fill="#5BF266"/>
<path d="M3.69156 13.5386H3.07617V14.154H3.69156V13.5386Z" fill="#51F062"/>
<path d="M3.07632 13.5386H2.46094V14.154H3.07632V13.5386Z" fill="#47EE5F"/>
<path d="M2.46109 13.5386H1.8457V14.154H2.46109V13.5386Z" fill="#3DED5B"/>
<path d="M1.84585 13.5386H1.23047V14.154H1.84585V13.5386Z" fill="#34EB58"/>
<path d="M1.23062 13.5386H0.615234V14.154H1.23062V13.5386Z" fill="#2AE953"/>
<path d="M15.3849 12.9231H14.7695V13.5385H15.3849V12.9231Z" fill="#ABFF84"/>
<path d="M14.7697 12.9231H14.1543V13.5385H14.7697V12.9231Z" fill="#ABFF84"/>
<path d="M14.1544 12.9231H13.5391V13.5385H14.1544V12.9231Z" fill="#ABFF84"/>
<path d="M13.5392 12.9231H12.9238V13.5385H13.5392V12.9231Z" fill="#ABFF84"/>
<path d="M12.924 12.9231H12.3086V13.5385H12.924V12.9231Z" fill="#ABFF84"/>
<path d="M12.3068 12.9231H11.6914V13.5385H12.3068V12.9231Z" fill="#ABFF84"/>
<path d="M11.6916 12.9231H11.0762V13.5385H11.6916V12.9231Z" fill="#ABFF84"/>
<path d="M11.0763 12.9231H10.4609V13.5385H11.0763V12.9231Z" fill="#ABFF84"/>
<path d="M10.4611 12.9231H9.8457V13.5385H10.4611V12.9231Z" fill="#ABFF84"/>
<path d="M9.84585 12.9231H9.23047V13.5385H9.84585V12.9231Z" fill="#ABFF84"/>
<path d="M9.23062 12.9231H8.61523V13.5385H9.23062V12.9231Z" fill="#A5FE82"/>
<path d="M8.00015 12.9231H7.38477V13.5385H8.00015V12.9231Z" fill="#91FB7B"/>
<path d="M7.38492 12.9231H6.76953V13.5385H7.38492V12.9231Z" fill="#87F977"/>
<path d="M6.76968 12.9231H6.1543V13.5385H6.76968V12.9231Z" fill="#7EF773"/>
<path d="M6.15445 12.9231H5.53906V13.5385H6.15445V12.9231Z" fill="#74F670"/>
<path d="M5.53921 12.9231H4.92383V13.5385H5.53921V12.9231Z" fill="#6BF46C"/>
<path d="M4.92398 12.9231H4.30859V13.5385H4.92398V12.9231Z" fill="#60F269"/>
<path d="M4.30679 12.9231H3.69141V13.5385H4.30679V12.9231Z" fill="#56F164"/>
<path d="M3.69156 12.9231H3.07617V13.5385H3.69156V12.9231Z" fill="#4CEF60"/>
<path d="M3.07632 12.9231H2.46094V13.5385H3.07632V12.9231Z" fill="#43EE5D"/>
<path d="M2.46109 12.9231H1.8457V13.5385H2.46109V12.9231Z" fill="#39EC59"/>
<path d="M1.84585 12.9231H1.23047V13.5385H1.84585V12.9231Z" fill="#2FEA56"/>
<path d="M1.23062 12.9231H0.615234V13.5385H1.23062V12.9231Z" fill="#26E952"/>
<path d="M16.0002 12.3076H15.3848V12.923H16.0002V12.3076Z" fill="#ABFF84"/>
<path d="M15.3849 12.3076H14.7695V12.923H15.3849V12.3076Z" fill="#ABFF84"/>
<path d="M14.7697 12.3076H14.1543V12.923H14.7697V12.3076Z" fill="#ABFF84"/>
<path d="M14.1544 12.3076H13.5391V12.923H14.1544V12.3076Z" fill="#ABFF84"/>
<path d="M13.5392 12.3076H12.9238V12.923H13.5392V12.3076Z" fill="#ABFF84"/>
<path d="M12.924 12.3076H12.3086V12.923H12.924V12.3076Z" fill="#ABFF84"/>
<path d="M12.3068 12.3076H11.6914V12.923H12.3068V12.3076Z" fill="#ABFF84"/>
<path d="M11.6916 12.3076H11.0762V12.923H11.6916V12.3076Z" fill="#ABFF84"/>
<path d="M11.0763 12.3076H10.4609V12.923H11.0763V12.3076Z" fill="#ABFF84"/>
<path d="M10.4611 12.3076H9.8457V12.923H10.4611V12.3076Z" fill="#ABFF84"/>
<path d="M9.84585 12.3076H9.23047V12.923H9.84585V12.3076Z" fill="#AAFF84"/>
<path d="M9.23062 12.3076H8.61523V12.923H9.23062V12.3076Z" fill="#A0FD80"/>
<path d="M8.61538 12.3076H8V12.923H8.61538V12.3076Z" fill="#96FC7C"/>
<path d="M8.00015 12.3076H7.38477V12.923H8.00015V12.3076Z" fill="#8DFA79"/>
<path d="M7.38492 12.3076H6.76953V12.923H7.38492V12.3076Z" fill="#83F875"/>
<path d="M6.76968 12.3076H6.1543V12.923H6.76968V12.3076Z" fill="#79F772"/>
<path d="M6.15445 12.3076H5.53906V12.923H6.15445V12.3076Z" fill="#70F56E"/>
<path d="M5.53921 12.3076H4.92383V12.923H5.53921V12.3076Z" fill="#66F36A"/>
<path d="M4.92398 12.3076H4.30859V12.923H4.92398V12.3076Z" fill="#5CF267"/>
<path d="M4.30679 12.3076H3.69141V12.923H4.30679V12.3076Z" fill="#52F063"/>
<path d="M3.69156 12.3076H3.07617V12.923H3.69156V12.3076Z" fill="#47EE5F"/>
<path d="M3.07632 12.3076H2.46094V12.923H3.07632V12.3076Z" fill="#3EED5B"/>
<path d="M2.46109 12.3076H1.8457V12.923H2.46109V12.3076Z" fill="#35EB58"/>
<path d="M1.84585 12.3076H1.23047V12.923H1.84585V12.3076Z" fill="#2BEA54"/>
<path d="M1.23062 12.3076H0.615234V12.923H1.23062V12.3076Z" fill="#20E851"/>
<path d="M0.615385 12.3076H0V12.923H0.615385V12.3076Z" fill="#17E64D"/>
<path d="M16.0002 11.6924H15.3848V12.3078H16.0002V11.6924Z" fill="#ABFF84"/>
<path d="M15.3849 11.6924H14.7695V12.3078H15.3849V11.6924Z" fill="#ABFF84"/>
<path d="M14.7697 11.6924H14.1543V12.3078H14.7697V11.6924Z" fill="#ABFF84"/>
<path d="M14.1544 11.6924H13.5391V12.3078H14.1544V11.6924Z" fill="#ABFF84"/>
<path d="M13.5392 11.6924H12.9238V12.3078H13.5392V11.6924Z" fill="#ABFF84"/>
<path d="M12.924 11.6924H12.3086V12.3078H12.924V11.6924Z" fill="#ABFF84"/>
<path d="M12.3068 11.6924H11.6914V12.3078H12.3068V11.6924Z" fill="#ABFF84"/>
<path d="M11.6916 11.6924H11.0762V12.3078H11.6916V11.6924Z" fill="#ABFF84"/>
<path d="M11.0763 11.6924H10.4609V12.3078H11.0763V11.6924Z" fill="#ABFF84"/>
<path d="M10.4611 11.6924H9.8457V12.3078H10.4611V11.6924Z" fill="#ABFF84"/>
<path d="M9.84585 11.6924H9.23047V12.3078H9.84585V11.6924Z" fill="#A6FE82"/>
<path d="M9.23062 11.6924H8.61523V12.3078H9.23062V11.6924Z" fill="#9CFC7E"/>
<path d="M8.61538 11.6924H8V12.3078H8.61538V11.6924Z" fill="#92FB7B"/>
<path d="M8.00015 11.6924H7.38477V12.3078H8.00015V11.6924Z" fill="#88F977"/>
<path d="M7.38492 11.6924H6.76953V12.3078H7.38492V11.6924Z" fill="#7FF873"/>
<path d="M6.76968 11.6924H6.1543V12.3078H6.76968V11.6924Z" fill="#74F671"/>
<path d="M6.15445 11.6924H5.53906V12.3078H6.15445V11.6924Z" fill="#6BF46C"/>
<path d="M5.53921 11.6924H4.92383V12.3078H5.53921V11.6924Z" fill="#61F368"/>
<path d="M4.92398 11.6924H4.30859V12.3078H4.92398V11.6924Z" fill="#57F165"/>
<path d="M4.30679 11.6924H3.69141V12.3078H4.30679V11.6924Z" fill="#4DEF60"/>
<path d="M3.69156 11.6924H3.07617V12.3078H3.69156V11.6924Z" fill="#43EE5E"/>
<path d="M3.07632 11.6924H2.46094V12.3078H3.07632V11.6924Z" fill="#3AEC59"/>
<path d="M2.46109 11.6924H1.8457V12.3078H2.46109V11.6924Z" fill="#30EA56"/>
<path d="M1.84585 11.6924H1.23047V12.3078H1.84585V11.6924Z" fill="#26E953"/>
<path d="M1.23062 11.6924H0.615234V12.3078H1.23062V11.6924Z" fill="#1DE74E"/>
<path d="M0.615385 11.6924H0V12.3078H0.615385V11.6924Z" fill="#17E64D"/>
<path d="M16.0002 11.0769H15.3848V11.6923H16.0002V11.0769Z" fill="#ABFF84"/>
<path d="M15.3849 11.0769H14.7695V11.6923H15.3849V11.0769Z" fill="#ABFF84"/>
<path d="M14.7697 11.0769H14.1543V11.6923H14.7697V11.0769Z" fill="#ABFF84"/>
<path d="M14.1544 11.0769H13.5391V11.6923H14.1544V11.0769Z" fill="#ABFF84"/>
<path d="M13.5392 11.0769H12.9238V11.6923H13.5392V11.0769Z" fill="#ABFF84"/>
<path d="M12.924 11.0769H12.3086V11.6923H12.924V11.0769Z" fill="#ABFF84"/>
<path d="M12.3068 11.0769H11.6914V11.6923H12.3068V11.0769Z" fill="#ABFF84"/>
<path d="M11.6916 11.0769H11.0762V11.6923H11.6916V11.0769Z" fill="#ABFF84"/>
<path d="M11.0763 11.0769H10.4609V11.6923H11.0763V11.0769Z" fill="#ABFF84"/>
<path d="M10.4611 11.0769H9.8457V11.6923H10.4611V11.0769Z" fill="#ABFF84"/>
<path d="M9.84585 11.0769H9.23047V11.6923H9.84585V11.0769Z" fill="#A1FD80"/>
<path d="M9.23062 11.0769H8.61523V11.6923H9.23062V11.0769Z" fill="#97FC7D"/>
<path d="M8.61538 11.0769H8V11.6923H8.61538V11.0769Z" fill="#8EFA79"/>
<path d="M8.00015 11.0769H7.38477V11.6923H8.00015V11.0769Z" fill="#83F875"/>
<path d="M7.38492 11.0769H6.76953V11.6923H7.38492V11.0769Z" fill="#7AF772"/>
<path d="M6.76968 11.0769H6.1543V11.6923H6.76968V11.0769Z" fill="#71F56E"/>
<path d="M6.15445 11.0769H5.53906V11.6923H6.15445V11.0769Z" fill="#66F46B"/>
<path d="M5.53921 11.0769H4.92383V11.6923H5.53921V11.0769Z" fill="#5DF267"/>
<path d="M4.92398 11.0769H4.30859V11.6923H4.92398V11.0769Z" fill="#53F063"/>
<path d="M4.30679 11.0769H3.69141V11.6923H4.30679V11.0769Z" fill="#49EF60"/>
<path d="M3.69156 11.0769H3.07617V11.6923H3.69156V11.0769Z" fill="#3FED5C"/>
<path d="M3.07632 11.0769H2.46094V11.6923H3.07632V11.0769Z" fill="#35EB58"/>
<path d="M2.46109 11.0769H1.8457V11.6923H2.46109V11.0769Z" fill="#2CEA55"/>
<path d="M1.84585 11.0769H1.23047V11.6923H1.84585V11.0769Z" fill="#22E851"/>
<path d="M1.23062 11.0769H0.615234V11.6923H1.23062V11.0769Z" fill="#17E64D"/>
<path d="M0.615385 11.0769H0V11.6923H0.615385V11.0769Z" fill="#17E64D"/>
<path d="M15.3849 10.4614H14.7695V11.0768H15.3849V10.4614Z" fill="#ABFF84"/>
<path d="M14.7697 10.4614H14.1543V11.0768H14.7697V10.4614Z" fill="#ABFF84"/>
<path d="M14.1544 10.4614H13.5391V11.0768H14.1544V10.4614Z" fill="#ABFF84"/>
<path d="M13.5392 10.4614H12.9238V11.0768H13.5392V10.4614Z" fill="#ABFF84"/>
<path d="M12.924 10.4614H12.3086V11.0768H12.924V10.4614Z" fill="#ABFF84"/>
<path d="M12.3068 10.4614H11.6914V11.0768H12.3068V10.4614Z" fill="#ABFF84"/>
<path d="M11.6916 10.4614H11.0762V11.0768H11.6916V10.4614Z" fill="#ABFF84"/>
<path d="M11.0763 10.4614H10.4609V11.0768H11.0763V10.4614Z" fill="#ABFF84"/>
<path d="M10.4611 10.4614H9.8457V11.0768H10.4611V10.4614Z" fill="#A7FE82"/>
<path d="M9.84585 10.4614H9.23047V11.0768H9.84585V10.4614Z" fill="#9DFD7F"/>
<path d="M9.23062 10.4614H8.61523V11.0768H9.23062V10.4614Z" fill="#93FB7B"/>
<path d="M8.00015 10.4614H7.38477V11.0768H8.00015V10.4614Z" fill="#7FF874"/>
<path d="M7.38492 10.4614H6.76953V11.0768H7.38492V10.4614Z" fill="#75F671"/>
<path d="M6.76968 10.4614H6.1543V11.0768H6.76968V10.4614Z" fill="#6CF46C"/>
<path d="M6.15445 10.4614H5.53906V11.0768H6.15445V10.4614Z" fill="#62F368"/>
<path d="M5.53921 10.4614H4.92383V11.0768H5.53921V10.4614Z" fill="#59F165"/>
<path d="M4.92398 10.4614H4.30859V11.0768H4.92398V10.4614Z" fill="#4FEF61"/>
<path d="M4.30679 10.4614H3.69141V11.0768H4.30679V10.4614Z" fill="#44EE5E"/>
<path d="M3.69156 10.4614H3.07617V11.0768H3.69156V10.4614Z" fill="#3BEC59"/>
<path d="M3.07632 10.4614H2.46094V11.0768H3.07632V10.4614Z" fill="#31EB57"/>
<path d="M2.46109 10.4614H1.8457V11.0768H2.46109V10.4614Z" fill="#27E953"/>
<path d="M1.84585 10.4614H1.23047V11.0768H1.84585V10.4614Z" fill="#1DE74F"/>
<path d="M1.23062 10.4614H0.615234V11.0768H1.23062V10.4614Z" fill="#11E64C"/>
<path d="M15.3849 9.84619H14.7695V10.4616H15.3849V9.84619Z" fill="#ABFF84"/>
<path d="M14.7697 9.84619H14.1543V10.4616H14.7697V9.84619Z" fill="#ABFF84"/>
<path d="M14.1544 9.84619H13.5391V10.4616H14.1544V9.84619Z" fill="#ABFF84"/>
<path d="M13.5392 9.84619H12.9238V10.4616H13.5392V9.84619Z" fill="#ABFF84"/>
<path d="M12.924 9.84619H12.3086V10.4616H12.924V9.84619Z" fill="#ABFF84"/>
<path d="M12.3068 9.84619H11.6914V10.4616H12.3068V9.84619Z" fill="#ABFF84"/>
<path d="M11.6916 9.84619H11.0762V10.4616H11.6916V9.84619Z" fill="#ABFF84"/>
<path d="M11.0763 9.84619H10.4609V10.4616H11.0763V9.84619Z" fill="#ABFF84"/>
<path d="M10.4611 9.84619H9.8457V10.4616H10.4611V9.84619Z" fill="#A3FD81"/>
<path d="M9.84585 9.84619H9.23047V10.4616H9.84585V9.84619Z" fill="#99FC7D"/>
<path d="M9.23062 9.84619H8.61523V10.4616H9.23062V9.84619Z" fill="#8EFA79"/>
<path d="M7.38492 9.84619H6.76953V10.4616H7.38492V9.84619Z" fill="#72F56F"/>
<path d="M6.76968 9.84619H6.1543V10.4616H6.76968V9.84619Z" fill="#67F46B"/>
<path d="M6.15445 9.84619H5.53906V10.4616H6.15445V9.84619Z" fill="#5EF267"/>
<path d="M5.53921 9.84619H4.92383V10.4616H5.53921V9.84619Z" fill="#53F064"/>
<path d="M4.92398 9.84619H4.30859V10.4616H4.92398V9.84619Z" fill="#4AEF60"/>
<path d="M4.30679 9.84619H3.69141V10.4616H4.30679V9.84619Z" fill="#40ED5C"/>
<path d="M3.69156 9.84619H3.07617V10.4616H3.69156V9.84619Z" fill="#36EB59"/>
<path d="M3.07632 9.84619H2.46094V10.4616H3.07632V9.84619Z" fill="#2DEA54"/>
<path d="M2.46109 9.84619H1.8457V10.4616H2.46109V9.84619Z" fill="#23E851"/>
<path d="M1.84585 9.84619H1.23047V10.4616H1.84585V9.84619Z" fill="#18E74E"/>
<path d="M1.23062 9.84619H0.615234V10.4616H1.23062V9.84619Z" fill="#0CE549"/>
<path d="M14.7697 9.23071H14.1543V9.8461H14.7697V9.23071Z" fill="#ABFF84"/>
<path d="M14.1544 9.23071H13.5391V9.8461H14.1544V9.23071Z" fill="#ABFF84"/>
<path d="M13.5392 9.23071H12.9238V9.8461H13.5392V9.23071Z" fill="#ABFF84"/>
<path d="M12.924 9.23071H12.3086V9.8461H12.924V9.23071Z" fill="#ABFF84"/>
<path d="M12.3068 9.23071H11.6914V9.8461H12.3068V9.23071Z" fill="#ABFF84"/>
<path d="M11.6916 9.23071H11.0762V9.8461H11.6916V9.23071Z" fill="#ABFF84"/>
<path d="M11.0763 9.23071H10.4609V9.8461H11.0763V9.23071Z" fill="#A7FE83"/>
<path d="M10.4611 9.23071H9.8457V9.8461H10.4611V9.23071Z" fill="#9EFD7F"/>
<path d="M9.84585 9.23071H9.23047V9.8461H9.84585V9.23071Z" fill="#94FB7B"/>
<path d="M7.38492 9.23071H6.76953V9.8461H7.38492V9.23071Z" fill="#6DF56D"/>
<path d="M6.76968 9.23071H6.1543V9.8461H6.76968V9.23071Z" fill="#63F368"/>
<path d="M6.15445 9.23071H5.53906V9.8461H6.15445V9.23071Z" fill="#5AF166"/>
<path d="M5.53921 9.23071H4.92383V9.8461H5.53921V9.23071Z" fill="#50F062"/>
<path d="M4.92398 9.23071H4.30859V9.8461H4.92398V9.23071Z" fill="#45EE5E"/>
<path d="M4.30679 9.23071H3.69141V9.8461H4.30679V9.23071Z" fill="#3BEC5A"/>
<path d="M3.69156 9.23071H3.07617V9.8461H3.69156V9.23071Z" fill="#32EB57"/>
<path d="M3.07632 9.23071H2.46094V9.8461H3.07632V9.23071Z" fill="#29E953"/>
<path d="M2.46109 9.23071H1.8457V9.8461H2.46109V9.23071Z" fill="#1EE750"/>
<path d="M1.84585 9.23071H1.23047V9.8461H1.84585V9.23071Z" fill="#14E64C"/>
<path d="M14.1544 8.61548H13.5391V9.23086H14.1544V8.61548Z" fill="#ABFF84"/>
<path d="M13.5392 8.61548H12.9238V9.23086H13.5392V8.61548Z" fill="#ABFF84"/>
<path d="M12.924 8.61548H12.3086V9.23086H12.924V8.61548Z" fill="#ABFF84"/>
<path d="M12.3068 8.61548H11.6914V9.23086H12.3068V8.61548Z" fill="#ABFF84"/>
<path d="M11.6916 8.61548H11.0762V9.23086H11.6916V8.61548Z" fill="#ABFF84"/>
<path d="M11.0763 8.61548H10.4609V9.23086H11.0763V8.61548Z" fill="#A4FE81"/>
<path d="M10.4611 8.61548H9.8457V9.23086H10.4611V8.61548Z" fill="#9AFC7D"/>
<path d="M6.76968 8.61548H6.1543V9.23086H6.76968V8.61548Z" fill="#5CEF66"/>
<path d="M6.15445 8.61548H5.53906V9.23086H6.15445V8.61548Z" fill="#54F164"/>
<path d="M5.53921 8.61548H4.92383V9.23086H5.53921V8.61548Z" fill="#4AEF60"/>
<path d="M4.92398 8.61548H4.30859V9.23086H4.92398V8.61548Z" fill="#41ED5D"/>
<path d="M4.30679 8.61548H3.69141V9.23086H4.30679V8.61548Z" fill="#37EC59"/>
<path d="M3.69156 8.61548H3.07617V9.23086H3.69156V8.61548Z" fill="#2EEA54"/>
<path d="M3.07632 8.61548H2.46094V9.23086H3.07632V8.61548Z" fill="#24E852"/>
<path d="M2.46109 8.61548H1.8457V9.23086H2.46109V8.61548Z" fill="#19E74E"/>
<path d="M12.924 8H12.3086V8.61538H12.924V8Z" fill="#ABFF84"/>
<path d="M12.3068 8H11.6914V8.61538H12.3068V8Z" fill="#ABFF84"/>
<path d="M11.6916 8H11.0762V8.61538H11.6916V8Z" fill="#A8FF83"/>
<path d="M4.92398 8H4.30859V8.61538H4.92398V8Z" fill="#3CED5A"/>
<path d="M4.30679 8H3.69141V8.61538H4.30679V8Z" fill="#33EB57"/>
<path d="M3.69156 8H3.07617V8.61538H3.69156V8Z" fill="#29E953"/>
<path d="M13.5392 7.38452H12.9238V7.99991H13.5392V7.38452Z" fill="#ABFF84"/>
<path d="M12.924 7.38452H12.3086V7.99991H12.924V7.38452Z" fill="#ABFF84"/>
<path d="M12.3068 7.38452H11.6914V7.99991H12.3068V7.38452Z" fill="#ABFF84"/>
<path d="M11.6916 7.38452H11.0762V7.99991H11.6916V7.38452Z" fill="#A4FE81"/>
<path d="M11.0763 7.38452H10.4609V7.99991H11.0763V7.38452Z" fill="#9AFC7E"/>
<path d="M5.53921 7.38452H4.92383V7.99991H5.53921V7.38452Z" fill="#42ED5D"/>
<path d="M4.92398 7.38452H4.30859V7.99991H4.92398V7.38452Z" fill="#38EC59"/>
<path d="M4.30679 7.38452H3.69141V7.99991H4.30679V7.38452Z" fill="#2EEA55"/>
<path d="M3.69156 7.38452H3.07617V7.99991H3.69156V7.38452Z" fill="#25E952"/>
<path d="M3.07632 7.38452H2.46094V7.99991H3.07632V7.38452Z" fill="#1AE74E"/>
<path d="M14.7697 6.76929H14.1543V7.38467H14.7697V6.76929Z" fill="#ABFF84"/>
<path d="M14.1544 6.76929H13.5391V7.38467H14.1544V6.76929Z" fill="#ABFF84"/>
<path d="M13.5392 6.76929H12.9238V7.38467H13.5392V6.76929Z" fill="#ABFF84"/>
<path d="M12.924 6.76929H12.3086V7.38467H12.924V6.76929Z" fill="#ABFF84"/>
<path d="M12.3068 6.76929H11.6914V7.38467H12.3068V6.76929Z" fill="#A9FF83"/>
<path d="M11.6916 6.76929H11.0762V7.38467H11.6916V6.76929Z" fill="#9FFD80"/>
<path d="M11.0763 6.76929H10.4609V7.38467H11.0763V6.76929Z" fill="#95FB7C"/>
<path d="M10.4611 6.76929H9.8457V7.38467H10.4611V6.76929Z" fill="#8CFA78"/>
<path d="M9.84585 6.76929H9.23047V7.38467H9.84585V6.76929Z" fill="#82F875"/>
<path d="M6.76968 6.76929H6.1543V7.38467H6.76968V6.76929Z" fill="#51F062"/>
<path d="M6.15445 6.76929H5.53906V7.38467H6.15445V6.76929Z" fill="#47EE5F"/>
<path d="M5.53921 6.76929H4.92383V7.38467H5.53921V6.76929Z" fill="#3DED5A"/>
<path d="M4.92398 6.76929H4.30859V7.38467H4.92398V6.76929Z" fill="#34EB58"/>
<path d="M4.30679 6.76929H3.69141V7.38467H4.30679V6.76929Z" fill="#2AE953"/>
<path d="M3.69156 6.76929H3.07617V7.38467H3.69156V6.76929Z" fill="#20E850"/>
<path d="M3.07632 6.76929H2.46094V7.38467H3.07632V6.76929Z" fill="#16E64D"/>
<path d="M2.46109 6.76929H1.8457V7.38467H2.46109V6.76929Z" fill="#0BE448"/>
<path d="M15.3849 6.15381H14.7695V6.76919H15.3849V6.15381Z" fill="#A6F980"/>
<path d="M14.7697 6.15381H14.1543V6.76919H14.7697V6.15381Z" fill="#ABFF84"/>
<path d="M14.1544 6.15381H13.5391V6.76919H14.1544V6.15381Z" fill="#ABFF84"/>
<path d="M13.5392 6.15381H12.9238V6.76919H13.5392V6.15381Z" fill="#ABFF84"/>
<path d="M12.924 6.15381H12.3086V6.76919H12.924V6.15381Z" fill="#ABFF84"/>
<path d="M12.3068 6.15381H11.6914V6.76919H12.3068V6.15381Z" fill="#A5FE82"/>
<path d="M11.6916 6.15381H11.0762V6.76919H11.6916V6.15381Z" fill="#9BFC7E"/>
<path d="M11.0763 6.15381H10.4609V6.76919H11.0763V6.15381Z" fill="#91FB7B"/>
<path d="M10.4611 6.15381H9.8457V6.76919H10.4611V6.15381Z" fill="#87F977"/>
<path d="M9.84585 6.15381H9.23047V6.76919H9.84585V6.15381Z" fill="#7EF773"/>
<path d="M9.23062 6.15381H8.61523V6.76919H9.23062V6.15381Z" fill="#72F36E"/>
<path d="M7.38492 6.15381H6.76953V6.76919H7.38492V6.15381Z" fill="#56F165"/>
<path d="M6.76968 6.15381H6.1543V6.76919H6.76968V6.15381Z" fill="#4CEF60"/>
<path d="M6.15445 6.15381H5.53906V6.76919H6.15445V6.15381Z" fill="#43EE5D"/>
<path d="M5.53921 6.15381H4.92383V6.76919H5.53921V6.15381Z" fill="#39EC59"/>
<path d="M4.92398 6.15381H4.30859V6.76919H4.92398V6.15381Z" fill="#30EA56"/>
<path d="M4.30679 6.15381H3.69141V6.76919H4.30679V6.15381Z" fill="#26E952"/>
<path d="M3.69156 6.15381H3.07617V6.76919H3.69156V6.15381Z" fill="#1CE74E"/>
<path d="M3.07632 6.15381H2.46094V6.76919H3.07632V6.15381Z" fill="#13E54B"/>
<path d="M2.46109 6.15381H1.8457V6.76919H2.46109V6.15381Z" fill="#07E448"/>
<path d="M1.84585 6.15381H1.23047V6.76919H1.84585V6.15381Z" fill="#07E448"/>
<path d="M15.3849 5.53857H14.7695V6.15396H15.3849V5.53857Z" fill="#ABFF84"/>
<path d="M14.7697 5.53857H14.1543V6.15396H14.7697V5.53857Z" fill="#ABFF84"/>
<path d="M14.1544 5.53857H13.5391V6.15396H14.1544V5.53857Z" fill="#ABFF84"/>
<path d="M13.5392 5.53857H12.9238V6.15396H13.5392V5.53857Z" fill="#ABFF84"/>
<path d="M12.924 5.53857H12.3086V6.15396H12.924V5.53857Z" fill="#AAFF84"/>
<path d="M12.3068 5.53857H11.6914V6.15396H12.3068V5.53857Z" fill="#A0FD80"/>
<path d="M11.6916 5.53857H11.0762V6.15396H11.6916V5.53857Z" fill="#96FC7C"/>
<path d="M11.0763 5.53857H10.4609V6.15396H11.0763V5.53857Z" fill="#8DFA79"/>
<path d="M10.4611 5.53857H9.8457V6.15396H10.4611V5.53857Z" fill="#83F875"/>
<path d="M9.84585 5.53857H9.23047V6.15396H9.84585V5.53857Z" fill="#79F772"/>
<path d="M9.23062 5.53857H8.61523V6.15396H9.23062V5.53857Z" fill="#70F56E"/>
<path d="M7.38492 5.53857H6.76953V6.15396H7.38492V5.53857Z" fill="#52F063"/>
<path d="M6.76968 5.53857H6.1543V6.15396H6.76968V5.53857Z" fill="#48EE5F"/>
<path d="M6.15445 5.53857H5.53906V6.15396H6.15445V5.53857Z" fill="#3EED5B"/>
<path d="M5.53921 5.53857H4.92383V6.15396H5.53921V5.53857Z" fill="#35EB58"/>
<path d="M4.92398 5.53857H4.30859V6.15396H4.92398V5.53857Z" fill="#2BEA54"/>
<path d="M4.30679 5.53857H3.69141V6.15396H4.30679V5.53857Z" fill="#20E851"/>
<path d="M3.69156 5.53857H3.07617V6.15396H3.69156V5.53857Z" fill="#16E64D"/>
<path d="M3.07632 5.53857H2.46094V6.15396H3.07632V5.53857Z" fill="#0CE549"/>
<path d="M2.46109 5.53857H1.8457V6.15396H2.46109V5.53857Z" fill="#07E448"/>
<path d="M1.84585 5.53857H1.23047V6.15396H1.84585V5.53857Z" fill="#07E448"/>
<path d="M1.23062 5.53857H0.615234V6.15396H1.23062V5.53857Z" fill="#07E448"/>
<path d="M16.0002 4.9231H15.3848V5.53848H16.0002V4.9231Z" fill="#ABFF84"/>
<path d="M15.3849 4.9231H14.7695V5.53848H15.3849V4.9231Z" fill="#ABFF84"/>
<path d="M14.7697 4.9231H14.1543V5.53848H14.7697V4.9231Z" fill="#ABFF84"/>
<path d="M14.1544 4.9231H13.5391V5.53848H14.1544V4.9231Z" fill="#ABFF84"/>
<path d="M13.5392 4.9231H12.9238V5.53848H13.5392V4.9231Z" fill="#ABFF84"/>
<path d="M12.924 4.9231H12.3086V5.53848H12.924V4.9231Z" fill="#A6FE82"/>
<path d="M12.3068 4.9231H11.6914V5.53848H12.3068V4.9231Z" fill="#9CFC7E"/>
<path d="M11.6916 4.9231H11.0762V5.53848H11.6916V4.9231Z" fill="#92FB7B"/>
<path d="M11.0763 4.9231H10.4609V5.53848H11.0763V4.9231Z" fill="#88F977"/>
<path d="M10.4611 4.9231H9.8457V5.53848H10.4611V4.9231Z" fill="#7FF873"/>
<path d="M9.84585 4.9231H9.23047V5.53848H9.84585V4.9231Z" fill="#74F671"/>
<path d="M9.23062 4.9231H8.61523V5.53848H9.23062V4.9231Z" fill="#6BF46C"/>
<path d="M8.00015 4.9231H7.38477V5.53848H8.00015V4.9231Z" fill="#57F165"/>
<path d="M7.38492 4.9231H6.76953V5.53848H7.38492V4.9231Z" fill="#4DEF60"/>
<path d="M6.76968 4.9231H6.1543V5.53848H6.76968V4.9231Z" fill="#43EE5E"/>
<path d="M6.15445 4.9231H5.53906V5.53848H6.15445V4.9231Z" fill="#3AEC59"/>
<path d="M5.53921 4.9231H4.92383V5.53848H5.53921V4.9231Z" fill="#30EA56"/>
<path d="M4.92398 4.9231H4.30859V5.53848H4.92398V4.9231Z" fill="#26E953"/>
<path d="M4.30679 4.9231H3.69141V5.53848H4.30679V4.9231Z" fill="#1DE74E"/>
<path d="M3.69156 4.9231H3.07617V5.53848H3.69156V4.9231Z" fill="#11E64B"/>
<path d="M3.07632 4.9231H2.46094V5.53848H3.07632V4.9231Z" fill="#07E448"/>
<path d="M2.46109 4.9231H1.8457V5.53848H2.46109V4.9231Z" fill="#07E448"/>
<path d="M1.84585 4.9231H1.23047V5.53848H1.84585V4.9231Z" fill="#07E448"/>
<path d="M1.23062 4.9231H0.615234V5.53848H1.23062V4.9231Z" fill="#07E448"/>
<path d="M16.0002 4.30762H15.3848V4.923H16.0002V4.30762Z" fill="#ABFF84"/>
<path d="M15.3849 4.30762H14.7695V4.923H15.3849V4.30762Z" fill="#ABFF84"/>
<path d="M14.7697 4.30762H14.1543V4.923H14.7697V4.30762Z" fill="#ABFF84"/>
<path d="M14.1544 4.30762H13.5391V4.923H14.1544V4.30762Z" fill="#ABFF84"/>
<path d="M13.5392 4.30762H12.9238V4.923H13.5392V4.30762Z" fill="#ABFF84"/>
<path d="M12.924 4.30762H12.3086V4.923H12.924V4.30762Z" fill="#A2FD80"/>
<path d="M12.3068 4.30762H11.6914V4.923H12.3068V4.30762Z" fill="#97FC7D"/>
<path d="M11.6916 4.30762H11.0762V4.923H11.6916V4.30762Z" fill="#8EFA79"/>
<path d="M11.0763 4.30762H10.4609V4.923H11.0763V4.30762Z" fill="#83F875"/>
<path d="M10.4611 4.30762H9.8457V4.923H10.4611V4.30762Z" fill="#7BF772"/>
<path d="M9.84585 4.30762H9.23047V4.923H9.84585V4.30762Z" fill="#71F56E"/>
<path d="M9.23062 4.30762H8.61523V4.923H9.23062V4.30762Z" fill="#66F46A"/>
<path d="M8.61538 4.30762H8V4.923H8.61538V4.30762Z" fill="#5DF267"/>
<path d="M8.00015 4.30762H7.38477V4.923H8.00015V4.30762Z" fill="#52F063"/>
<path d="M7.38492 4.30762H6.76953V4.923H7.38492V4.30762Z" fill="#49EF60"/>
<path d="M6.76968 4.30762H6.1543V4.923H6.76968V4.30762Z" fill="#3FED5C"/>
<path d="M6.15445 4.30762H5.53906V4.923H6.15445V4.30762Z" fill="#35EB58"/>
<path d="M5.53921 4.30762H4.92383V4.923H5.53921V4.30762Z" fill="#2CEA55"/>
<path d="M4.92398 4.30762H4.30859V4.923H4.92398V4.30762Z" fill="#22E851"/>
<path d="M4.30679 4.30762H3.69141V4.923H4.30679V4.30762Z" fill="#17E64D"/>
<path d="M3.69156 4.30762H3.07617V4.923H3.69156V4.30762Z" fill="#0CE549"/>
<path d="M3.07632 4.30762H2.46094V4.923H3.07632V4.30762Z" fill="#07E448"/>
<path d="M2.46109 4.30762H1.8457V4.923H2.46109V4.30762Z" fill="#07E448"/>
<path d="M1.84585 4.30762H1.23047V4.923H1.84585V4.30762Z" fill="#07E448"/>
<path d="M1.23062 4.30762H0.615234V4.923H1.23062V4.30762Z" fill="#07E448"/>
<path d="M0.615385 4.30762H0V4.923H0.615385V4.30762Z" fill="#07E448"/>
<path d="M16.0002 3.69238H15.3848V4.30777H16.0002V3.69238Z" fill="#ABFF84"/>
<path d="M15.3849 3.69238H14.7695V4.30777H15.3849V3.69238Z" fill="#ABFF84"/>
<path d="M14.7697 3.69238H14.1543V4.30777H14.7697V3.69238Z" fill="#ABFF84"/>
<path d="M14.1544 3.69238H13.5391V4.30777H14.1544V3.69238Z" fill="#ABFF84"/>
<path d="M13.5392 3.69238H12.9238V4.30777H13.5392V3.69238Z" fill="#A7FE82"/>
<path d="M12.924 3.69238H12.3086V4.30777H12.924V3.69238Z" fill="#9DFD7F"/>
<path d="M12.3068 3.69238H11.6914V4.30777H12.3068V3.69238Z" fill="#93FB7B"/>
<path d="M11.6916 3.69238H11.0762V4.30777H11.6916V3.69238Z" fill="#89F977"/>
<path d="M11.0763 3.69238H10.4609V4.30777H11.0763V3.69238Z" fill="#7FF874"/>
<path d="M10.4611 3.69238H9.8457V4.30777H10.4611V3.69238Z" fill="#75F671"/>
<path d="M9.84585 3.69238H9.23047V4.30777H9.84585V3.69238Z" fill="#6CF46D"/>
<path d="M9.23062 3.69238H8.61523V4.30777H9.23062V3.69238Z" fill="#62F368"/>
<path d="M8.61538 3.69238H8V4.30777H8.61538V3.69238Z" fill="#59F165"/>
<path d="M8.00015 3.69238H7.38477V4.30777H8.00015V3.69238Z" fill="#4FF061"/>
<path d="M7.38492 3.69238H6.76953V4.30777H7.38492V3.69238Z" fill="#44EE5E"/>
<path d="M6.76968 3.69238H6.1543V4.30777H6.76968V3.69238Z" fill="#3BEC59"/>
<path d="M6.15445 3.69238H5.53906V4.30777H6.15445V3.69238Z" fill="#31EB57"/>
<path d="M5.53921 3.69238H4.92383V4.30777H5.53921V3.69238Z" fill="#28E953"/>
<path d="M4.92398 3.69238H4.30859V4.30777H4.92398V3.69238Z" fill="#1DE74F"/>
<path d="M4.30679 3.69238H3.69141V4.30777H4.30679V3.69238Z" fill="#12E64C"/>
<path d="M3.69156 3.69238H3.07617V4.30777H3.69156V3.69238Z" fill="#07E448"/>
<path d="M3.07632 3.69238H2.46094V4.30777H3.07632V3.69238Z" fill="#07E448"/>
<path d="M2.46109 3.69238H1.8457V4.30777H2.46109V3.69238Z" fill="#07E448"/>
<path d="M1.84585 3.69238H1.23047V4.30777H1.84585V3.69238Z" fill="#07E448"/>
<path d="M1.23062 3.69238H0.615234V4.30777H1.23062V3.69238Z" fill="#07E448"/>
<path d="M0.615385 3.69238H0V4.30777H0.615385V3.69238Z" fill="#07E448"/>
<path d="M16.0002 3.0769H15.3848V3.69229H16.0002V3.0769Z" fill="#ABFF84"/>
<path d="M15.3849 3.0769H14.7695V3.69229H15.3849V3.0769Z" fill="#ABFF84"/>
<path d="M14.7697 3.0769H14.1543V3.69229H14.7697V3.0769Z" fill="#ABFF84"/>
<path d="M14.1544 3.0769H13.5391V3.69229H14.1544V3.0769Z" fill="#ABFF84"/>
<path d="M13.5392 3.0769H12.9238V3.69229H13.5392V3.0769Z" fill="#A3FE81"/>
<path d="M12.924 3.0769H12.3086V3.69229H12.924V3.0769Z" fill="#99FC7D"/>
<path d="M12.3068 3.0769H11.6914V3.69229H12.3068V3.0769Z" fill="#8EFA79"/>
<path d="M11.6916 3.0769H11.0762V3.69229H11.6916V3.0769Z" fill="#84F976"/>
<path d="M11.0763 3.0769H10.4609V3.69229H11.0763V3.0769Z" fill="#7BF772"/>
<path d="M10.4611 3.0769H9.8457V3.69229H10.4611V3.0769Z" fill="#72F56F"/>
<path d="M9.84585 3.0769H9.23047V3.69229H9.84585V3.0769Z" fill="#67F46B"/>
<path d="M9.23062 3.0769H8.61523V3.69229H9.23062V3.0769Z" fill="#5EF267"/>
<path d="M8.61538 3.0769H8V3.69229H8.61538V3.0769Z" fill="#53F064"/>
<path d="M8.00015 3.0769H7.38477V3.69229H8.00015V3.0769Z" fill="#4AEF60"/>
<path d="M7.38492 3.0769H6.76953V3.69229H7.38492V3.0769Z" fill="#40ED5C"/>
<path d="M6.76968 3.0769H6.1543V3.69229H6.76968V3.0769Z" fill="#36EB59"/>
<path d="M6.15445 3.0769H5.53906V3.69229H6.15445V3.0769Z" fill="#2DEA54"/>
<path d="M5.53921 3.0769H4.92383V3.69229H5.53921V3.0769Z" fill="#23E851"/>
<path d="M4.92398 3.0769H4.30859V3.69229H4.92398V3.0769Z" fill="#18E74E"/>
<path d="M4.30679 3.0769H3.69141V3.69229H4.30679V3.0769Z" fill="#0DE549"/>
<path d="M3.69156 3.0769H3.07617V3.69229H3.69156V3.0769Z" fill="#07E448"/>
<path d="M3.07632 3.0769H2.46094V3.69229H3.07632V3.0769Z" fill="#07E448"/>
<path d="M2.46109 3.0769H1.8457V3.69229H2.46109V3.0769Z" fill="#07E448"/>
<path d="M1.84585 3.0769H1.23047V3.69229H1.84585V3.0769Z" fill="#07E448"/>
<path d="M1.23062 3.0769H0.615234V3.69229H1.23062V3.0769Z" fill="#07E448"/>
<path d="M15.3849 2.46143H14.7695V3.07681H15.3849V2.46143Z" fill="#ABFF84"/>
<path d="M14.7697 2.46143H14.1543V3.07681H14.7697V2.46143Z" fill="#ABFF84"/>
<path d="M14.1544 2.46143H13.5391V3.07681H14.1544V2.46143Z" fill="#A7FE83"/>
<path d="M13.5392 2.46143H12.9238V3.07681H13.5392V2.46143Z" fill="#9EFD7F"/>
<path d="M12.924 2.46143H12.3086V3.07681H12.924V2.46143Z" fill="#94FB7B"/>
<path d="M12.3068 2.46143H11.6914V3.07681H12.3068V2.46143Z" fill="#8AF978"/>
<path d="M11.6916 2.46143H11.0762V3.07681H11.6916V2.46143Z" fill="#80F874"/>
<path d="M11.0763 2.46143H10.4609V3.07681H11.0763V2.46143Z" fill="#76F670"/>
<path d="M10.4611 2.46143H9.8457V3.07681H10.4611V2.46143Z" fill="#6DF56D"/>
<path d="M9.84585 2.46143H9.23047V3.07681H9.84585V2.46143Z" fill="#63F368"/>
<path d="M9.23062 2.46143H8.61523V3.07681H9.23062V2.46143Z" fill="#5AF166"/>
<path d="M8.00015 2.46143H7.38477V3.07681H8.00015V2.46143Z" fill="#45EE5E"/>
<path d="M7.38492 2.46143H6.76953V3.07681H7.38492V2.46143Z" fill="#3BEC5A"/>
<path d="M6.76968 2.46143H6.1543V3.07681H6.76968V2.46143Z" fill="#32EB57"/>
<path d="M6.15445 2.46143H5.53906V3.07681H6.15445V2.46143Z" fill="#29E953"/>
<path d="M5.53921 2.46143H4.92383V3.07681H5.53921V2.46143Z" fill="#1EE750"/>
<path d="M4.92398 2.46143H4.30859V3.07681H4.92398V2.46143Z" fill="#14E64C"/>
<path d="M4.30679 2.46143H3.69141V3.07681H4.30679V2.46143Z" fill="#07E448"/>
<path d="M3.69156 2.46143H3.07617V3.07681H3.69156V2.46143Z" fill="#07E448"/>
<path d="M3.07632 2.46143H2.46094V3.07681H3.07632V2.46143Z" fill="#07E448"/>
<path d="M2.46109 2.46143H1.8457V3.07681H2.46109V2.46143Z" fill="#07E448"/>
<path d="M1.84585 2.46143H1.23047V3.07681H1.84585V2.46143Z" fill="#07E448"/>
<path d="M1.23062 2.46143H0.615234V3.07681H1.23062V2.46143Z" fill="#07E448"/>
<path d="M15.3849 1.84619H14.7695V2.46158H15.3849V1.84619Z" fill="#ABFF84"/>
<path d="M14.7697 1.84619H14.1543V2.46158H14.7697V1.84619Z" fill="#ABFF84"/>
<path d="M14.1544 1.84619H13.5391V2.46158H14.1544V1.84619Z" fill="#A4FE81"/>
<path d="M13.5392 1.84619H12.9238V2.46158H13.5392V1.84619Z" fill="#9AFC7D"/>
<path d="M12.924 1.84619H12.3086V2.46158H12.924V1.84619Z" fill="#8FFA7A"/>
<path d="M12.3068 1.84619H11.6914V2.46158H12.3068V1.84619Z" fill="#85F976"/>
<path d="M11.6916 1.84619H11.0762V2.46158H11.6916V1.84619Z" fill="#7CF772"/>
<path d="M11.0763 1.84619H10.4609V2.46158H11.0763V1.84619Z" fill="#72F56F"/>
<path d="M10.4611 1.84619H9.8457V2.46158H10.4611V1.84619Z" fill="#68F46B"/>
<path d="M9.84585 1.84619H9.23047V2.46158H9.84585V1.84619Z" fill="#5EF268"/>
<path d="M9.23062 1.84619H8.61523V2.46158H9.23062V1.84619Z" fill="#54F164"/>
<path d="M7.38492 1.84619H6.76953V2.46158H7.38492V1.84619Z" fill="#37EC59"/>
<path d="M6.76968 1.84619H6.1543V2.46158H6.76968V1.84619Z" fill="#2EEA55"/>
<path d="M6.15445 1.84619H5.53906V2.46158H6.15445V1.84619Z" fill="#24E852"/>
<path d="M5.53921 1.84619H4.92383V2.46158H5.53921V1.84619Z" fill="#19E74E"/>
<path d="M4.92398 1.84619H4.30859V2.46158H4.92398V1.84619Z" fill="#0FE54A"/>
<path d="M4.30679 1.84619H3.69141V2.46158H4.30679V1.84619Z" fill="#07E448"/>
<path d="M3.69156 1.84619H3.07617V2.46158H3.69156V1.84619Z" fill="#07E448"/>
<path d="M3.07632 1.84619H2.46094V2.46158H3.07632V1.84619Z" fill="#07E448"/>
<path d="M2.46109 1.84619H1.8457V2.46158H2.46109V1.84619Z" fill="#07E448"/>
<path d="M1.84585 1.84619H1.23047V2.46158H1.84585V1.84619Z" fill="#07E448"/>
<path d="M14.7697 1.23071H14.1543V1.8461H14.7697V1.23071Z" fill="#A8FF83"/>
<path d="M14.1544 1.23071H13.5391V1.8461H14.1544V1.23071Z" fill="#9FFD7F"/>
<path d="M13.5392 1.23071H12.9238V1.8461H13.5392V1.23071Z" fill="#94FB7B"/>
<path d="M12.924 1.23071H12.3086V1.8461H12.924V1.23071Z" fill="#8BFA78"/>
<path d="M12.3068 1.23071H11.6914V1.8461H12.3068V1.23071Z" fill="#81F874"/>
<path d="M11.6916 1.23071H11.0762V1.8461H11.6916V1.23071Z" fill="#77F670"/>
<path d="M11.0763 1.23071H10.4609V1.8461H11.0763V1.23071Z" fill="#6EF56D"/>
<path d="M10.4611 1.23071H9.8457V1.8461H10.4611V1.23071Z" fill="#64F369"/>
<path d="M9.84585 1.23071H9.23047V1.8461H9.84585V1.23071Z" fill="#5AF166"/>
<path d="M6.76968 1.23071H6.1543V1.8461H6.76968V1.23071Z" fill="#29E953"/>
<path d="M6.15445 1.23071H5.53906V1.8461H6.15445V1.23071Z" fill="#1FE850"/>
<path d="M5.53921 1.23071H4.92383V1.8461H5.53921V1.23071Z" fill="#16E64C"/>
<path d="M4.92398 1.23071H4.30859V1.8461H4.92398V1.23071Z" fill="#09E448"/>
<path d="M4.30679 1.23071H3.69141V1.8461H4.30679V1.23071Z" fill="#07E448"/>
<path d="M3.69156 1.23071H3.07617V1.8461H3.69156V1.23071Z" fill="#07E448"/>
<path d="M3.07632 1.23071H2.46094V1.8461H3.07632V1.23071Z" fill="#07E448"/>
<path d="M2.46109 1.23071H1.8457V1.8461H2.46109V1.23071Z" fill="#07E448"/>
<path d="M1.84585 1.23071H1.23047V1.8461H1.84585V1.23071Z" fill="#07E448"/>
<path d="M14.1544 0.615479H13.5391V1.23086H14.1544V0.615479Z" fill="#9AFC7E"/>
<path d="M13.5392 0.615479H12.9238V1.23086H13.5392V0.615479Z" fill="#90FB7A"/>
<path d="M12.924 0.615479H12.3086V1.23086H12.924V0.615479Z" fill="#86F976"/>
<path d="M12.3068 0.615479H11.6914V1.23086H12.3068V0.615479Z" fill="#7DF773"/>
<path d="M11.6916 0.615479H11.0762V1.23086H11.6916V0.615479Z" fill="#73F66F"/>
<path d="M11.0763 0.615479H10.4609V1.23086H11.0763V0.615479Z" fill="#6AF46C"/>
<path d="M10.4611 0.615479H9.8457V1.23086H10.4611V0.615479Z" fill="#5FF269"/>
<path d="M6.15445 0.615479H5.53906V1.23086H6.15445V0.615479Z" fill="#1AE74E"/>
<path d="M5.53921 0.615479H4.92383V1.23086H5.53921V0.615479Z" fill="#12E54B"/>
<path d="M4.92398 0.615479H4.30859V1.23086H4.92398V0.615479Z" fill="#07E448"/>
<path d="M4.30679 0.615479H3.69141V1.23086H4.30679V0.615479Z" fill="#07E448"/>
<path d="M3.69156 0.615479H3.07617V1.23086H3.69156V0.615479Z" fill="#07E448"/>
<path d="M3.07632 0.615479H2.46094V1.23086H3.07632V0.615479Z" fill="#07E448"/>
<path d="M12.924 0H12.3086V0.615385H12.924V0Z" fill="#7DF773"/>
<path d="M12.3068 0H11.6914V0.615385H12.3068V0Z" fill="#7DF773"/>
<path d="M11.6916 0H11.0762V0.615385H11.6916V0Z" fill="#7DF773"/>
<path d="M4.92398 0H4.30859V0.615385H4.92398V0Z" fill="#07E448"/>
<path d="M4.30679 0H3.69141V0.615385H4.30679V0Z" fill="#07E448"/>
<path d="M3.69156 0H3.07617V0.615385H3.69156V0Z" fill="#07E448"/>
</svg>
