<svg width="16" height="19" viewBox="0 0 16 19" fill="none" xmlns="http://www.w3.org/2000/svg">
<g clip-path="url(#clip0_1850_9786)">
<path d="M8.77526 17.5925H7.97754V18.5185H8.77526V17.5925Z" fill="#7DBA70"/>
<path d="M7.97741 17.5925H7.17969V18.5185H7.97741V17.5925Z" fill="#529252"/>
<path d="M10.37 16.6667H9.57227V17.5927H10.37V16.6667Z" fill="#76B36D"/>
<path d="M9.57311 16.6667H8.77539V17.5927H9.57311V16.6667Z" fill="#53A144"/>
<path d="M8.77526 16.6667H7.97754V17.5927H8.77526V16.6667Z" fill="#56A445"/>
<path d="M7.97741 16.6667H7.17969V17.5927H7.97741V16.6667Z" fill="#5AA947"/>
<path d="M7.17956 16.6667H6.38184V17.5927H7.17956V16.6667Z" fill="#3F873F"/>
<path d="M6.38171 16.6667H5.58398V17.5927H6.38171V16.6667Z" fill="#40873F"/>
<path d="M11.9657 15.7407H11.168V16.6666H11.9657V15.7407Z" fill="#4A9543"/>
<path d="M11.1678 15.7407H10.3701V16.6666H11.1678V15.7407Z" fill="#4E9943"/>
<path d="M10.37 15.7407H9.57227V16.6666H10.37V15.7407Z" fill="#509D43"/>
<path d="M9.57311 15.7407H8.77539V16.6666H9.57311V15.7407Z" fill="#54A244"/>
<path d="M8.77526 15.7407H7.97754V16.6666H8.77526V15.7407Z" fill="#56A545"/>
<path d="M7.97741 15.7407H7.17969V16.6666H7.97741V15.7407Z" fill="#59A947"/>
<path d="M7.17956 15.7407H6.38184V16.6666H7.17956V15.7407Z" fill="#438C40"/>
<path d="M6.38171 15.7407H5.58398V16.6666H6.38171V15.7407Z" fill="#3F8740"/>
<path d="M5.58385 15.7407H4.78613V16.6666H5.58385V15.7407Z" fill="#3F873F"/>
<path d="M4.786 15.7407H3.98828V16.6666H4.786V15.7407Z" fill="#408741"/>
<path d="M13.5614 14.8147H12.7637V15.7406H13.5614V14.8147Z" fill="#579758"/>
<path d="M12.7635 14.8147H11.9658V15.7406H12.7635V14.8147Z" fill="#478F42"/>
<path d="M11.9657 14.8147H11.168V15.7406H11.9657V14.8147Z" fill="#4A9442"/>
<path d="M11.1678 14.8147H10.3701V15.7406H11.1678V14.8147Z" fill="#4D9943"/>
<path d="M10.37 14.8147H9.57227V15.7406H10.37V14.8147Z" fill="#509D44"/>
<path d="M9.57311 14.8147H8.77539V15.7406H9.57311V14.8147Z" fill="#54A245"/>
<path d="M8.77526 14.8147H7.97754V15.7406H8.77526V14.8147Z" fill="#56A545"/>
<path d="M7.97741 14.8147H7.17969V15.7406H7.97741V14.8147Z" fill="#59A946"/>
<path d="M7.17956 14.8147H6.38184V15.7406H7.17956V14.8147Z" fill="#5BAC47"/>
<path d="M6.38171 14.8147H5.58398V15.7406H6.38171V14.8147Z" fill="#408842"/>
<path d="M5.58385 14.8147H4.78613V15.7406H5.58385V14.8147Z" fill="#3F873F"/>
<path d="M4.786 14.8147H3.98828V15.7406H4.786V14.8147Z" fill="#408740"/>
<path d="M3.98815 14.8147H3.19043V15.7406H3.98815V14.8147Z" fill="#3F873F"/>
<path d="M3.19128 14.8147H2.39355V15.7406H3.19128V14.8147Z" fill="#579758"/>
<path d="M15.1571 13.8889H14.3594V14.8148H15.1571V13.8889Z" fill="#579657"/>
<path d="M14.3592 13.8889H13.5615V14.8148H14.3592V13.8889Z" fill="#3F883E"/>
<path d="M13.5614 13.8889H12.7637V14.8148H13.5614V13.8889Z" fill="#438B41"/>
<path d="M12.7635 13.8889H11.9658V14.8148H12.7635V13.8889Z" fill="#468F41"/>
<path d="M11.9657 13.8889H11.168V14.8148H11.9657V13.8889Z" fill="#499442"/>
<path d="M11.1678 13.8889H10.3701V14.8148H11.1678V13.8889Z" fill="#4D9943"/>
<path d="M10.37 13.8889H9.57227V14.8148H10.37V13.8889Z" fill="#509D44"/>
<path d="M9.57311 13.8889H8.77539V14.8148H9.57311V13.8889Z" fill="#53A245"/>
<path d="M8.77526 13.8889H7.97754V14.8148H8.77526V13.8889Z" fill="#56A545"/>
<path d="M7.97741 13.8889H7.17969V14.8148H7.97741V13.8889Z" fill="#5AA846"/>
<path d="M7.17956 13.8889H6.38184V14.8148H7.17956V13.8889Z" fill="#5CAC47"/>
<path d="M6.38171 13.8889H5.58398V14.8148H6.38171V13.8889Z" fill="#5FB049"/>
<path d="M5.58385 13.8889H4.78613V14.8148H5.58385V13.8889Z" fill="#3F873F"/>
<path d="M4.786 13.8889H3.98828V14.8148H4.786V13.8889Z" fill="#3F873F"/>
<path d="M3.98815 13.8889H3.19043V14.8148H3.98815V13.8889Z" fill="#3F873F"/>
<path d="M3.19128 13.8889H2.39355V14.8148H3.19128V13.8889Z" fill="#3F873F"/>
<path d="M2.39342 13.8889H1.5957V14.8148H2.39342V13.8889Z" fill="#3F873F"/>
<path d="M1.59557 13.8889H0.797852V14.8148H1.59557V13.8889Z" fill="#3F873F"/>
<path d="M15.954 12.9629H15.1562V13.8888H15.954V12.9629Z" fill="#3F873F"/>
<path d="M15.1571 12.9629H14.3594V13.8888H15.1571V12.9629Z" fill="#3F873F"/>
<path d="M14.3592 12.9629H13.5615V13.8888H14.3592V12.9629Z" fill="#3F873F"/>
<path d="M13.5614 12.9629H12.7637V13.8888H13.5614V12.9629Z" fill="#438B40"/>
<path d="M12.7635 12.9629H11.9658V13.8888H12.7635V12.9629Z" fill="#458F40"/>
<path d="M11.9657 12.9629H11.168V13.8888H11.9657V12.9629Z" fill="#4A9441"/>
<path d="M11.1678 12.9629H10.3701V13.8888H11.1678V12.9629Z" fill="#4D9943"/>
<path d="M10.37 12.9629H9.57227V13.8888H10.37V12.9629Z" fill="#509D44"/>
<path d="M9.57311 12.9629H8.77539V13.8888H9.57311V12.9629Z" fill="#54A245"/>
<path d="M8.77526 12.9629H7.97754V13.8888H8.77526V12.9629Z" fill="#56A545"/>
<path d="M7.97741 12.9629H7.17969V13.8888H7.97741V12.9629Z" fill="#5AA947"/>
<path d="M7.17956 12.9629H6.38184V13.8888H7.17956V12.9629Z" fill="#5CAC47"/>
<path d="M6.38171 12.9629H5.58398V13.8888H6.38171V12.9629Z" fill="#5EB048"/>
<path d="M5.58385 12.9629H4.78613V13.8888H5.58385V12.9629Z" fill="#3F873F"/>
<path d="M4.786 12.9629H3.98828V13.8888H4.786V12.9629Z" fill="#3F873F"/>
<path d="M3.98815 12.9629H3.19043V13.8888H3.98815V12.9629Z" fill="#3F873F"/>
<path d="M3.19128 12.9629H2.39355V13.8888H3.19128V12.9629Z" fill="#3F873F"/>
<path d="M2.39342 12.9629H1.5957V13.8888H2.39342V12.9629Z" fill="#3F873F"/>
<path d="M1.59557 12.9629H0.797852V13.8888H1.59557V12.9629Z" fill="#408840"/>
<path d="M0.797721 12.9629H0V13.8888H0.797721V12.9629Z" fill="#3EA331"/>
<path d="M15.954 12.0371H15.1562V12.963H15.954V12.0371Z" fill="#3F8E3B"/>
<path d="M15.1571 12.0371H14.3594V12.963H15.1571V12.0371Z" fill="#3F873F"/>
<path d="M14.3592 12.0371H13.5615V12.963H14.3592V12.0371Z" fill="#3F873F"/>
<path d="M13.5614 12.0371H12.7637V12.963H13.5614V12.0371Z" fill="#418A3F"/>
<path d="M12.7635 12.0371H11.9658V12.963H12.7635V12.0371Z" fill="#469041"/>
<path d="M11.9657 12.0371H11.168V12.963H11.9657V12.0371Z" fill="#4A9542"/>
<path d="M11.1678 12.0371H10.3701V12.963H11.1678V12.0371Z" fill="#4D9943"/>
<path d="M10.37 12.0371H9.57227V12.963H10.37V12.0371Z" fill="#509E44"/>
<path d="M9.57311 12.0371H8.77539V12.963H9.57311V12.0371Z" fill="#54A245"/>
<path d="M8.77526 12.0371H7.97754V12.963H8.77526V12.0371Z" fill="#57A545"/>
<path d="M7.97741 12.0371H7.17969V12.963H7.97741V12.0371Z" fill="#59A946"/>
<path d="M7.17956 12.0371H6.38184V12.963H7.17956V12.0371Z" fill="#5CAC47"/>
<path d="M6.38171 12.0371H5.58398V12.963H6.38171V12.0371Z" fill="#5FB047"/>
<path d="M5.58385 12.0371H4.78613V12.963H5.58385V12.0371Z" fill="#61B347"/>
<path d="M4.786 12.0371H3.98828V12.963H4.786V12.0371Z" fill="#3F873F"/>
<path d="M3.98815 12.0371H3.19043V12.963H3.98815V12.0371Z" fill="#3F873F"/>
<path d="M3.19128 12.0371H2.39355V12.963H3.19128V12.0371Z" fill="#3F873F"/>
<path d="M2.39342 12.0371H1.5957V12.963H2.39342V12.0371Z" fill="#3F873F"/>
<path d="M1.59557 12.0371H0.797852V12.963H1.59557V12.0371Z" fill="#408840"/>
<path d="M0.797721 12.0371H0V12.963H0.797721V12.0371Z" fill="#3EA72F"/>
<path d="M15.954 11.1111H15.1562V12.037H15.954V11.1111Z" fill="#3F8C3C"/>
<path d="M15.1571 11.1111H14.3594V12.037H15.1571V11.1111Z" fill="#3E8C3D"/>
<path d="M14.3592 11.1111H13.5615V12.037H14.3592V11.1111Z" fill="#3F873F"/>
<path d="M13.5614 11.1111H12.7637V12.037H13.5614V11.1111Z" fill="#438A40"/>
<path d="M12.7635 11.1111H11.9658V12.037H12.7635V11.1111Z" fill="#468F40"/>
<path d="M11.9657 11.1111H11.168V12.037H11.9657V11.1111Z" fill="#499442"/>
<path d="M11.1678 11.1111H10.3701V12.037H11.1678V11.1111Z" fill="#4D9943"/>
<path d="M10.37 11.1111H9.57227V12.037H10.37V11.1111Z" fill="#509D44"/>
<path d="M9.57311 11.1111H8.77539V12.037H9.57311V11.1111Z" fill="#54A245"/>
<path d="M8.77526 11.1111H7.97754V12.037H8.77526V11.1111Z" fill="#56A546"/>
<path d="M7.97741 11.1111H7.17969V12.037H7.97741V11.1111Z" fill="#59A946"/>
<path d="M7.17956 11.1111H6.38184V12.037H7.17956V11.1111Z" fill="#5CAC47"/>
<path d="M6.38171 11.1111H5.58398V12.037H6.38171V11.1111Z" fill="#5FB049"/>
<path d="M5.58385 11.1111H4.78613V12.037H5.58385V11.1111Z" fill="#62B349"/>
<path d="M4.786 11.1111H3.98828V12.037H4.786V11.1111Z" fill="#438D40"/>
<path d="M3.98815 11.1111H3.19043V12.037H3.98815V11.1111Z" fill="#3F873F"/>
<path d="M3.19128 11.1111H2.39355V12.037H3.19128V11.1111Z" fill="#408740"/>
<path d="M2.39342 11.1111H1.5957V12.037H2.39342V11.1111Z" fill="#3F873F"/>
<path d="M1.59557 11.1111H0.797852V12.037H1.59557V11.1111Z" fill="#40A134"/>
<path d="M0.797721 11.1111H0V12.037H0.797721V11.1111Z" fill="#3DA231"/>
<path d="M15.954 10.1853H15.1562V11.1112H15.954V10.1853Z" fill="#3F8A3D"/>
<path d="M15.1571 10.1853H14.3594V11.1112H15.1571V10.1853Z" fill="#408C3E"/>
<path d="M14.3592 10.1853H13.5615V11.1112H14.3592V10.1853Z" fill="#408740"/>
<path d="M13.5614 10.1853H12.7637V11.1112H13.5614V10.1853Z" fill="#428A40"/>
<path d="M12.7635 10.1853H11.9658V11.1112H12.7635V10.1853Z" fill="#469042"/>
<path d="M11.9657 10.1853H11.168V11.1112H11.9657V10.1853Z" fill="#499442"/>
<path d="M11.1678 10.1853H10.3701V11.1112H11.1678V10.1853Z" fill="#4D9943"/>
<path d="M10.37 10.1853H9.57227V11.1112H10.37V10.1853Z" fill="#509D43"/>
<path d="M9.57311 10.1853H8.77539V11.1112H9.57311V10.1853Z" fill="#53A144"/>
<path d="M8.77526 10.1853H7.97754V11.1112H8.77526V10.1853Z" fill="#56A545"/>
<path d="M7.97741 10.1853H7.17969V11.1112H7.97741V10.1853Z" fill="#59A946"/>
<path d="M7.17956 10.1853H6.38184V11.1112H7.17956V10.1853Z" fill="#5BAC47"/>
<path d="M6.38171 10.1853H5.58398V11.1112H6.38171V10.1853Z" fill="#5FB048"/>
<path d="M5.58385 10.1853H4.78613V11.1112H5.58385V10.1853Z" fill="#61B448"/>
<path d="M4.786 10.1853H3.98828V11.1112H4.786V10.1853Z" fill="#64B749"/>
<path d="M3.98815 10.1853H3.19043V11.1112H3.98815V10.1853Z" fill="#3F873F"/>
<path d="M3.19128 10.1853H2.39355V11.1112H3.19128V10.1853Z" fill="#3F873F"/>
<path d="M2.39342 10.1853H1.5957V11.1112H2.39342V10.1853Z" fill="#3F913A"/>
<path d="M1.59557 10.1853H0.797852V11.1112H1.59557V10.1853Z" fill="#3E9E35"/>
<path d="M0.797721 10.1853H0V11.1112H0.797721V10.1853Z" fill="#3E9F33"/>
<path d="M15.954 9.25928H15.1562V10.1852H15.954V9.25928Z" fill="#3F8A3E"/>
<path d="M15.1571 9.25928H14.3594V10.1852H15.1571V9.25928Z" fill="#408B3E"/>
<path d="M14.3592 9.25928H13.5615V10.1852H14.3592V9.25928Z" fill="#3F8A3E"/>
<path d="M13.5614 9.25928H12.7637V10.1852H13.5614V9.25928Z" fill="#428A40"/>
<path d="M12.7635 9.25928H11.9658V10.1852H12.7635V9.25928Z" fill="#468F41"/>
<path d="M11.9657 9.25928H11.168V10.1852H11.9657V9.25928Z" fill="#499441"/>
<path d="M11.1678 9.25928H10.3701V10.1852H11.1678V9.25928Z" fill="#4D9943"/>
<path d="M10.37 9.25928H9.57227V10.1852H10.37V9.25928Z" fill="#519E44"/>
<path d="M9.57311 9.25928H8.77539V10.1852H9.57311V9.25928Z" fill="#54A245"/>
<path d="M8.77526 9.25928H7.97754V10.1852H8.77526V9.25928Z" fill="#56A545"/>
<path d="M7.97741 9.25928H7.17969V10.1852H7.97741V9.25928Z" fill="#59A946"/>
<path d="M7.17956 9.25928H6.38184V10.1852H7.17956V9.25928Z" fill="#5CAC47"/>
<path d="M6.38171 9.25928H5.58398V10.1852H6.38171V9.25928Z" fill="#5FB049"/>
<path d="M5.58385 9.25928H4.78613V10.1852H5.58385V9.25928Z" fill="#61B348"/>
<path d="M4.786 9.25928H3.98828V10.1852H4.786V9.25928Z" fill="#64B749"/>
<path d="M3.98815 9.25928H3.19043V10.1852H3.98815V9.25928Z" fill="#64B749"/>
<path d="M3.19128 9.25928H2.39355V10.1852H3.19128V9.25928Z" fill="#408840"/>
<path d="M2.39342 9.25928H1.5957V10.1852H2.39342V9.25928Z" fill="#3E9837"/>
<path d="M1.59557 9.25928H0.797852V10.1852H1.59557V9.25928Z" fill="#3F9A37"/>
<path d="M0.797721 9.25928H0V10.1852H0.797721V9.25928Z" fill="#3F9C36"/>
<path d="M15.954 8.33325H15.1562V9.25918H15.954V8.33325Z" fill="#3E893D"/>
<path d="M15.1571 8.33325H14.3594V9.25918H15.1571V8.33325Z" fill="#408A3E"/>
<path d="M14.3592 8.33325H13.5615V9.25918H14.3592V8.33325Z" fill="#3F8A3E"/>
<path d="M13.5614 8.33325H12.7637V9.25918H13.5614V8.33325Z" fill="#438D3F"/>
<path d="M12.7635 8.33325H11.9658V9.25918H12.7635V8.33325Z" fill="#469042"/>
<path d="M11.9657 8.33325H11.168V9.25918H11.9657V8.33325Z" fill="#499441"/>
<path d="M11.1678 8.33325H10.3701V9.25918H11.1678V8.33325Z" fill="#4D9944"/>
<path d="M10.37 8.33325H9.57227V9.25918H10.37V8.33325Z" fill="#509D44"/>
<path d="M9.57311 8.33325H8.77539V9.25918H9.57311V8.33325Z" fill="#54A245"/>
<path d="M8.77526 8.33325H7.97754V9.25918H8.77526V8.33325Z" fill="#56A546"/>
<path d="M7.97741 8.33325H7.17969V9.25918H7.97741V8.33325Z" fill="#59A946"/>
<path d="M7.17956 8.33325H6.38184V9.25918H7.17956V8.33325Z" fill="#5CAC46"/>
<path d="M6.38171 8.33325H5.58398V9.25918H6.38171V8.33325Z" fill="#5EB048"/>
<path d="M5.58385 8.33325H4.78613V9.25918H5.58385V8.33325Z" fill="#62B449"/>
<path d="M4.786 8.33325H3.98828V9.25918H4.786V8.33325Z" fill="#64B74A"/>
<path d="M3.98815 8.33325H3.19043V9.25918H3.98815V8.33325Z" fill="#66B94A"/>
<path d="M3.19128 8.33325H2.39355V9.25918H3.19128V8.33325Z" fill="#3E9439"/>
<path d="M2.39342 8.33325H1.5957V9.25918H2.39342V8.33325Z" fill="#3E9438"/>
<path d="M1.59557 8.33325H0.797852V9.25918H1.59557V8.33325Z" fill="#3F9638"/>
<path d="M0.797721 8.33325H0V9.25918H0.797721V8.33325Z" fill="#3D9736"/>
<path d="M15.954 7.40747H15.1562V8.3334H15.954V7.40747Z" fill="#3F883E"/>
<path d="M15.1571 7.40747H14.3594V8.3334H15.1571V7.40747Z" fill="#3F893E"/>
<path d="M14.3592 7.40747H13.5615V8.3334H14.3592V7.40747Z" fill="#40893E"/>
<path d="M13.5614 7.40747H12.7637V8.3334H13.5614V7.40747Z" fill="#4B9642"/>
<path d="M12.7635 7.40747H11.9658V8.3334H12.7635V7.40747Z" fill="#458F41"/>
<path d="M11.9657 7.40747H11.168V8.3334H11.9657V7.40747Z" fill="#499442"/>
<path d="M11.1678 7.40747H10.3701V8.3334H11.1678V7.40747Z" fill="#4D9942"/>
<path d="M10.37 7.40747H9.57227V8.3334H10.37V7.40747Z" fill="#509D44"/>
<path d="M9.57311 7.40747H8.77539V8.3334H9.57311V7.40747Z" fill="#53A245"/>
<path d="M8.77526 7.40747H7.97754V8.3334H8.77526V7.40747Z" fill="#56A546"/>
<path d="M7.97741 7.40747H7.17969V8.3334H7.97741V7.40747Z" fill="#59A946"/>
<path d="M7.17956 7.40747H6.38184V8.3334H7.17956V7.40747Z" fill="#5CAC47"/>
<path d="M6.38171 7.40747H5.58398V8.3334H6.38171V7.40747Z" fill="#5EB047"/>
<path d="M5.58385 7.40747H4.78613V8.3334H5.58385V7.40747Z" fill="#61B348"/>
<path d="M4.786 7.40747H3.98828V8.3334H4.786V7.40747Z" fill="#65B74A"/>
<path d="M3.98815 7.40747H3.19043V8.3334H3.98815V7.40747Z" fill="#66B94A"/>
<path d="M3.19128 7.40747H2.39355V8.3334H3.19128V7.40747Z" fill="#69BC4A"/>
<path d="M2.39342 7.40747H1.5957V8.3334H2.39342V7.40747Z" fill="#3F9339"/>
<path d="M1.59557 7.40747H0.797852V8.3334H1.59557V7.40747Z" fill="#3D933A"/>
<path d="M0.797721 7.40747H0V8.3334H0.797721V7.40747Z" fill="#3E9539"/>
<path d="M15.954 6.48145H15.1562V7.40737H15.954V6.48145Z" fill="#40883F"/>
<path d="M15.1571 6.48145H14.3594V7.40737H15.1571V6.48145Z" fill="#40893F"/>
<path d="M14.3592 6.48145H13.5615V7.40737H14.3592V6.48145Z" fill="#4E9A43"/>
<path d="M13.5614 6.48145H12.7637V7.40737H13.5614V6.48145Z" fill="#4B9741"/>
<path d="M12.7635 6.48145H11.9658V7.40737H12.7635V6.48145Z" fill="#499342"/>
<path d="M11.9657 6.48145H11.168V7.40737H11.9657V6.48145Z" fill="#499442"/>
<path d="M11.1678 6.48145H10.3701V7.40737H11.1678V6.48145Z" fill="#4D9943"/>
<path d="M10.37 6.48145H9.57227V7.40737H10.37V6.48145Z" fill="#519D44"/>
<path d="M9.57311 6.48145H8.77539V7.40737H9.57311V6.48145Z" fill="#53A245"/>
<path d="M8.77526 6.48145H7.97754V7.40737H8.77526V6.48145Z" fill="#56A545"/>
<path d="M7.97741 6.48145H7.17969V7.40737H7.97741V6.48145Z" fill="#59A946"/>
<path d="M7.17956 6.48145H6.38184V7.40737H7.17956V6.48145Z" fill="#5CAC47"/>
<path d="M6.38171 6.48145H5.58398V7.40737H6.38171V6.48145Z" fill="#5FB048"/>
<path d="M5.58385 6.48145H4.78613V7.40737H5.58385V6.48145Z" fill="#61B348"/>
<path d="M4.786 6.48145H3.98828V7.40737H4.786V6.48145Z" fill="#65B84A"/>
<path d="M3.98815 6.48145H3.19043V7.40737H3.98815V6.48145Z" fill="#66B94A"/>
<path d="M3.19128 6.48145H2.39355V7.40737H3.19128V6.48145Z" fill="#67BB4A"/>
<path d="M2.39342 6.48145H1.5957V7.40737H2.39342V6.48145Z" fill="#5FB347"/>
<path d="M1.59557 6.48145H0.797852V7.40737H1.59557V6.48145Z" fill="#40923B"/>
<path d="M0.797721 6.48145H0V7.40737H0.797721V6.48145Z" fill="#40943B"/>
<path d="M15.954 5.55566H15.1562V6.48159H15.954V5.55566Z" fill="#408840"/>
<path d="M15.1571 5.55566H14.3594V6.48159H15.1571V5.55566Z" fill="#408A3F"/>
<path d="M14.3592 5.55566H13.5615V6.48159H14.3592V5.55566Z" fill="#4F9C43"/>
<path d="M13.5614 5.55566H12.7637V6.48159H13.5614V5.55566Z" fill="#4D9A43"/>
<path d="M12.7635 5.55566H11.9658V6.48159H12.7635V5.55566Z" fill="#4C9743"/>
<path d="M11.9657 5.55566H11.168V6.48159H11.9657V5.55566Z" fill="#4A9542"/>
<path d="M11.1678 5.55566H10.3701V6.48159H11.1678V5.55566Z" fill="#4D9943"/>
<path d="M10.37 5.55566H9.57227V6.48159H10.37V5.55566Z" fill="#509D44"/>
<path d="M9.57311 5.55566H8.77539V6.48159H9.57311V5.55566Z" fill="#53A244"/>
<path d="M8.77526 5.55566H7.97754V6.48159H8.77526V5.55566Z" fill="#55A545"/>
<path d="M7.97741 5.55566H7.17969V6.48159H7.97741V5.55566Z" fill="#59A946"/>
<path d="M7.17956 5.55566H6.38184V6.48159H7.17956V5.55566Z" fill="#5CAC46"/>
<path d="M6.38171 5.55566H5.58398V6.48159H6.38171V5.55566Z" fill="#5EAF47"/>
<path d="M5.58385 5.55566H4.78613V6.48159H5.58385V5.55566Z" fill="#62B448"/>
<path d="M4.786 5.55566H3.98828V6.48159H4.786V5.55566Z" fill="#65B84A"/>
<path d="M3.98815 5.55566H3.19043V6.48159H3.98815V5.55566Z" fill="#66B94A"/>
<path d="M3.19128 5.55566H2.39355V6.48159H3.19128V5.55566Z" fill="#67BB4A"/>
<path d="M2.39342 5.55566H1.5957V6.48159H2.39342V5.55566Z" fill="#69BD4A"/>
<path d="M1.59557 5.55566H0.797852V6.48159H1.59557V5.55566Z" fill="#3F913C"/>
<path d="M0.797721 5.55566H0V6.48159H0.797721V5.55566Z" fill="#40913B"/>
<path d="M15.954 4.62964H15.1562V5.55556H15.954V4.62964Z" fill="#3F873E"/>
<path d="M15.1571 4.62964H14.3594V5.55556H15.1571V4.62964Z" fill="#53A145"/>
<path d="M14.3592 4.62964H13.5615V5.55556H14.3592V4.62964Z" fill="#519E44"/>
<path d="M13.5614 4.62964H12.7637V5.55556H13.5614V4.62964Z" fill="#4F9C44"/>
<path d="M12.7635 4.62964H11.9658V5.55556H12.7635V4.62964Z" fill="#4D9943"/>
<path d="M11.9657 4.62964H11.168V5.55556H11.9657V4.62964Z" fill="#4A9542"/>
<path d="M11.1678 4.62964H10.3701V5.55556H11.1678V4.62964Z" fill="#4D9943"/>
<path d="M10.37 4.62964H9.57227V5.55556H10.37V4.62964Z" fill="#519E45"/>
<path d="M9.57311 4.62964H8.77539V5.55556H9.57311V4.62964Z" fill="#54A245"/>
<path d="M8.77526 4.62964H7.97754V5.55556H8.77526V4.62964Z" fill="#56A546"/>
<path d="M7.97741 4.62964H7.17969V5.55556H7.97741V4.62964Z" fill="#5AAA47"/>
<path d="M7.17956 4.62964H6.38184V5.55556H7.17956V4.62964Z" fill="#5CAC47"/>
<path d="M6.38171 4.62964H5.58398V5.55556H6.38171V4.62964Z" fill="#5FB048"/>
<path d="M5.58385 4.62964H4.78613V5.55556H5.58385V4.62964Z" fill="#61B348"/>
<path d="M4.786 4.62964H3.98828V5.55556H4.786V4.62964Z" fill="#65B84A"/>
<path d="M3.98815 4.62964H3.19043V5.55556H3.98815V4.62964Z" fill="#65B949"/>
<path d="M3.19128 4.62964H2.39355V5.55556H3.19128V4.62964Z" fill="#67BB4A"/>
<path d="M2.39342 4.62964H1.5957V5.55556H2.39342V4.62964Z" fill="#68BD4A"/>
<path d="M1.59557 4.62964H0.797852V5.55556H1.59557V4.62964Z" fill="#6BC04C"/>
<path d="M0.797721 4.62964H0V5.55556H0.797721V4.62964Z" fill="#3F8F3C"/>
<path d="M15.1571 3.70361H14.3594V4.62954H15.1571V3.70361Z" fill="#54A346"/>
<path d="M14.3592 3.70361H13.5615V4.62954H14.3592V3.70361Z" fill="#53A145"/>
<path d="M13.5614 3.70361H12.7637V4.62954H13.5614V3.70361Z" fill="#519E44"/>
<path d="M12.7635 3.70361H11.9658V4.62954H12.7635V3.70361Z" fill="#4F9C44"/>
<path d="M11.9657 3.70361H11.168V4.62954H11.9657V3.70361Z" fill="#4D9943"/>
<path d="M11.1678 3.70361H10.3701V4.62954H11.1678V3.70361Z" fill="#4A9642"/>
<path d="M10.37 3.70361H9.57227V4.62954H10.37V3.70361Z" fill="#509D43"/>
<path d="M9.57311 3.70361H8.77539V4.62954H9.57311V3.70361Z" fill="#54A245"/>
<path d="M8.77526 3.70361H7.97754V4.62954H8.77526V3.70361Z" fill="#56A546"/>
<path d="M7.97741 3.70361H7.17969V4.62954H7.97741V3.70361Z" fill="#59A946"/>
<path d="M7.17956 3.70361H6.38184V4.62954H7.17956V3.70361Z" fill="#5BAC47"/>
<path d="M6.38171 3.70361H5.58398V4.62954H6.38171V3.70361Z" fill="#5FB048"/>
<path d="M5.58385 3.70361H4.78613V4.62954H5.58385V3.70361Z" fill="#61B348"/>
<path d="M4.786 3.70361H3.98828V4.62954H4.786V3.70361Z" fill="#64B749"/>
<path d="M3.98815 3.70361H3.19043V4.62954H3.98815V3.70361Z" fill="#66B849"/>
<path d="M3.19128 3.70361H2.39355V4.62954H3.19128V3.70361Z" fill="#68BB4A"/>
<path d="M2.39342 3.70361H1.5957V4.62954H2.39342V3.70361Z" fill="#69BD4B"/>
<path d="M1.59557 3.70361H0.797852V4.62954H1.59557V3.70361Z" fill="#6BBE4C"/>
<path d="M13.5614 2.77783H12.7637V3.70376H13.5614V2.77783Z" fill="#53A144"/>
<path d="M12.7635 2.77783H11.9658V3.70376H12.7635V2.77783Z" fill="#519E44"/>
<path d="M11.9657 2.77783H11.168V3.70376H11.9657V2.77783Z" fill="#4F9B44"/>
<path d="M11.1678 2.77783H10.3701V3.70376H11.1678V2.77783Z" fill="#4D9843"/>
<path d="M10.37 2.77783H9.57227V3.70376H10.37V2.77783Z" fill="#4C9843"/>
<path d="M9.57311 2.77783H8.77539V3.70376H9.57311V2.77783Z" fill="#54A245"/>
<path d="M8.77526 2.77783H7.97754V3.70376H8.77526V2.77783Z" fill="#57A646"/>
<path d="M7.97741 2.77783H7.17969V3.70376H7.97741V2.77783Z" fill="#59AA47"/>
<path d="M7.17956 2.77783H6.38184V3.70376H7.17956V2.77783Z" fill="#5CAC47"/>
<path d="M6.38171 2.77783H5.58398V3.70376H6.38171V2.77783Z" fill="#5FB048"/>
<path d="M5.58385 2.77783H4.78613V3.70376H5.58385V2.77783Z" fill="#62B449"/>
<path d="M4.786 2.77783H3.98828V3.70376H4.786V2.77783Z" fill="#64B648"/>
<path d="M3.98815 2.77783H3.19043V3.70376H3.98815V2.77783Z" fill="#66B94A"/>
<path d="M3.19128 2.77783H2.39355V3.70376H3.19128V2.77783Z" fill="#67BB4A"/>
<path d="M11.9657 1.85181H11.168V2.77773H11.9657V1.85181Z" fill="#509D44"/>
<path d="M11.1678 1.85181H10.3701V2.77773H11.1678V1.85181Z" fill="#4E9A43"/>
<path d="M10.37 1.85181H9.57227V2.77773H10.37V1.85181Z" fill="#4C9842"/>
<path d="M9.57311 1.85181H8.77539V2.77773H9.57311V1.85181Z" fill="#53A245"/>
<path d="M8.77526 1.85181H7.97754V2.77773H8.77526V1.85181Z" fill="#56A546"/>
<path d="M7.97741 1.85181H7.17969V2.77773H7.97741V1.85181Z" fill="#59A946"/>
<path d="M7.17956 1.85181H6.38184V2.77773H7.17956V1.85181Z" fill="#5CAC46"/>
<path d="M6.38171 1.85181H5.58398V2.77773H6.38171V1.85181Z" fill="#5EB048"/>
<path d="M5.58385 1.85181H4.78613V2.77773H5.58385V1.85181Z" fill="#62B449"/>
<path d="M4.786 1.85181H3.98828V2.77773H4.786V1.85181Z" fill="#65B84C"/>
<path d="M10.37 0.926025H9.57227V1.85195H10.37V0.926025Z" fill="#4D9B42"/>
<path d="M9.57311 0.926025H8.77539V1.85195H9.57311V0.926025Z" fill="#4B9742"/>
<path d="M8.77526 0.926025H7.97754V1.85195H8.77526V0.926025Z" fill="#55A545"/>
<path d="M7.97741 0.926025H7.17969V1.85195H7.97741V0.926025Z" fill="#59A946"/>
<path d="M7.17956 0.926025H6.38184V1.85195H7.17956V0.926025Z" fill="#5BAC46"/>
<path d="M6.38171 0.926025H5.58398V1.85195H6.38171V0.926025Z" fill="#5FB048"/>
<path d="M8.77526 0H7.97754V0.925926H8.77526V0Z" fill="#4E9A43"/>
<path d="M7.97741 0H7.17969V0.925926H7.97741V0Z" fill="#58A947"/>
<path d="M7.17956 0H6.38184V0.925926H7.17956V0Z" fill="#5FB048"/>
</g>
<defs>
<clipPath id="clip0_1850_9786">
<rect width="16" height="18.5299" fill="white"/>
</clipPath>
</defs>
</svg>
