<svg width="310" height="311" viewBox="0 0 310 311" fill="none" xmlns="http://www.w3.org/2000/svg">
<rect width="310" height="310" transform="translate(0 0.5)" fill="white"/>
<path d="M258.367 115.481V151.488H213.373V106.488H204.381V79.5062H195.388V106.488H159.387V52.4938H168.379V61.4876H177.372V52.4938H195.388V43.5H114.393V52.4938H132.378V61.4876H141.371V52.4938H150.394V106.488H114.393V79.5062H105.401V106.488H96.377V151.488H51.3832V115.481H42.3906V196.488H51.3832V160.512H96.377V205.512H105.401V232.494H114.393V205.512H150.394V259.506H141.371V250.512H132.378V259.506H123.386V268.5H186.396V259.506H177.372V250.512H168.379V259.506H159.387V205.512H195.388V232.494H204.381V205.512H213.373V160.512H258.367V196.488H267.391V115.481H258.367ZM204.381 115.481V151.488H159.387V115.481H204.381ZM105.401 115.481H150.394V151.488H105.401V115.481ZM105.401 196.488V160.512H150.394V196.488H105.401ZM204.381 196.488H159.387V160.512H204.381V196.488Z" fill="black"/>
<path d="M258.367 196.488H249.374V214.506H258.367V196.488Z" fill="black"/>
<path d="M258.367 97.5254H249.374V115.513H258.367V97.5254Z" fill="black"/>
<path d="M249.377 214.506H240.383V223.502H249.377V214.506Z" fill="black"/>
<path d="M249.377 88.5H240.383V97.4956H249.377V88.5Z" fill="black"/>
<path d="M240.384 223.531H231.39V232.527H240.384V223.531Z" fill="black"/>
<path d="M240.384 79.5371H231.39V88.5327H240.384V79.5371Z" fill="black"/>
<path d="M231.391 232.495H222.365V241.521H231.391V232.495Z" fill="black"/>
<path d="M240.383 97.5254H213.374V106.519H240.383V97.5254Z" fill="black"/>
<path d="M231.391 70.4819H222.365V79.5085H231.391V70.4819Z" fill="black"/>
<path d="M222.368 241.55H213.374V250.546H222.368V241.55Z" fill="black"/>
<path d="M240.383 205.543H213.374V214.537H240.383V205.543Z" fill="black"/>
<path d="M222.368 61.519H213.374V70.5146H222.368V61.519Z" fill="black"/>
<path d="M213.375 250.513H186.397V259.506H213.375V250.513Z" fill="black"/>
<path d="M213.372 52.4941H195.387V61.4879H213.372V52.4941Z" fill="black"/>
<path d="M195.392 232.495H186.397V241.521H195.392V232.495Z" fill="black"/>
<path d="M195.392 70.4819H186.397V79.5085H195.392V70.4819Z" fill="black"/>
<path d="M186.397 241.55H177.372V250.546H186.397V241.55Z" fill="black"/>
<path d="M186.397 61.519H177.372V70.5146H186.397V61.519Z" fill="black"/>
<path d="M132.38 241.55H123.386V250.546H132.38V241.55Z" fill="black"/>
<path d="M132.38 61.519H123.386V70.5146H132.38V61.519Z" fill="black"/>
<path d="M123.387 250.513H96.3779V259.506H123.387V250.513Z" fill="black"/>
<path d="M123.391 232.495H114.396V241.521H123.391V232.495Z" fill="black"/>
<path d="M123.391 70.4819H114.396V79.5085H123.391V70.4819Z" fill="black"/>
<path d="M114.394 52.4941H96.3779V61.4879H114.394V52.4941Z" fill="black"/>
<path d="M96.3811 241.55H87.3867V250.546H96.3811V241.55Z" fill="black"/>
<path d="M96.3771 97.5254H69.3994V106.519H96.3771V97.5254Z" fill="black"/>
<path d="M96.3811 61.519H87.3867V70.5146H96.3811V61.519Z" fill="black"/>
<path d="M87.3859 232.495H78.3916V241.521H87.3859V232.495Z" fill="black"/>
<path d="M96.3771 205.543H69.3994V214.537H96.3771V205.543Z" fill="black"/>
<path d="M87.3859 70.4819H78.3916V79.5085H87.3859V70.4819Z" fill="black"/>
<path d="M78.3938 223.531H69.3994V232.527H78.3938V223.531Z" fill="black"/>
<path d="M78.3938 79.5371H69.3994V88.5327H78.3938V79.5371Z" fill="black"/>
<path d="M69.3994 214.506H60.374V223.502H69.3994V214.506Z" fill="black"/>
<path d="M69.3994 88.5H60.374V97.4956H69.3994V88.5Z" fill="black"/>
<path d="M60.3763 196.488H51.3838V214.506H60.3763V196.488Z" fill="black"/>
<path d="M60.3763 97.5254H51.3838V115.513H60.3763V97.5254Z" fill="black"/>
</svg>
