<svg width="56" height="55" viewBox="0 0 56 55" fill="none" xmlns="http://www.w3.org/2000/svg">
<path d="M51.4977 17.9325V26.4345H40.8735V15.8088H38.7501V9.43781H36.6267V15.8088H28.1259V3.05946H30.2493V5.18314H32.3727V3.05946H36.6267V0.935791H17.5017V3.05946H21.7484V5.18314H23.8718V3.05946H26.0025V15.8088H17.5017V9.43781H15.3783V15.8088H13.2476V26.4345H2.62338V17.9325H0.5V37.0602H2.62338V28.5655H13.2476V39.1912H15.3783V45.5622H17.5017V39.1912H26.0025V51.9406H23.8718V49.8169H21.7484V51.9406H19.6251V54.0642H34.5034V51.9406H32.3727V49.8169H30.2493V51.9406H28.1259V39.1912H36.6267V45.5622H38.7501V37.0602H40.8735V28.5655H51.4977V37.0602H53.6284V17.9325H51.4977ZM38.7501 17.9325V26.4345H28.1259V17.9325H38.7501ZM15.3783 17.9325H26.0025V26.4345H15.3783V17.9325ZM15.3783 37.0602V28.5655H26.0025V37.0602H15.3783ZM38.7501 37.0602H28.1259V28.5655H38.7501V37.0602Z" fill="black"/>
<path d="M51.4974 13.6926H49.374V17.94H51.4974V13.6926Z" fill="black"/>
<path d="M49.3738 11.5615H47.25V13.6856H49.3738V11.5615Z" fill="black"/>
<path d="M47.2508 9.44495H45.127V11.569H47.2508V9.44495Z" fill="black"/>
<path d="M47.2505 13.6926H40.873V15.8163H47.2505V13.6926Z" fill="black"/>
<path d="M45.1262 7.30701H42.9951V9.43843H45.1262V7.30701Z" fill="black"/>
<path d="M42.9968 5.19055H40.873V7.31465H42.9968V5.19055Z" fill="black"/>
<path d="M38.6576 49.8169H34.5039V51.9406H38.6576V49.8169Z" fill="black"/>
<path d="M40.8727 3.05945H36.626V5.18312H40.8727V3.05945Z" fill="black"/>
<path d="M36.6277 45.5623H34.5039V47.6937H36.6277V45.5623Z" fill="black"/>
<path d="M36.6277 7.30701H34.5039V9.43843H36.6277V7.30701Z" fill="black"/>
<path d="M34.5022 47.7007H32.3711V49.8248H34.5022V47.7007Z" fill="black"/>
<path d="M34.5022 5.19055H32.3711V7.31465H34.5022V5.19055Z" fill="black"/>
<path d="M21.7478 47.7007H19.624V49.8248H21.7478V47.7007Z" fill="black"/>
<path d="M21.7478 5.19055H19.624V7.31465H21.7478V5.19055Z" fill="black"/>
<path d="M19.6255 49.8169H13.248V51.9406H19.6255V49.8169Z" fill="black"/>
<path d="M19.6267 45.5623H17.5029V47.6937H19.6267V45.5623Z" fill="black"/>
<path d="M19.6267 7.30701H17.5029V9.43843H19.6267V7.30701Z" fill="black"/>
<path d="M17.5021 3.05945H13.248V5.18312H17.5021V3.05945Z" fill="black"/>
<path d="M13.2498 47.7007H11.126V49.8248H13.2498V47.7007Z" fill="black"/>
<path d="M13.249 13.6926H6.87891V15.8163H13.249V13.6926Z" fill="black"/>
<path d="M13.2498 5.19055H11.126V7.31465H13.2498V5.19055Z" fill="black"/>
<path d="M11.1248 45.5623H9.00098V47.6937H11.1248V45.5623Z" fill="black"/>
<path d="M13.249 39.1987H6.87891V41.3224H13.249V39.1987Z" fill="black"/>
<path d="M11.1248 7.30701H9.00098V9.43843H11.1248V7.30701Z" fill="black"/>
<path d="M9.00271 43.4456H6.87891V45.5697H9.00271V43.4456Z" fill="black"/>
<path d="M9.00271 9.44495H6.87891V11.569H9.00271V9.44495Z" fill="black"/>
<path d="M6.87819 41.3148H4.74707V43.4389H6.87819V41.3148Z" fill="black"/>
<path d="M6.87819 11.5615H4.74707V13.6856H6.87819V11.5615Z" fill="black"/>
<path d="M4.7474 37.0604H2.62402V41.3151H4.7474V37.0604Z" fill="black"/>
<path d="M4.7474 13.6926H2.62402V17.94H4.7474V13.6926Z" fill="black"/>
<path d="M42.0059 54.064H43.9378V52.1321H42.0059V54.064Z" fill="black"/>
<path d="M43.9385 52.1323H45.8704V50.2003H43.9385V52.1323Z" fill="black"/>
<path d="M47.8018 48.2682H49.7337V46.3363H47.8018V48.2682Z" fill="black"/>
<path d="M45.8691 50.2003H47.8011V48.2683H45.8691V50.2003Z" fill="black"/>
<path d="M49.7334 46.3362H51.6653V44.4043H49.7334V46.3362Z" fill="black"/>
<path d="M53.5975 40.5405C49.7336 40.5405 45.8697 40.5405 42.0059 40.5405V42.4725C45.2258 42.4725 48.4457 42.4725 51.6656 42.4725V44.4044H53.5975C53.5975 47.6243 53.5975 50.8442 53.5975 54.0641H55.5295C55.5295 49.5563 55.5295 45.0484 55.5295 40.5405H53.5975Z" fill="black"/>
</svg>
