<svg width="24" height="24" viewBox="0 0 24 24" fill="none" xmlns="http://www.w3.org/2000/svg">
<path fill-rule="evenodd" clip-rule="evenodd" d="M23.9996 0H3.8506H3.80078H0.964844V0.794007H0V4.79676H3.8012V3.19599H6.73259V4.00298H7.74023V7.23653H7.73982V6.39551H6.73242V7.23653H3.8012V5.59604H2.88575V4.79681H0V5.59604V6.25293V19.9972V19.999V23.1986H0.964844V24H23.0865V23.1987H24.0003V12.7967H21.2188V23.1969H21.2184V19.9972H17.314V12.7967H16.3506V11.9975H13.4648V19.9972H9.5715V8.79772H7.74023V19.9972H3.8012V8.79754H7.74023V8.7976H12.5135V10.4163H13.4733V9.6065H14.4331V8.7976H19.2367V9.60198H20.198V8.7976V3.19597L20.1992 3.19599V12.7967H24.0004V3.19597H23.9996V0Z" fill="#2867B2"/>
</svg>
