<svg width="16" height="12" viewBox="0 0 16 12" fill="none" xmlns="http://www.w3.org/2000/svg">
<path d="M11.1998 10.7249H10.666V11.0624H11.1998V10.7249Z" fill="#146EF5"/>
<path d="M10.6666 10.7249H10.1328V11.0624H10.6666V10.7249Z" fill="#146EF5"/>
<path d="M10.1334 10.7249H9.59961V11.0624H10.1334V10.7249Z" fill="#146EF5"/>
<path d="M9.60015 10.7249H9.06641V11.0624H9.60015V10.7249Z" fill="#146EF5"/>
<path d="M9.06695 10.7249H8.5332V11.0624H9.06695V10.7249Z" fill="#146EF5"/>
<path d="M8.53375 10.7249H8V11.0624H8.53375V10.7249Z" fill="#146EF5"/>
<path d="M8.00055 10.7249H7.4668V11.0624H8.00055V10.7249Z" fill="#146EF5"/>
<path d="M7.46734 10.7249H6.93359V11.0624H7.46734V10.7249Z" fill="#146EF5"/>
<path d="M6.93414 10.7249H6.40039V11.0624H6.93414V10.7249Z" fill="#146EF5"/>
<path d="M1.06695 10.7249H0.533203V11.0624H1.06695V10.7249Z" fill="#146EF5"/>
<path d="M0.533748 10.7249H0V11.0624H0.533748V10.7249Z" fill="#146EF5"/>
<path d="M11.1998 10.3875H10.666V10.725H11.1998V10.3875Z" fill="#146EF5"/>
<path d="M10.6666 10.3875H10.1328V10.725H10.6666V10.3875Z" fill="#146EF5"/>
<path d="M10.1334 10.3875H9.59961V10.725H10.1334V10.3875Z" fill="#146EF5"/>
<path d="M9.60015 10.3875H9.06641V10.725H9.60015V10.3875Z" fill="#146EF5"/>
<path d="M9.06695 10.3875H8.5332V10.725H9.06695V10.3875Z" fill="#146EF5"/>
<path d="M8.53375 10.3875H8V10.725H8.53375V10.3875Z" fill="#146EF5"/>
<path d="M8.00055 10.3875H7.4668V10.725H8.00055V10.3875Z" fill="#146EF5"/>
<path d="M7.46734 10.3875H6.93359V10.725H7.46734V10.3875Z" fill="#146EF5"/>
<path d="M6.93414 10.3875H6.40039V10.725H6.93414V10.3875Z" fill="#146EF5"/>
<path d="M2.66656 10.3875H2.13281V10.725H2.66656V10.3875Z" fill="#146EF5"/>
<path d="M2.13336 10.3875H1.59961V10.725H2.13336V10.3875Z" fill="#146EF5"/>
<path d="M1.60015 10.3875H1.06641V10.725H1.60015V10.3875Z" fill="#146EF5"/>
<path d="M1.06695 10.3875H0.533203V10.725H1.06695V10.3875Z" fill="#146EF5"/>
<path d="M0.533748 10.3875H0V10.725H0.533748V10.3875Z" fill="#146EF5"/>
<path d="M11.1998 10.05H10.666V10.3875H11.1998V10.05Z" fill="#146EF5"/>
<path d="M10.6666 10.05H10.1328V10.3875H10.6666V10.05Z" fill="#146EF5"/>
<path d="M10.1334 10.05H9.59961V10.3875H10.1334V10.05Z" fill="#146EF5"/>
<path d="M9.60015 10.05H9.06641V10.3875H9.60015V10.05Z" fill="#146EF5"/>
<path d="M9.06695 10.05H8.5332V10.3875H9.06695V10.05Z" fill="#146EF5"/>
<path d="M8.53375 10.05H8V10.3875H8.53375V10.05Z" fill="#146EF5"/>
<path d="M8.00055 10.05H7.4668V10.3875H8.00055V10.05Z" fill="#146EF5"/>
<path d="M7.46734 10.05H6.93359V10.3875H7.46734V10.05Z" fill="#146EF5"/>
<path d="M6.93414 10.05H6.40039V10.3875H6.93414V10.05Z" fill="#146EF5"/>
<path d="M3.73297 10.05H3.19922V10.3875H3.73297V10.05Z" fill="#146EF5"/>
<path d="M3.19976 10.05H2.66602V10.3875H3.19976V10.05Z" fill="#146EF5"/>
<path d="M2.66656 10.05H2.13281V10.3875H2.66656V10.05Z" fill="#146EF5"/>
<path d="M2.13336 10.05H1.59961V10.3875H2.13336V10.05Z" fill="#146EF5"/>
<path d="M1.60015 10.05H1.06641V10.3875H1.60015V10.05Z" fill="#146EF5"/>
<path d="M1.06695 10.05H0.533203V10.3875H1.06695V10.05Z" fill="#146EF5"/>
<path d="M0.533748 10.05H0V10.3875H0.533748V10.05Z" fill="#146EF5"/>
<path d="M11.1998 9.7124H10.666V10.0499H11.1998V9.7124Z" fill="#146EF5"/>
<path d="M10.6666 9.7124H10.1328V10.0499H10.6666V9.7124Z" fill="#146EF5"/>
<path d="M10.1334 9.7124H9.59961V10.0499H10.1334V9.7124Z" fill="#146EF5"/>
<path d="M9.60015 9.7124H9.06641V10.0499H9.60015V9.7124Z" fill="#146EF5"/>
<path d="M9.06695 9.7124H8.5332V10.0499H9.06695V9.7124Z" fill="#146EF5"/>
<path d="M8.53375 9.7124H8V10.0499H8.53375V9.7124Z" fill="#146EF5"/>
<path d="M8.00055 9.7124H7.4668V10.0499H8.00055V9.7124Z" fill="#146EF5"/>
<path d="M7.46734 9.7124H6.93359V10.0499H7.46734V9.7124Z" fill="#146EF5"/>
<path d="M4.26812 9.7124H3.73438V10.0499H4.26812V9.7124Z" fill="#146EF5"/>
<path d="M3.73297 9.7124H3.19922V10.0499H3.73297V9.7124Z" fill="#146EF5"/>
<path d="M3.19976 9.7124H2.66602V10.0499H3.19976V9.7124Z" fill="#146EF5"/>
<path d="M2.66656 9.7124H2.13281V10.0499H2.66656V9.7124Z" fill="#146EF5"/>
<path d="M2.13336 9.7124H1.59961V10.0499H2.13336V9.7124Z" fill="#146EF5"/>
<path d="M1.60015 9.7124H1.06641V10.0499H1.60015V9.7124Z" fill="#146EF5"/>
<path d="M1.06695 9.7124H0.533203V10.0499H1.06695V9.7124Z" fill="#146EF5"/>
<path d="M0.533748 9.7124H0V10.0499H0.533748V9.7124Z" fill="#146EF5"/>
<path d="M11.733 9.375H11.1992V9.7125H11.733V9.375Z" fill="#146EF5"/>
<path d="M11.1998 9.375H10.666V9.7125H11.1998V9.375Z" fill="#146EF5"/>
<path d="M10.6666 9.375H10.1328V9.7125H10.6666V9.375Z" fill="#146EF5"/>
<path d="M10.1334 9.375H9.59961V9.7125H10.1334V9.375Z" fill="#146EF5"/>
<path d="M9.60015 9.375H9.06641V9.7125H9.60015V9.375Z" fill="#146EF5"/>
<path d="M9.06695 9.375H8.5332V9.7125H9.06695V9.375Z" fill="#146EF5"/>
<path d="M8.53375 9.375H8V9.7125H8.53375V9.375Z" fill="#146EF5"/>
<path d="M8.00055 9.375H7.4668V9.7125H8.00055V9.375Z" fill="#146EF5"/>
<path d="M7.46734 9.375H6.93359V9.7125H7.46734V9.375Z" fill="#146EF5"/>
<path d="M5.33453 9.375H4.80078V9.7125H5.33453V9.375Z" fill="#1770F5"/>
<path d="M4.79937 9.375H4.26562V9.7125H4.79937V9.375Z" fill="#146EF5"/>
<path d="M4.26812 9.375H3.73438V9.7125H4.26812V9.375Z" fill="#146EF5"/>
<path d="M3.73297 9.375H3.19922V9.7125H3.73297V9.375Z" fill="#146EF5"/>
<path d="M3.19976 9.375H2.66602V9.7125H3.19976V9.375Z" fill="#146EF5"/>
<path d="M2.66656 9.375H2.13281V9.7125H2.66656V9.375Z" fill="#146EF5"/>
<path d="M2.13336 9.375H1.59961V9.7125H2.13336V9.375Z" fill="#146EF5"/>
<path d="M1.60015 9.375H1.06641V9.7125H1.60015V9.375Z" fill="#146EF5"/>
<path d="M1.06695 9.375H0.533203V9.7125H1.06695V9.375Z" fill="#146EF5"/>
<path d="M0.533748 9.375H0V9.7125H0.533748V9.375Z" fill="#146EF5"/>
<path d="M11.733 9.0376H11.1992V9.3751H11.733V9.0376Z" fill="#146EF5"/>
<path d="M11.1998 9.0376H10.666V9.3751H11.1998V9.0376Z" fill="#146EF5"/>
<path d="M10.6666 9.0376H10.1328V9.3751H10.6666V9.0376Z" fill="#146EF5"/>
<path d="M10.1334 9.0376H9.59961V9.3751H10.1334V9.0376Z" fill="#146EF5"/>
<path d="M9.60015 9.0376H9.06641V9.3751H9.60015V9.0376Z" fill="#146EF5"/>
<path d="M9.06695 9.0376H8.5332V9.3751H9.06695V9.0376Z" fill="#146EF5"/>
<path d="M8.53375 9.0376H8V9.3751H8.53375V9.0376Z" fill="#146EF5"/>
<path d="M8.00055 9.0376H7.4668V9.3751H8.00055V9.0376Z" fill="#146EF5"/>
<path d="M7.46734 9.0376H6.93359V9.3751H7.46734V9.0376Z" fill="#146EF5"/>
<path d="M5.33453 9.0376H4.80078V9.3751H5.33453V9.0376Z" fill="#146EF5"/>
<path d="M4.79937 9.0376H4.26562V9.3751H4.79937V9.0376Z" fill="#146EF5"/>
<path d="M4.26812 9.0376H3.73438V9.3751H4.26812V9.0376Z" fill="#146EF5"/>
<path d="M3.73297 9.0376H3.19922V9.3751H3.73297V9.0376Z" fill="#146EF5"/>
<path d="M3.19976 9.0376H2.66602V9.3751H3.19976V9.0376Z" fill="#146EF5"/>
<path d="M2.66656 9.0376H2.13281V9.3751H2.66656V9.0376Z" fill="#146EF5"/>
<path d="M2.13336 9.0376H1.59961V9.3751H2.13336V9.0376Z" fill="#146EF5"/>
<path d="M1.60015 9.0376H1.06641V9.3751H1.60015V9.0376Z" fill="#146EF5"/>
<path d="M1.06695 9.0376H0.533203V9.3751H1.06695V9.0376Z" fill="#146EF5"/>
<path d="M0.533748 9.0376H0V9.3751H0.533748V9.0376Z" fill="#146EF5"/>
<path d="M12.2681 8.69995H11.7344V9.03745H12.2681V8.69995Z" fill="#146EF5"/>
<path d="M11.733 8.69995H11.1992V9.03745H11.733V8.69995Z" fill="#146EF5"/>
<path d="M11.1998 8.69995H10.666V9.03745H11.1998V8.69995Z" fill="#146EF5"/>
<path d="M10.6666 8.69995H10.1328V9.03745H10.6666V8.69995Z" fill="#146EF5"/>
<path d="M10.1334 8.69995H9.59961V9.03745H10.1334V8.69995Z" fill="#146EF5"/>
<path d="M9.60015 8.69995H9.06641V9.03745H9.60015V8.69995Z" fill="#146EF5"/>
<path d="M9.06695 8.69995H8.5332V9.03745H9.06695V8.69995Z" fill="#146EF5"/>
<path d="M8.53375 8.69995H8V9.03745H8.53375V8.69995Z" fill="#146EF5"/>
<path d="M8.00055 8.69995H7.4668V9.03745H8.00055V8.69995Z" fill="#146EF5"/>
<path d="M5.86773 8.69995H5.33398V9.03745H5.86773V8.69995Z" fill="#146EF5"/>
<path d="M5.33453 8.69995H4.80078V9.03745H5.33453V8.69995Z" fill="#146EF5"/>
<path d="M4.79937 8.69995H4.26562V9.03745H4.79937V8.69995Z" fill="#146EF5"/>
<path d="M4.26812 8.69995H3.73438V9.03745H4.26812V8.69995Z" fill="#146EF5"/>
<path d="M3.73297 8.69995H3.19922V9.03745H3.73297V8.69995Z" fill="#146EF5"/>
<path d="M3.19976 8.69995H2.66602V9.03745H3.19976V8.69995Z" fill="#146EF5"/>
<path d="M2.66656 8.69995H2.13281V9.03745H2.66656V8.69995Z" fill="#146EF5"/>
<path d="M2.13336 8.69995H1.59961V9.03745H2.13336V8.69995Z" fill="#146EF5"/>
<path d="M1.60015 8.69995H1.06641V9.03745H1.60015V8.69995Z" fill="#146EF5"/>
<path d="M1.06695 8.69995H0.533203V9.03745H1.06695V8.69995Z" fill="#146EF5"/>
<path d="M0.533748 8.69995H0V9.03745H0.533748V8.69995Z" fill="#146EF5"/>
<path d="M12.2681 8.36255H11.7344V8.70005H12.2681V8.36255Z" fill="#146EF5"/>
<path d="M11.733 8.36255H11.1992V8.70005H11.733V8.36255Z" fill="#146EF5"/>
<path d="M11.1998 8.36255H10.666V8.70005H11.1998V8.36255Z" fill="#146EF5"/>
<path d="M10.6666 8.36255H10.1328V8.70005H10.6666V8.36255Z" fill="#146EF5"/>
<path d="M10.1334 8.36255H9.59961V8.70005H10.1334V8.36255Z" fill="#146EF5"/>
<path d="M9.60015 8.36255H9.06641V8.70005H9.60015V8.36255Z" fill="#146EF5"/>
<path d="M9.06695 8.36255H8.5332V8.70005H9.06695V8.36255Z" fill="#146EF5"/>
<path d="M8.53375 8.36255H8V8.70005H8.53375V8.36255Z" fill="#146EF5"/>
<path d="M8.00055 8.36255H7.4668V8.70005H8.00055V8.36255Z" fill="#146EF5"/>
<path d="M6.39898 8.36255H5.86523V8.70005H6.39898V8.36255Z" fill="#146EF5"/>
<path d="M5.86773 8.36255H5.33398V8.70005H5.86773V8.36255Z" fill="#146EF5"/>
<path d="M5.33453 8.36255H4.80078V8.70005H5.33453V8.36255Z" fill="#146EF5"/>
<path d="M4.79937 8.36255H4.26562V8.70005H4.79937V8.36255Z" fill="#146EF5"/>
<path d="M4.26812 8.36255H3.73438V8.70005H4.26812V8.36255Z" fill="#146EF5"/>
<path d="M3.73297 8.36255H3.19922V8.70005H3.73297V8.36255Z" fill="#146EF5"/>
<path d="M3.19976 8.36255H2.66602V8.70005H3.19976V8.36255Z" fill="#146EF5"/>
<path d="M2.66656 8.36255H2.13281V8.70005H2.66656V8.36255Z" fill="#146EF5"/>
<path d="M2.13336 8.36255H1.59961V8.70005H2.13336V8.36255Z" fill="#146EF5"/>
<path d="M1.60015 8.36255H1.06641V8.70005H1.60015V8.36255Z" fill="#146EF5"/>
<path d="M1.06695 8.36255H0.533203V8.70005H1.06695V8.36255Z" fill="#146EF5"/>
<path d="M0.533748 8.36255H0V8.70005H0.533748V8.36255Z" fill="#146EF5"/>
<path d="M12.2681 8.0249H11.7344V8.3624H12.2681V8.0249Z" fill="#146EF5"/>
<path d="M11.733 8.0249H11.1992V8.3624H11.733V8.0249Z" fill="#146EF5"/>
<path d="M11.1998 8.0249H10.666V8.3624H11.1998V8.0249Z" fill="#146EF5"/>
<path d="M10.6666 8.0249H10.1328V8.3624H10.6666V8.0249Z" fill="#146EF5"/>
<path d="M10.1334 8.0249H9.59961V8.3624H10.1334V8.0249Z" fill="#146EF5"/>
<path d="M9.60015 8.0249H9.06641V8.3624H9.60015V8.0249Z" fill="#146EF5"/>
<path d="M9.06695 8.0249H8.5332V8.3624H9.06695V8.0249Z" fill="#146EF5"/>
<path d="M8.53375 8.0249H8V8.3624H8.53375V8.0249Z" fill="#146EF5"/>
<path d="M8.00055 8.0249H7.4668V8.3624H8.00055V8.0249Z" fill="#146EF5"/>
<path d="M6.93414 8.0249H6.40039V8.3624H6.93414V8.0249Z" fill="#146EF5"/>
<path d="M6.39898 8.0249H5.86523V8.3624H6.39898V8.0249Z" fill="#146EF5"/>
<path d="M5.86773 8.0249H5.33398V8.3624H5.86773V8.0249Z" fill="#146EF5"/>
<path d="M5.33453 8.0249H4.80078V8.3624H5.33453V8.0249Z" fill="#146EF5"/>
<path d="M4.79937 8.0249H4.26562V8.3624H4.79937V8.0249Z" fill="#146EF5"/>
<path d="M4.26812 8.0249H3.73438V8.3624H4.26812V8.0249Z" fill="#146EF5"/>
<path d="M3.73297 8.0249H3.19922V8.3624H3.73297V8.0249Z" fill="#146EF5"/>
<path d="M3.19976 8.0249H2.66602V8.3624H3.19976V8.0249Z" fill="#146EF5"/>
<path d="M2.66656 8.0249H2.13281V8.3624H2.66656V8.0249Z" fill="#146EF5"/>
<path d="M2.13336 8.0249H1.59961V8.3624H2.13336V8.0249Z" fill="#146EF5"/>
<path d="M1.60015 8.0249H1.06641V8.3624H1.60015V8.0249Z" fill="#146EF5"/>
<path d="M1.06695 8.0249H0.533203V8.3624H1.06695V8.0249Z" fill="#146EF5"/>
<path d="M0.533748 8.0249H0V8.3624H0.533748V8.0249Z" fill="#146EF5"/>
<path d="M12.2681 7.6875H11.7344V8.025H12.2681V7.6875Z" fill="#146EF5"/>
<path d="M11.733 7.6875H11.1992V8.025H11.733V7.6875Z" fill="#146EF5"/>
<path d="M11.1998 7.6875H10.666V8.025H11.1998V7.6875Z" fill="#146EF5"/>
<path d="M10.6666 7.6875H10.1328V8.025H10.6666V7.6875Z" fill="#146EF5"/>
<path d="M10.1334 7.6875H9.59961V8.025H10.1334V7.6875Z" fill="#146EF5"/>
<path d="M9.60015 7.6875H9.06641V8.025H9.60015V7.6875Z" fill="#146EF5"/>
<path d="M9.06695 7.6875H8.5332V8.025H9.06695V7.6875Z" fill="#146EF5"/>
<path d="M8.53375 7.6875H8V8.025H8.53375V7.6875Z" fill="#146EF5"/>
<path d="M7.46734 7.6875H6.93359V8.025H7.46734V7.6875Z" fill="#146EF5"/>
<path d="M6.93414 7.6875H6.40039V8.025H6.93414V7.6875Z" fill="#146EF5"/>
<path d="M6.39898 7.6875H5.86523V8.025H6.39898V7.6875Z" fill="#146EF5"/>
<path d="M5.86773 7.6875H5.33398V8.025H5.86773V7.6875Z" fill="#146EF5"/>
<path d="M5.33453 7.6875H4.80078V8.025H5.33453V7.6875Z" fill="#146EF5"/>
<path d="M4.79937 7.6875H4.26562V8.025H4.79937V7.6875Z" fill="#146EF5"/>
<path d="M4.26812 7.6875H3.73438V8.025H4.26812V7.6875Z" fill="#146EF5"/>
<path d="M3.73297 7.6875H3.19922V8.025H3.73297V7.6875Z" fill="#146EF5"/>
<path d="M3.19976 7.6875H2.66602V8.025H3.19976V7.6875Z" fill="#146EF5"/>
<path d="M2.66656 7.6875H2.13281V8.025H2.66656V7.6875Z" fill="#146EF5"/>
<path d="M2.13336 7.6875H1.59961V8.025H2.13336V7.6875Z" fill="#146EF5"/>
<path d="M1.60015 7.6875H1.06641V8.025H1.60015V7.6875Z" fill="#146EF5"/>
<path d="M1.06695 7.6875H0.533203V8.025H1.06695V7.6875Z" fill="#146EF5"/>
<path d="M0.533748 7.6875H0V8.025H0.533748V7.6875Z" fill="#146EF5"/>
<path d="M12.7994 7.3501H12.2656V7.6876H12.7994V7.3501Z" fill="#146EF5"/>
<path d="M12.2681 7.3501H11.7344V7.6876H12.2681V7.3501Z" fill="#146EF5"/>
<path d="M11.733 7.3501H11.1992V7.6876H11.733V7.3501Z" fill="#146EF5"/>
<path d="M11.1998 7.3501H10.666V7.6876H11.1998V7.3501Z" fill="#146EF5"/>
<path d="M10.6666 7.3501H10.1328V7.6876H10.6666V7.3501Z" fill="#146EF5"/>
<path d="M10.1334 7.3501H9.59961V7.6876H10.1334V7.3501Z" fill="#146EF5"/>
<path d="M9.60015 7.3501H9.06641V7.6876H9.60015V7.3501Z" fill="#146EF5"/>
<path d="M9.06695 7.3501H8.5332V7.6876H9.06695V7.3501Z" fill="#146EF5"/>
<path d="M8.53375 7.3501H8V7.6876H8.53375V7.3501Z" fill="#146EF5"/>
<path d="M7.46734 7.3501H6.93359V7.6876H7.46734V7.3501Z" fill="#146EF5"/>
<path d="M6.93414 7.3501H6.40039V7.6876H6.93414V7.3501Z" fill="#146EF5"/>
<path d="M6.39898 7.3501H5.86523V7.6876H6.39898V7.3501Z" fill="#146EF5"/>
<path d="M5.86773 7.3501H5.33398V7.6876H5.86773V7.3501Z" fill="#146EF5"/>
<path d="M5.33453 7.3501H4.80078V7.6876H5.33453V7.3501Z" fill="#146EF5"/>
<path d="M4.79937 7.3501H4.26562V7.6876H4.79937V7.3501Z" fill="#146EF5"/>
<path d="M4.26812 7.3501H3.73438V7.6876H4.26812V7.3501Z" fill="#146EF5"/>
<path d="M3.73297 7.3501H3.19922V7.6876H3.73297V7.3501Z" fill="#146EF5"/>
<path d="M3.19976 7.3501H2.66602V7.6876H3.19976V7.3501Z" fill="#146EF5"/>
<path d="M2.66656 7.3501H2.13281V7.6876H2.66656V7.3501Z" fill="#146EF5"/>
<path d="M2.13336 7.3501H1.59961V7.6876H2.13336V7.3501Z" fill="#146EF5"/>
<path d="M1.60015 7.3501H1.06641V7.6876H1.60015V7.3501Z" fill="#146EF5"/>
<path d="M1.06695 7.3501H0.533203V7.6876H1.06695V7.3501Z" fill="#146EF5"/>
<path d="M0.533748 7.3501H0V7.6876H0.533748V7.3501Z" fill="#146EF5"/>
<path d="M12.7994 7.01245H12.2656V7.34995H12.7994V7.01245Z" fill="#146EF5"/>
<path d="M12.2681 7.01245H11.7344V7.34995H12.2681V7.01245Z" fill="#146EF5"/>
<path d="M11.733 7.01245H11.1992V7.34995H11.733V7.01245Z" fill="#146EF5"/>
<path d="M11.1998 7.01245H10.666V7.34995H11.1998V7.01245Z" fill="#146EF5"/>
<path d="M10.6666 7.01245H10.1328V7.34995H10.6666V7.01245Z" fill="#146EF5"/>
<path d="M10.1334 7.01245H9.59961V7.34995H10.1334V7.01245Z" fill="#146EF5"/>
<path d="M9.60015 7.01245H9.06641V7.34995H9.60015V7.01245Z" fill="#146EF5"/>
<path d="M9.06695 7.01245H8.5332V7.34995H9.06695V7.01245Z" fill="#146EF5"/>
<path d="M8.53375 7.01245H8V7.34995H8.53375V7.01245Z" fill="#146EF5"/>
<path d="M8.00055 7.01245H7.4668V7.34995H8.00055V7.01245Z" fill="#146EF5"/>
<path d="M7.46734 7.01245H6.93359V7.34995H7.46734V7.01245Z" fill="#146EF5"/>
<path d="M6.93414 7.01245H6.40039V7.34995H6.93414V7.01245Z" fill="#146EF5"/>
<path d="M6.39898 7.01245H5.86523V7.34995H6.39898V7.01245Z" fill="#146EF5"/>
<path d="M5.86773 7.01245H5.33398V7.34995H5.86773V7.01245Z" fill="#146EF5"/>
<path d="M5.33453 7.01245H4.80078V7.34995H5.33453V7.01245Z" fill="#146EF5"/>
<path d="M4.79937 7.01245H4.26562V7.34995H4.79937V7.01245Z" fill="#146EF5"/>
<path d="M4.26812 7.01245H3.73438V7.34995H4.26812V7.01245Z" fill="#146EF5"/>
<path d="M3.73297 7.01245H3.19922V7.34995H3.73297V7.01245Z" fill="#146EF5"/>
<path d="M3.19976 7.01245H2.66602V7.34995H3.19976V7.01245Z" fill="#146EF5"/>
<path d="M2.66656 7.01245H2.13281V7.34995H2.66656V7.01245Z" fill="#146EF5"/>
<path d="M2.13336 7.01245H1.59961V7.34995H2.13336V7.01245Z" fill="#146EF5"/>
<path d="M1.60015 7.01245H1.06641V7.34995H1.60015V7.01245Z" fill="#146EF5"/>
<path d="M1.06695 7.01245H0.533203V7.34995H1.06695V7.01245Z" fill="#146EF5"/>
<path d="M0.533748 7.01245H0V7.34995H0.533748V7.01245Z" fill="#146EF5"/>
<path d="M12.7994 6.67505H12.2656V7.01255H12.7994V6.67505Z" fill="#146EF5"/>
<path d="M12.2681 6.67505H11.7344V7.01255H12.2681V6.67505Z" fill="#146EF5"/>
<path d="M11.733 6.67505H11.1992V7.01255H11.733V6.67505Z" fill="#146EF5"/>
<path d="M11.1998 6.67505H10.666V7.01255H11.1998V6.67505Z" fill="#146EF5"/>
<path d="M10.6666 6.67505H10.1328V7.01255H10.6666V6.67505Z" fill="#146EF5"/>
<path d="M10.1334 6.67505H9.59961V7.01255H10.1334V6.67505Z" fill="#146EF5"/>
<path d="M9.60015 6.67505H9.06641V7.01255H9.60015V6.67505Z" fill="#146EF5"/>
<path d="M9.06695 6.67505H8.5332V7.01255H9.06695V6.67505Z" fill="#146EF5"/>
<path d="M8.53375 6.67505H8V7.01255H8.53375V6.67505Z" fill="#1770F5"/>
<path d="M8.00055 6.67505H7.4668V7.01255H8.00055V6.67505Z" fill="#146EF5"/>
<path d="M7.46734 6.67505H6.93359V7.01255H7.46734V6.67505Z" fill="#146EF5"/>
<path d="M6.93414 6.67505H6.40039V7.01255H6.93414V6.67505Z" fill="#146EF5"/>
<path d="M6.39898 6.67505H5.86523V7.01255H6.39898V6.67505Z" fill="#146EF5"/>
<path d="M5.86773 6.67505H5.33398V7.01255H5.86773V6.67505Z" fill="#146EF5"/>
<path d="M5.33453 6.67505H4.80078V7.01255H5.33453V6.67505Z" fill="#146EF5"/>
<path d="M4.79937 6.67505H4.26562V7.01255H4.79937V6.67505Z" fill="#146EF5"/>
<path d="M4.26812 6.67505H3.73438V7.01255H4.26812V6.67505Z" fill="#146EF5"/>
<path d="M3.73297 6.67505H3.19922V7.01255H3.73297V6.67505Z" fill="#146EF5"/>
<path d="M3.19976 6.67505H2.66602V7.01255H3.19976V6.67505Z" fill="#146EF5"/>
<path d="M2.66656 6.67505H2.13281V7.01255H2.66656V6.67505Z" fill="#146EF5"/>
<path d="M2.13336 6.67505H1.59961V7.01255H2.13336V6.67505Z" fill="#146EF5"/>
<path d="M1.60015 6.67505H1.06641V7.01255H1.60015V6.67505Z" fill="#146EF5"/>
<path d="M1.06695 6.67505H0.533203V7.01255H1.06695V6.67505Z" fill="#146EF5"/>
<path d="M13.3345 6.3374H12.8008V6.6749H13.3345V6.3374Z" fill="#146EF5"/>
<path d="M12.7994 6.3374H12.2656V6.6749H12.7994V6.3374Z" fill="#146EF5"/>
<path d="M12.2681 6.3374H11.7344V6.6749H12.2681V6.3374Z" fill="#146EF5"/>
<path d="M11.733 6.3374H11.1992V6.6749H11.733V6.3374Z" fill="#146EF5"/>
<path d="M11.1998 6.3374H10.666V6.6749H11.1998V6.3374Z" fill="#146EF5"/>
<path d="M10.6666 6.3374H10.1328V6.6749H10.6666V6.3374Z" fill="#146EF5"/>
<path d="M10.1334 6.3374H9.59961V6.6749H10.1334V6.3374Z" fill="#146EF5"/>
<path d="M9.60015 6.3374H9.06641V6.6749H9.60015V6.3374Z" fill="#146EF5"/>
<path d="M9.06695 6.3374H8.5332V6.6749H9.06695V6.3374Z" fill="#146EF5"/>
<path d="M8.53375 6.3374H8V6.6749H8.53375V6.3374Z" fill="#146EF5"/>
<path d="M8.00055 6.3374H7.4668V6.6749H8.00055V6.3374Z" fill="#146EF5"/>
<path d="M7.46734 6.3374H6.93359V6.6749H7.46734V6.3374Z" fill="#146EF5"/>
<path d="M6.93414 6.3374H6.40039V6.6749H6.93414V6.3374Z" fill="#146EF5"/>
<path d="M6.39898 6.3374H5.86523V6.6749H6.39898V6.3374Z" fill="#146EF5"/>
<path d="M5.86773 6.3374H5.33398V6.6749H5.86773V6.3374Z" fill="#146EF5"/>
<path d="M5.33453 6.3374H4.80078V6.6749H5.33453V6.3374Z" fill="#146EF5"/>
<path d="M4.79937 6.3374H4.26562V6.6749H4.79937V6.3374Z" fill="#146EF5"/>
<path d="M4.26812 6.3374H3.73438V6.6749H4.26812V6.3374Z" fill="#146EF5"/>
<path d="M3.73297 6.3374H3.19922V6.6749H3.73297V6.3374Z" fill="#146EF5"/>
<path d="M3.19976 6.3374H2.66602V6.6749H3.19976V6.3374Z" fill="#146EF5"/>
<path d="M2.66656 6.3374H2.13281V6.6749H2.66656V6.3374Z" fill="#146EF5"/>
<path d="M13.3345 6H12.8008V6.3375H13.3345V6Z" fill="#146EF5"/>
<path d="M12.7994 6H12.2656V6.3375H12.7994V6Z" fill="#146EF5"/>
<path d="M12.2681 6H11.7344V6.3375H12.2681V6Z" fill="#146EF5"/>
<path d="M11.733 6H11.1992V6.3375H11.733V6Z" fill="#146EF5"/>
<path d="M11.1998 6H10.666V6.3375H11.1998V6Z" fill="#146EF5"/>
<path d="M10.6666 6H10.1328V6.3375H10.6666V6Z" fill="#146EF5"/>
<path d="M10.1334 6H9.59961V6.3375H10.1334V6Z" fill="#146EF5"/>
<path d="M9.60015 6H9.06641V6.3375H9.60015V6Z" fill="#146EF5"/>
<path d="M9.06695 6H8.5332V6.3375H9.06695V6Z" fill="#146EF5"/>
<path d="M8.53375 6H8V6.3375H8.53375V6Z" fill="#146EF5"/>
<path d="M8.00055 6H7.4668V6.3375H8.00055V6Z" fill="#146EF5"/>
<path d="M7.46734 6H6.93359V6.3375H7.46734V6Z" fill="#146EF5"/>
<path d="M6.93414 6H6.40039V6.3375H6.93414V6Z" fill="#146EF5"/>
<path d="M6.39898 6H5.86523V6.3375H6.39898V6Z" fill="#146EF5"/>
<path d="M5.86773 6H5.33398V6.3375H5.86773V6Z" fill="#146EF5"/>
<path d="M5.33453 6H4.80078V6.3375H5.33453V6Z" fill="#146EF5"/>
<path d="M4.79937 6H4.26562V6.3375H4.79937V6Z" fill="#146EF5"/>
<path d="M4.26812 6H3.73438V6.3375H4.26812V6Z" fill="#146EF5"/>
<path d="M3.73297 6H3.19922V6.3375H3.73297V6Z" fill="#146EF5"/>
<path d="M3.19976 6H2.66602V6.3375H3.19976V6Z" fill="#146EF5"/>
<path d="M13.3345 5.6626H12.8008V6.0001H13.3345V5.6626Z" fill="#146EF5"/>
<path d="M12.7994 5.6626H12.2656V6.0001H12.7994V5.6626Z" fill="#146EF5"/>
<path d="M12.2681 5.6626H11.7344V6.0001H12.2681V5.6626Z" fill="#146EF5"/>
<path d="M11.733 5.6626H11.1992V6.0001H11.733V5.6626Z" fill="#146EF5"/>
<path d="M11.1998 5.6626H10.666V6.0001H11.1998V5.6626Z" fill="#146EF5"/>
<path d="M10.6666 5.6626H10.1328V6.0001H10.6666V5.6626Z" fill="#146EF5"/>
<path d="M10.1334 5.6626H9.59961V6.0001H10.1334V5.6626Z" fill="#146EF5"/>
<path d="M9.60015 5.6626H9.06641V6.0001H9.60015V5.6626Z" fill="#146EF5"/>
<path d="M9.06695 5.6626H8.5332V6.0001H9.06695V5.6626Z" fill="#146EF5"/>
<path d="M8.53375 5.6626H8V6.0001H8.53375V5.6626Z" fill="#146EF5"/>
<path d="M8.00055 5.6626H7.4668V6.0001H8.00055V5.6626Z" fill="#146EF5"/>
<path d="M7.46734 5.6626H6.93359V6.0001H7.46734V5.6626Z" fill="#146EF5"/>
<path d="M6.93414 5.6626H6.40039V6.0001H6.93414V5.6626Z" fill="#146EF5"/>
<path d="M6.39898 5.6626H5.86523V6.0001H6.39898V5.6626Z" fill="#146EF5"/>
<path d="M5.86773 5.6626H5.33398V6.0001H5.86773V5.6626Z" fill="#146EF5"/>
<path d="M5.33453 5.6626H4.80078V6.0001H5.33453V5.6626Z" fill="#146EF5"/>
<path d="M4.79937 5.6626H4.26562V6.0001H4.79937V5.6626Z" fill="#146EF5"/>
<path d="M4.26812 5.6626H3.73438V6.0001H4.26812V5.6626Z" fill="#146EF5"/>
<path d="M3.73297 5.6626H3.19922V6.0001H3.73297V5.6626Z" fill="#146EF5"/>
<path d="M13.8677 5.32495H13.334V5.66245H13.8677V5.32495Z" fill="#146EF5"/>
<path d="M13.3345 5.32495H12.8008V5.66245H13.3345V5.32495Z" fill="#146EF5"/>
<path d="M12.7994 5.32495H12.2656V5.66245H12.7994V5.32495Z" fill="#146EF5"/>
<path d="M12.2681 5.32495H11.7344V5.66245H12.2681V5.32495Z" fill="#146EF5"/>
<path d="M11.733 5.32495H11.1992V5.66245H11.733V5.32495Z" fill="#146EF5"/>
<path d="M11.1998 5.32495H10.666V5.66245H11.1998V5.32495Z" fill="#146EF5"/>
<path d="M10.6666 5.32495H10.1328V5.66245H10.6666V5.32495Z" fill="#146EF5"/>
<path d="M10.1334 5.32495H9.59961V5.66245H10.1334V5.32495Z" fill="#146EF5"/>
<path d="M9.60015 5.32495H9.06641V5.66245H9.60015V5.32495Z" fill="#146EF5"/>
<path d="M9.06695 5.32495H8.5332V5.66245H9.06695V5.32495Z" fill="#146EF5"/>
<path d="M8.53375 5.32495H8V5.66245H8.53375V5.32495Z" fill="#146EF5"/>
<path d="M8.00055 5.32495H7.4668V5.66245H8.00055V5.32495Z" fill="#146EF5"/>
<path d="M7.46734 5.32495H6.93359V5.66245H7.46734V5.32495Z" fill="#146EF5"/>
<path d="M6.93414 5.32495H6.40039V5.66245H6.93414V5.32495Z" fill="#146EF5"/>
<path d="M6.39898 5.32495H5.86523V5.66245H6.39898V5.32495Z" fill="#146EF5"/>
<path d="M5.86773 5.32495H5.33398V5.66245H5.86773V5.32495Z" fill="#146EF5"/>
<path d="M5.33453 5.32495H4.80078V5.66245H5.33453V5.32495Z" fill="#146EF5"/>
<path d="M4.79937 5.32495H4.26562V5.66245H4.79937V5.32495Z" fill="#146EF5"/>
<path d="M4.26812 5.32495H3.73438V5.66245H4.26812V5.32495Z" fill="#146EF5"/>
<path d="M13.8677 4.98755H13.334V5.32505H13.8677V4.98755Z" fill="#146EF5"/>
<path d="M13.3345 4.98755H12.8008V5.32505H13.3345V4.98755Z" fill="#146EF5"/>
<path d="M12.7994 4.98755H12.2656V5.32505H12.7994V4.98755Z" fill="#146EF5"/>
<path d="M12.2681 4.98755H11.7344V5.32505H12.2681V4.98755Z" fill="#146EF5"/>
<path d="M11.733 4.98755H11.1992V5.32505H11.733V4.98755Z" fill="#146EF5"/>
<path d="M11.1998 4.98755H10.666V5.32505H11.1998V4.98755Z" fill="#146EF5"/>
<path d="M10.6666 4.98755H10.1328V5.32505H10.6666V4.98755Z" fill="#146EF5"/>
<path d="M10.1334 4.98755H9.59961V5.32505H10.1334V4.98755Z" fill="#146EF5"/>
<path d="M9.60015 4.98755H9.06641V5.32505H9.60015V4.98755Z" fill="#146EF5"/>
<path d="M9.06695 4.98755H8.5332V5.32505H9.06695V4.98755Z" fill="#146EF5"/>
<path d="M8.53375 4.98755H8V5.32505H8.53375V4.98755Z" fill="#146EF5"/>
<path d="M8.00055 4.98755H7.4668V5.32505H8.00055V4.98755Z" fill="#146EF5"/>
<path d="M7.46734 4.98755H6.93359V5.32505H7.46734V4.98755Z" fill="#146EF5"/>
<path d="M6.93414 4.98755H6.40039V5.32505H6.93414V4.98755Z" fill="#146EF5"/>
<path d="M6.39898 4.98755H5.86523V5.32505H6.39898V4.98755Z" fill="#146EF5"/>
<path d="M5.86773 4.98755H5.33398V5.32505H5.86773V4.98755Z" fill="#146EF5"/>
<path d="M5.33453 4.98755H4.80078V5.32505H5.33453V4.98755Z" fill="#146EF5"/>
<path d="M4.79937 4.98755H4.26562V5.32505H4.79937V4.98755Z" fill="#146EF5"/>
<path d="M4.26812 4.98755H3.73438V5.32505H4.26812V4.98755Z" fill="#146EF5"/>
<path d="M3.73297 4.98755H3.19922V5.32505H3.73297V4.98755Z" fill="#146EF5"/>
<path d="M3.19976 4.98755H2.66602V5.32505H3.19976V4.98755Z" fill="#146EF5"/>
<path d="M2.66656 4.98755H2.13281V5.32505H2.66656V4.98755Z" fill="#146EF5"/>
<path d="M2.13336 4.98755H1.59961V5.32505H2.13336V4.98755Z" fill="#146EF5"/>
<path d="M1.60015 4.98755H1.06641V5.32505H1.60015V4.98755Z" fill="#146EF5"/>
<path d="M1.06695 4.98755H0.533203V5.32505H1.06695V4.98755Z" fill="#146EF5"/>
<path d="M0.533748 4.98755H0V5.32505H0.533748V4.98755Z" fill="#146EF5"/>
<path d="M13.8677 4.6499H13.334V4.9874H13.8677V4.6499Z" fill="#146EF5"/>
<path d="M13.3345 4.6499H12.8008V4.9874H13.3345V4.6499Z" fill="#146EF5"/>
<path d="M12.7994 4.6499H12.2656V4.9874H12.7994V4.6499Z" fill="#146EF5"/>
<path d="M12.2681 4.6499H11.7344V4.9874H12.2681V4.6499Z" fill="#146EF5"/>
<path d="M11.733 4.6499H11.1992V4.9874H11.733V4.6499Z" fill="#146EF5"/>
<path d="M11.1998 4.6499H10.666V4.9874H11.1998V4.6499Z" fill="#146EF5"/>
<path d="M10.6666 4.6499H10.1328V4.9874H10.6666V4.6499Z" fill="#146EF5"/>
<path d="M10.1334 4.6499H9.59961V4.9874H10.1334V4.6499Z" fill="#146EF5"/>
<path d="M9.60015 4.6499H9.06641V4.9874H9.60015V4.6499Z" fill="#146EF5"/>
<path d="M9.06695 4.6499H8.5332V4.9874H9.06695V4.6499Z" fill="#146EF5"/>
<path d="M8.53375 4.6499H8V4.9874H8.53375V4.6499Z" fill="#146EF5"/>
<path d="M8.00055 4.6499H7.4668V4.9874H8.00055V4.6499Z" fill="#146EF5"/>
<path d="M7.46734 4.6499H6.93359V4.9874H7.46734V4.6499Z" fill="#146EF5"/>
<path d="M6.93414 4.6499H6.40039V4.9874H6.93414V4.6499Z" fill="#146EF5"/>
<path d="M6.39898 4.6499H5.86523V4.9874H6.39898V4.6499Z" fill="#146EF5"/>
<path d="M5.86773 4.6499H5.33398V4.9874H5.86773V4.6499Z" fill="#146EF5"/>
<path d="M5.33453 4.6499H4.80078V4.9874H5.33453V4.6499Z" fill="#146EF5"/>
<path d="M4.79937 4.6499H4.26562V4.9874H4.79937V4.6499Z" fill="#146EF5"/>
<path d="M4.26812 4.6499H3.73438V4.9874H4.26812V4.6499Z" fill="#146EF5"/>
<path d="M3.73297 4.6499H3.19922V4.9874H3.73297V4.6499Z" fill="#146EF5"/>
<path d="M3.19976 4.6499H2.66602V4.9874H3.19976V4.6499Z" fill="#146EF5"/>
<path d="M2.66656 4.6499H2.13281V4.9874H2.66656V4.6499Z" fill="#146EF5"/>
<path d="M2.13336 4.6499H1.59961V4.9874H2.13336V4.6499Z" fill="#146EF5"/>
<path d="M1.60015 4.6499H1.06641V4.9874H1.60015V4.6499Z" fill="#146EF5"/>
<path d="M1.06695 4.6499H0.533203V4.9874H1.06695V4.6499Z" fill="#146EF5"/>
<path d="M0.533748 4.6499H0V4.9874H0.533748V4.6499Z" fill="#146EF5"/>
<path d="M14.399 4.3125H13.8652V4.65H14.399V4.3125Z" fill="#146EF5"/>
<path d="M13.8677 4.3125H13.334V4.65H13.8677V4.3125Z" fill="#146EF5"/>
<path d="M13.3345 4.3125H12.8008V4.65H13.3345V4.3125Z" fill="#146EF5"/>
<path d="M12.7994 4.3125H12.2656V4.65H12.7994V4.3125Z" fill="#146EF5"/>
<path d="M12.2681 4.3125H11.7344V4.65H12.2681V4.3125Z" fill="#146EF5"/>
<path d="M11.733 4.3125H11.1992V4.65H11.733V4.3125Z" fill="#146EF5"/>
<path d="M11.1998 4.3125H10.666V4.65H11.1998V4.3125Z" fill="#146EF5"/>
<path d="M10.6666 4.3125H10.1328V4.65H10.6666V4.3125Z" fill="#146EF5"/>
<path d="M10.1334 4.3125H9.59961V4.65H10.1334V4.3125Z" fill="#146EF5"/>
<path d="M9.60015 4.3125H9.06641V4.65H9.60015V4.3125Z" fill="#146EF5"/>
<path d="M9.06695 4.3125H8.5332V4.65H9.06695V4.3125Z" fill="#146EF5"/>
<path d="M8.53375 4.3125H8V4.65H8.53375V4.3125Z" fill="#146EF5"/>
<path d="M8.00055 4.3125H7.4668V4.65H8.00055V4.3125Z" fill="#146EF5"/>
<path d="M7.46734 4.3125H6.93359V4.65H7.46734V4.3125Z" fill="#146EF5"/>
<path d="M6.93414 4.3125H6.40039V4.65H6.93414V4.3125Z" fill="#146EF5"/>
<path d="M6.39898 4.3125H5.86523V4.65H6.39898V4.3125Z" fill="#146EF5"/>
<path d="M5.86773 4.3125H5.33398V4.65H5.86773V4.3125Z" fill="#146EF5"/>
<path d="M5.33453 4.3125H4.80078V4.65H5.33453V4.3125Z" fill="#146EF5"/>
<path d="M4.79937 4.3125H4.26562V4.65H4.79937V4.3125Z" fill="#146EF5"/>
<path d="M4.26812 4.3125H3.73438V4.65H4.26812V4.3125Z" fill="#146EF5"/>
<path d="M3.73297 4.3125H3.19922V4.65H3.73297V4.3125Z" fill="#146EF5"/>
<path d="M3.19976 4.3125H2.66602V4.65H3.19976V4.3125Z" fill="#146EF5"/>
<path d="M2.66656 4.3125H2.13281V4.65H2.66656V4.3125Z" fill="#146EF5"/>
<path d="M2.13336 4.3125H1.59961V4.65H2.13336V4.3125Z" fill="#146EF5"/>
<path d="M1.60015 4.3125H1.06641V4.65H1.60015V4.3125Z" fill="#146EF5"/>
<path d="M1.06695 4.3125H0.533203V4.65H1.06695V4.3125Z" fill="#146EF5"/>
<path d="M0.533748 4.3125H0V4.65H0.533748V4.3125Z" fill="#146EF5"/>
<path d="M14.399 3.9751H13.8652V4.3126H14.399V3.9751Z" fill="#146EF5"/>
<path d="M13.8677 3.9751H13.334V4.3126H13.8677V3.9751Z" fill="#146EF5"/>
<path d="M13.3345 3.9751H12.8008V4.3126H13.3345V3.9751Z" fill="#146EF5"/>
<path d="M12.7994 3.9751H12.2656V4.3126H12.7994V3.9751Z" fill="#146EF5"/>
<path d="M12.2681 3.9751H11.7344V4.3126H12.2681V3.9751Z" fill="#146EF5"/>
<path d="M11.733 3.9751H11.1992V4.3126H11.733V3.9751Z" fill="#146EF5"/>
<path d="M11.1998 3.9751H10.666V4.3126H11.1998V3.9751Z" fill="#146EF5"/>
<path d="M10.6666 3.9751H10.1328V4.3126H10.6666V3.9751Z" fill="#146EF5"/>
<path d="M10.1334 3.9751H9.59961V4.3126H10.1334V3.9751Z" fill="#146EF5"/>
<path d="M9.60015 3.9751H9.06641V4.3126H9.60015V3.9751Z" fill="#146EF5"/>
<path d="M9.06695 3.9751H8.5332V4.3126H9.06695V3.9751Z" fill="#146EF5"/>
<path d="M8.53375 3.9751H8V4.3126H8.53375V3.9751Z" fill="#146EF5"/>
<path d="M8.00055 3.9751H7.4668V4.3126H8.00055V3.9751Z" fill="#146EF5"/>
<path d="M7.46734 3.9751H6.93359V4.3126H7.46734V3.9751Z" fill="#146EF5"/>
<path d="M6.93414 3.9751H6.40039V4.3126H6.93414V3.9751Z" fill="#146EF5"/>
<path d="M6.39898 3.9751H5.86523V4.3126H6.39898V3.9751Z" fill="#146EF5"/>
<path d="M5.86773 3.9751H5.33398V4.3126H5.86773V3.9751Z" fill="#146EF5"/>
<path d="M5.33453 3.9751H4.80078V4.3126H5.33453V3.9751Z" fill="#146EF5"/>
<path d="M4.26812 3.9751H3.73438V4.3126H4.26812V3.9751Z" fill="#146EF5"/>
<path d="M3.73297 3.9751H3.19922V4.3126H3.73297V3.9751Z" fill="#146EF5"/>
<path d="M3.19976 3.9751H2.66602V4.3126H3.19976V3.9751Z" fill="#146EF5"/>
<path d="M2.66656 3.9751H2.13281V4.3126H2.66656V3.9751Z" fill="#146EF5"/>
<path d="M2.13336 3.9751H1.59961V4.3126H2.13336V3.9751Z" fill="#146EF5"/>
<path d="M1.60015 3.9751H1.06641V4.3126H1.60015V3.9751Z" fill="#146EF5"/>
<path d="M1.06695 3.9751H0.533203V4.3126H1.06695V3.9751Z" fill="#146EF5"/>
<path d="M0.533748 3.9751H0V4.3126H0.533748V3.9751Z" fill="#146EF5"/>
<path d="M14.399 3.63745H13.8652V3.97495H14.399V3.63745Z" fill="#146EF5"/>
<path d="M13.8677 3.63745H13.334V3.97495H13.8677V3.63745Z" fill="#146EF5"/>
<path d="M13.3345 3.63745H12.8008V3.97495H13.3345V3.63745Z" fill="#146EF5"/>
<path d="M12.7994 3.63745H12.2656V3.97495H12.7994V3.63745Z" fill="#146EF5"/>
<path d="M12.2681 3.63745H11.7344V3.97495H12.2681V3.63745Z" fill="#146EF5"/>
<path d="M11.733 3.63745H11.1992V3.97495H11.733V3.63745Z" fill="#146EF5"/>
<path d="M11.1998 3.63745H10.666V3.97495H11.1998V3.63745Z" fill="#146EF5"/>
<path d="M10.6666 3.63745H10.1328V3.97495H10.6666V3.63745Z" fill="#146EF5"/>
<path d="M10.1334 3.63745H9.59961V3.97495H10.1334V3.63745Z" fill="#146EF5"/>
<path d="M9.60015 3.63745H9.06641V3.97495H9.60015V3.63745Z" fill="#146EF5"/>
<path d="M9.06695 3.63745H8.5332V3.97495H9.06695V3.63745Z" fill="#146EF5"/>
<path d="M8.53375 3.63745H8V3.97495H8.53375V3.63745Z" fill="#146EF5"/>
<path d="M8.00055 3.63745H7.4668V3.97495H8.00055V3.63745Z" fill="#146EF5"/>
<path d="M7.46734 3.63745H6.93359V3.97495H7.46734V3.63745Z" fill="#146EF5"/>
<path d="M6.93414 3.63745H6.40039V3.97495H6.93414V3.63745Z" fill="#146EF5"/>
<path d="M6.39898 3.63745H5.86523V3.97495H6.39898V3.63745Z" fill="#146EF5"/>
<path d="M5.86773 3.63745H5.33398V3.97495H5.86773V3.63745Z" fill="#146EF5"/>
<path d="M5.33453 3.63745H4.80078V3.97495H5.33453V3.63745Z" fill="#146EF5"/>
<path d="M4.26812 3.63745H3.73438V3.97495H4.26812V3.63745Z" fill="#146EF5"/>
<path d="M3.73297 3.63745H3.19922V3.97495H3.73297V3.63745Z" fill="#146EF5"/>
<path d="M3.19976 3.63745H2.66602V3.97495H3.19976V3.63745Z" fill="#146EF5"/>
<path d="M2.66656 3.63745H2.13281V3.97495H2.66656V3.63745Z" fill="#146EF5"/>
<path d="M2.13336 3.63745H1.59961V3.97495H2.13336V3.63745Z" fill="#146EF5"/>
<path d="M1.60015 3.63745H1.06641V3.97495H1.60015V3.63745Z" fill="#146EF5"/>
<path d="M1.06695 3.63745H0.533203V3.97495H1.06695V3.63745Z" fill="#146EF5"/>
<path d="M0.533748 3.63745H0V3.97495H0.533748V3.63745Z" fill="#146EF5"/>
<path d="M14.9341 3.30005H14.4004V3.63755H14.9341V3.30005Z" fill="#146EF5"/>
<path d="M14.399 3.30005H13.8652V3.63755H14.399V3.30005Z" fill="#146EF5"/>
<path d="M13.8677 3.30005H13.334V3.63755H13.8677V3.30005Z" fill="#146EF5"/>
<path d="M13.3345 3.30005H12.8008V3.63755H13.3345V3.30005Z" fill="#146EF5"/>
<path d="M12.7994 3.30005H12.2656V3.63755H12.7994V3.30005Z" fill="#146EF5"/>
<path d="M12.2681 3.30005H11.7344V3.63755H12.2681V3.30005Z" fill="#146EF5"/>
<path d="M11.733 3.30005H11.1992V3.63755H11.733V3.30005Z" fill="#146EF5"/>
<path d="M11.1998 3.30005H10.666V3.63755H11.1998V3.30005Z" fill="#146EF5"/>
<path d="M10.6666 3.30005H10.1328V3.63755H10.6666V3.30005Z" fill="#146EF5"/>
<path d="M9.60015 3.30005H9.06641V3.63755H9.60015V3.30005Z" fill="#146EF5"/>
<path d="M9.06695 3.30005H8.5332V3.63755H9.06695V3.30005Z" fill="#146EF5"/>
<path d="M8.53375 3.30005H8V3.63755H8.53375V3.30005Z" fill="#146EF5"/>
<path d="M8.00055 3.30005H7.4668V3.63755H8.00055V3.30005Z" fill="#146EF5"/>
<path d="M7.46734 3.30005H6.93359V3.63755H7.46734V3.30005Z" fill="#146EF5"/>
<path d="M6.93414 3.30005H6.40039V3.63755H6.93414V3.30005Z" fill="#146EF5"/>
<path d="M6.39898 3.30005H5.86523V3.63755H6.39898V3.30005Z" fill="#146EF5"/>
<path d="M5.86773 3.30005H5.33398V3.63755H5.86773V3.30005Z" fill="#146EF5"/>
<path d="M5.33453 3.30005H4.80078V3.63755H5.33453V3.30005Z" fill="#146EF5"/>
<path d="M4.26812 3.30005H3.73438V3.63755H4.26812V3.30005Z" fill="#146EF5"/>
<path d="M3.73297 3.30005H3.19922V3.63755H3.73297V3.30005Z" fill="#146EF5"/>
<path d="M3.19976 3.30005H2.66602V3.63755H3.19976V3.30005Z" fill="#146EF5"/>
<path d="M2.66656 3.30005H2.13281V3.63755H2.66656V3.30005Z" fill="#146EF5"/>
<path d="M2.13336 3.30005H1.59961V3.63755H2.13336V3.30005Z" fill="#146EF5"/>
<path d="M1.60015 3.30005H1.06641V3.63755H1.60015V3.30005Z" fill="#146EF5"/>
<path d="M1.06695 3.30005H0.533203V3.63755H1.06695V3.30005Z" fill="#146EF5"/>
<path d="M0.533748 3.30005H0V3.63755H0.533748V3.30005Z" fill="#146EF5"/>
<path d="M14.9341 2.9624H14.4004V3.2999H14.9341V2.9624Z" fill="#146EF5"/>
<path d="M14.399 2.9624H13.8652V3.2999H14.399V2.9624Z" fill="#146EF5"/>
<path d="M13.8677 2.9624H13.334V3.2999H13.8677V2.9624Z" fill="#146EF5"/>
<path d="M13.3345 2.9624H12.8008V3.2999H13.3345V2.9624Z" fill="#146EF5"/>
<path d="M12.7994 2.9624H12.2656V3.2999H12.7994V2.9624Z" fill="#146EF5"/>
<path d="M12.2681 2.9624H11.7344V3.2999H12.2681V2.9624Z" fill="#146EF5"/>
<path d="M11.733 2.9624H11.1992V3.2999H11.733V2.9624Z" fill="#146EF5"/>
<path d="M11.1998 2.9624H10.666V3.2999H11.1998V2.9624Z" fill="#146EF5"/>
<path d="M10.6666 2.9624H10.1328V3.2999H10.6666V2.9624Z" fill="#146EF5"/>
<path d="M9.60015 2.9624H9.06641V3.2999H9.60015V2.9624Z" fill="#146EF5"/>
<path d="M9.06695 2.9624H8.5332V3.2999H9.06695V2.9624Z" fill="#146EF5"/>
<path d="M8.53375 2.9624H8V3.2999H8.53375V2.9624Z" fill="#146EF5"/>
<path d="M8.00055 2.9624H7.4668V3.2999H8.00055V2.9624Z" fill="#146EF5"/>
<path d="M7.46734 2.9624H6.93359V3.2999H7.46734V2.9624Z" fill="#146EF5"/>
<path d="M6.93414 2.9624H6.40039V3.2999H6.93414V2.9624Z" fill="#146EF5"/>
<path d="M6.39898 2.9624H5.86523V3.2999H6.39898V2.9624Z" fill="#146EF5"/>
<path d="M5.86773 2.9624H5.33398V3.2999H5.86773V2.9624Z" fill="#146EF5"/>
<path d="M5.33453 2.9624H4.80078V3.2999H5.33453V2.9624Z" fill="#1B72F5"/>
<path d="M4.26812 2.9624H3.73438V3.2999H4.26812V2.9624Z" fill="#146EF5"/>
<path d="M3.73297 2.9624H3.19922V3.2999H3.73297V2.9624Z" fill="#146EF5"/>
<path d="M3.19976 2.9624H2.66602V3.2999H3.19976V2.9624Z" fill="#146EF5"/>
<path d="M2.66656 2.9624H2.13281V3.2999H2.66656V2.9624Z" fill="#146EF5"/>
<path d="M2.13336 2.9624H1.59961V3.2999H2.13336V2.9624Z" fill="#146EF5"/>
<path d="M1.60015 2.9624H1.06641V3.2999H1.60015V2.9624Z" fill="#146EF5"/>
<path d="M1.06695 2.9624H0.533203V3.2999H1.06695V2.9624Z" fill="#146EF5"/>
<path d="M0.533748 2.9624H0V3.2999H0.533748V2.9624Z" fill="#146EF5"/>
<path d="M14.9341 2.625H14.4004V2.9625H14.9341V2.625Z" fill="#146EF5"/>
<path d="M14.399 2.625H13.8652V2.9625H14.399V2.625Z" fill="#146EF5"/>
<path d="M13.8677 2.625H13.334V2.9625H13.8677V2.625Z" fill="#146EF5"/>
<path d="M13.3345 2.625H12.8008V2.9625H13.3345V2.625Z" fill="#146EF5"/>
<path d="M12.7994 2.625H12.2656V2.9625H12.7994V2.625Z" fill="#146EF5"/>
<path d="M12.2681 2.625H11.7344V2.9625H12.2681V2.625Z" fill="#146EF5"/>
<path d="M11.733 2.625H11.1992V2.9625H11.733V2.625Z" fill="#146EF5"/>
<path d="M11.1998 2.625H10.666V2.9625H11.1998V2.625Z" fill="#146EF5"/>
<path d="M10.6666 2.625H10.1328V2.9625H10.6666V2.625Z" fill="#146EF5"/>
<path d="M9.60015 2.625H9.06641V2.9625H9.60015V2.625Z" fill="#146EF5"/>
<path d="M9.06695 2.625H8.5332V2.9625H9.06695V2.625Z" fill="#146EF5"/>
<path d="M8.53375 2.625H8V2.9625H8.53375V2.625Z" fill="#146EF5"/>
<path d="M8.00055 2.625H7.4668V2.9625H8.00055V2.625Z" fill="#146EF5"/>
<path d="M7.46734 2.625H6.93359V2.9625H7.46734V2.625Z" fill="#146EF5"/>
<path d="M6.93414 2.625H6.40039V2.9625H6.93414V2.625Z" fill="#146EF5"/>
<path d="M6.39898 2.625H5.86523V2.9625H6.39898V2.625Z" fill="#146EF5"/>
<path d="M5.86773 2.625H5.33398V2.9625H5.86773V2.625Z" fill="#146EF5"/>
<path d="M4.26812 2.625H3.73438V2.9625H4.26812V2.625Z" fill="#146EF5"/>
<path d="M3.73297 2.625H3.19922V2.9625H3.73297V2.625Z" fill="#146EF5"/>
<path d="M3.19976 2.625H2.66602V2.9625H3.19976V2.625Z" fill="#146EF5"/>
<path d="M2.66656 2.625H2.13281V2.9625H2.66656V2.625Z" fill="#146EF5"/>
<path d="M2.13336 2.625H1.59961V2.9625H2.13336V2.625Z" fill="#146EF5"/>
<path d="M1.60015 2.625H1.06641V2.9625H1.60015V2.625Z" fill="#146EF5"/>
<path d="M1.06695 2.625H0.533203V2.9625H1.06695V2.625Z" fill="#146EF5"/>
<path d="M0.533748 2.625H0V2.9625H0.533748V2.625Z" fill="#146EF5"/>
<path d="M15.4673 2.2876H14.9336V2.6251H15.4673V2.2876Z" fill="#146EF5"/>
<path d="M14.9341 2.2876H14.4004V2.6251H14.9341V2.2876Z" fill="#146EF5"/>
<path d="M14.399 2.2876H13.8652V2.6251H14.399V2.2876Z" fill="#146EF5"/>
<path d="M13.8677 2.2876H13.334V2.6251H13.8677V2.2876Z" fill="#146EF5"/>
<path d="M13.3345 2.2876H12.8008V2.6251H13.3345V2.2876Z" fill="#146EF5"/>
<path d="M12.7994 2.2876H12.2656V2.6251H12.7994V2.2876Z" fill="#146EF5"/>
<path d="M12.2681 2.2876H11.7344V2.6251H12.2681V2.2876Z" fill="#146EF5"/>
<path d="M11.733 2.2876H11.1992V2.6251H11.733V2.2876Z" fill="#146EF5"/>
<path d="M11.1998 2.2876H10.666V2.6251H11.1998V2.2876Z" fill="#146EF5"/>
<path d="M9.60015 2.2876H9.06641V2.6251H9.60015V2.2876Z" fill="#146EF5"/>
<path d="M9.06695 2.2876H8.5332V2.6251H9.06695V2.2876Z" fill="#146EF5"/>
<path d="M8.53375 2.2876H8V2.6251H8.53375V2.2876Z" fill="#146EF5"/>
<path d="M8.00055 2.2876H7.4668V2.6251H8.00055V2.2876Z" fill="#146EF5"/>
<path d="M7.46734 2.2876H6.93359V2.6251H7.46734V2.2876Z" fill="#146EF5"/>
<path d="M6.93414 2.2876H6.40039V2.6251H6.93414V2.2876Z" fill="#146EF5"/>
<path d="M6.39898 2.2876H5.86523V2.6251H6.39898V2.2876Z" fill="#146EF5"/>
<path d="M5.86773 2.2876H5.33398V2.6251H5.86773V2.2876Z" fill="#146EF5"/>
<path d="M4.26812 2.2876H3.73438V2.6251H4.26812V2.2876Z" fill="#146EF5"/>
<path d="M3.73297 2.2876H3.19922V2.6251H3.73297V2.2876Z" fill="#146EF5"/>
<path d="M3.19976 2.2876H2.66602V2.6251H3.19976V2.2876Z" fill="#146EF5"/>
<path d="M2.66656 2.2876H2.13281V2.6251H2.66656V2.2876Z" fill="#146EF5"/>
<path d="M2.13336 2.2876H1.59961V2.6251H2.13336V2.2876Z" fill="#146EF5"/>
<path d="M1.60015 2.2876H1.06641V2.6251H1.60015V2.2876Z" fill="#146EF5"/>
<path d="M1.06695 2.2876H0.533203V2.6251H1.06695V2.2876Z" fill="#146EF5"/>
<path d="M0.533748 2.2876H0V2.6251H0.533748V2.2876Z" fill="#146EF5"/>
<path d="M15.4673 1.94995H14.9336V2.28745H15.4673V1.94995Z" fill="#146EF5"/>
<path d="M14.9341 1.94995H14.4004V2.28745H14.9341V1.94995Z" fill="#146EF5"/>
<path d="M14.399 1.94995H13.8652V2.28745H14.399V1.94995Z" fill="#146EF5"/>
<path d="M13.8677 1.94995H13.334V2.28745H13.8677V1.94995Z" fill="#146EF5"/>
<path d="M13.3345 1.94995H12.8008V2.28745H13.3345V1.94995Z" fill="#146EF5"/>
<path d="M12.7994 1.94995H12.2656V2.28745H12.7994V1.94995Z" fill="#146EF5"/>
<path d="M12.2681 1.94995H11.7344V2.28745H12.2681V1.94995Z" fill="#146EF5"/>
<path d="M11.733 1.94995H11.1992V2.28745H11.733V1.94995Z" fill="#146EF5"/>
<path d="M11.1998 1.94995H10.666V2.28745H11.1998V1.94995Z" fill="#146EF5"/>
<path d="M9.60015 1.94995H9.06641V2.28745H9.60015V1.94995Z" fill="#146EF5"/>
<path d="M9.06695 1.94995H8.5332V2.28745H9.06695V1.94995Z" fill="#146EF5"/>
<path d="M8.53375 1.94995H8V2.28745H8.53375V1.94995Z" fill="#146EF5"/>
<path d="M8.00055 1.94995H7.4668V2.28745H8.00055V1.94995Z" fill="#146EF5"/>
<path d="M7.46734 1.94995H6.93359V2.28745H7.46734V1.94995Z" fill="#146EF5"/>
<path d="M6.93414 1.94995H6.40039V2.28745H6.93414V1.94995Z" fill="#146EF5"/>
<path d="M6.39898 1.94995H5.86523V2.28745H6.39898V1.94995Z" fill="#146EF5"/>
<path d="M5.86773 1.94995H5.33398V2.28745H5.86773V1.94995Z" fill="#146EF5"/>
<path d="M4.26812 1.94995H3.73438V2.28745H4.26812V1.94995Z" fill="#146EF5"/>
<path d="M3.73297 1.94995H3.19922V2.28745H3.73297V1.94995Z" fill="#146EF5"/>
<path d="M3.19976 1.94995H2.66602V2.28745H3.19976V1.94995Z" fill="#146EF5"/>
<path d="M2.66656 1.94995H2.13281V2.28745H2.66656V1.94995Z" fill="#146EF5"/>
<path d="M2.13336 1.94995H1.59961V2.28745H2.13336V1.94995Z" fill="#146EF5"/>
<path d="M1.60015 1.94995H1.06641V2.28745H1.60015V1.94995Z" fill="#146EF5"/>
<path d="M1.06695 1.94995H0.533203V2.28745H1.06695V1.94995Z" fill="#146EF5"/>
<path d="M0.533748 1.94995H0V2.28745H0.533748V1.94995Z" fill="#146EF5"/>
<path d="M15.4673 1.61255H14.9336V1.95005H15.4673V1.61255Z" fill="#146EF5"/>
<path d="M14.9341 1.61255H14.4004V1.95005H14.9341V1.61255Z" fill="#146EF5"/>
<path d="M14.399 1.61255H13.8652V1.95005H14.399V1.61255Z" fill="#146EF5"/>
<path d="M13.8677 1.61255H13.334V1.95005H13.8677V1.61255Z" fill="#146EF5"/>
<path d="M13.3345 1.61255H12.8008V1.95005H13.3345V1.61255Z" fill="#146EF5"/>
<path d="M12.7994 1.61255H12.2656V1.95005H12.7994V1.61255Z" fill="#146EF5"/>
<path d="M12.2681 1.61255H11.7344V1.95005H12.2681V1.61255Z" fill="#146EF5"/>
<path d="M11.733 1.61255H11.1992V1.95005H11.733V1.61255Z" fill="#146EF5"/>
<path d="M11.1998 1.61255H10.666V1.95005H11.1998V1.61255Z" fill="#146EF5"/>
<path d="M9.60015 1.61255H9.06641V1.95005H9.60015V1.61255Z" fill="#146EF5"/>
<path d="M9.06695 1.61255H8.5332V1.95005H9.06695V1.61255Z" fill="#146EF5"/>
<path d="M8.53375 1.61255H8V1.95005H8.53375V1.61255Z" fill="#146EF5"/>
<path d="M8.00055 1.61255H7.4668V1.95005H8.00055V1.61255Z" fill="#146EF5"/>
<path d="M7.46734 1.61255H6.93359V1.95005H7.46734V1.61255Z" fill="#146EF5"/>
<path d="M6.93414 1.61255H6.40039V1.95005H6.93414V1.61255Z" fill="#146EF5"/>
<path d="M6.39898 1.61255H5.86523V1.95005H6.39898V1.61255Z" fill="#146EF5"/>
<path d="M4.26812 1.61255H3.73438V1.95005H4.26812V1.61255Z" fill="#146EF5"/>
<path d="M3.73297 1.61255H3.19922V1.95005H3.73297V1.61255Z" fill="#146EF5"/>
<path d="M3.19976 1.61255H2.66602V1.95005H3.19976V1.61255Z" fill="#146EF5"/>
<path d="M2.66656 1.61255H2.13281V1.95005H2.66656V1.61255Z" fill="#146EF5"/>
<path d="M2.13336 1.61255H1.59961V1.95005H2.13336V1.61255Z" fill="#146EF5"/>
<path d="M1.60015 1.61255H1.06641V1.95005H1.60015V1.61255Z" fill="#146EF5"/>
<path d="M1.06695 1.61255H0.533203V1.95005H1.06695V1.61255Z" fill="#146EF5"/>
<path d="M0.533748 1.61255H0V1.95005H0.533748V1.61255Z" fill="#146EF5"/>
<path d="M15.4673 1.2749H14.9336V1.6124H15.4673V1.2749Z" fill="#146EF5"/>
<path d="M14.9341 1.2749H14.4004V1.6124H14.9341V1.2749Z" fill="#146EF5"/>
<path d="M14.399 1.2749H13.8652V1.6124H14.399V1.2749Z" fill="#146EF5"/>
<path d="M13.8677 1.2749H13.334V1.6124H13.8677V1.2749Z" fill="#146EF5"/>
<path d="M13.3345 1.2749H12.8008V1.6124H13.3345V1.2749Z" fill="#146EF5"/>
<path d="M12.7994 1.2749H12.2656V1.6124H12.7994V1.2749Z" fill="#146EF5"/>
<path d="M12.2681 1.2749H11.7344V1.6124H12.2681V1.2749Z" fill="#146EF5"/>
<path d="M11.733 1.2749H11.1992V1.6124H11.733V1.2749Z" fill="#146EF5"/>
<path d="M9.60015 1.2749H9.06641V1.6124H9.60015V1.2749Z" fill="#146EF5"/>
<path d="M9.06695 1.2749H8.5332V1.6124H9.06695V1.2749Z" fill="#146EF5"/>
<path d="M8.53375 1.2749H8V1.6124H8.53375V1.2749Z" fill="#146EF5"/>
<path d="M8.00055 1.2749H7.4668V1.6124H8.00055V1.2749Z" fill="#146EF5"/>
<path d="M7.46734 1.2749H6.93359V1.6124H7.46734V1.2749Z" fill="#146EF5"/>
<path d="M6.93414 1.2749H6.40039V1.6124H6.93414V1.2749Z" fill="#146EF5"/>
<path d="M6.39898 1.2749H5.86523V1.6124H6.39898V1.2749Z" fill="#146EF5"/>
<path d="M4.26812 1.2749H3.73438V1.6124H4.26812V1.2749Z" fill="#146EF5"/>
<path d="M3.73297 1.2749H3.19922V1.6124H3.73297V1.2749Z" fill="#146EF5"/>
<path d="M3.19976 1.2749H2.66602V1.6124H3.19976V1.2749Z" fill="#146EF5"/>
<path d="M2.66656 1.2749H2.13281V1.6124H2.66656V1.2749Z" fill="#146EF5"/>
<path d="M2.13336 1.2749H1.59961V1.6124H2.13336V1.2749Z" fill="#146EF5"/>
<path d="M1.60015 1.2749H1.06641V1.6124H1.60015V1.2749Z" fill="#146EF5"/>
<path d="M1.06695 1.2749H0.533203V1.6124H1.06695V1.2749Z" fill="#146EF5"/>
<path d="M0.533748 1.2749H0V1.6124H0.533748V1.2749Z" fill="#146EF5"/>
<path d="M16.0005 0.9375H15.4668V1.275H16.0005V0.9375Z" fill="#146EF5"/>
<path d="M15.4673 0.9375H14.9336V1.275H15.4673V0.9375Z" fill="#146EF5"/>
<path d="M14.9341 0.9375H14.4004V1.275H14.9341V0.9375Z" fill="#146EF5"/>
<path d="M14.399 0.9375H13.8652V1.275H14.399V0.9375Z" fill="#146EF5"/>
<path d="M13.8677 0.9375H13.334V1.275H13.8677V0.9375Z" fill="#146EF5"/>
<path d="M13.3345 0.9375H12.8008V1.275H13.3345V0.9375Z" fill="#146EF5"/>
<path d="M12.7994 0.9375H12.2656V1.275H12.7994V0.9375Z" fill="#146EF5"/>
<path d="M12.2681 0.9375H11.7344V1.275H12.2681V0.9375Z" fill="#146EF5"/>
<path d="M11.733 0.9375H11.1992V1.275H11.733V0.9375Z" fill="#146EF5"/>
<path d="M9.60015 0.9375H9.06641V1.275H9.60015V0.9375Z" fill="#146EF5"/>
<path d="M9.06695 0.9375H8.5332V1.275H9.06695V0.9375Z" fill="#146EF5"/>
<path d="M8.53375 0.9375H8V1.275H8.53375V0.9375Z" fill="#146EF5"/>
<path d="M8.00055 0.9375H7.4668V1.275H8.00055V0.9375Z" fill="#146EF5"/>
<path d="M7.46734 0.9375H6.93359V1.275H7.46734V0.9375Z" fill="#146EF5"/>
<path d="M6.93414 0.9375H6.40039V1.275H6.93414V0.9375Z" fill="#146EF5"/>
<path d="M6.39898 0.9375H5.86523V1.275H6.39898V0.9375Z" fill="#146EF5"/>
<path d="M4.26812 0.9375H3.73438V1.275H4.26812V0.9375Z" fill="#146EF5"/>
<path d="M3.73297 0.9375H3.19922V1.275H3.73297V0.9375Z" fill="#146EF5"/>
<path d="M3.19976 0.9375H2.66602V1.275H3.19976V0.9375Z" fill="#146EF5"/>
<path d="M2.66656 0.9375H2.13281V1.275H2.66656V0.9375Z" fill="#146EF5"/>
<path d="M2.13336 0.9375H1.59961V1.275H2.13336V0.9375Z" fill="#146EF5"/>
<path d="M1.60015 0.9375H1.06641V1.275H1.60015V0.9375Z" fill="#146EF5"/>
<path d="M1.06695 0.9375H0.533203V1.275H1.06695V0.9375Z" fill="#146EF5"/>
<path d="M0.533748 0.9375H0V1.275H0.533748V0.9375Z" fill="#146EF5"/>
</svg>
